<?xml version="1.0" encoding="UTF-8" standalone="no"?>
<!-- Created with Inkscape (http://www.inkscape.org/) -->

<svg
   xmlns:dc="http://purl.org/dc/elements/1.1/"
   xmlns:cc="http://creativecommons.org/ns#"
   xmlns:rdf="http://www.w3.org/1999/02/22-rdf-syntax-ns#"
   xmlns:svg="http://www.w3.org/2000/svg"
   xmlns="http://www.w3.org/2000/svg"
   xmlns:sodipodi="http://sodipodi.sourceforge.net/DTD/sodipodi-0.dtd"
   xmlns:inkscape="http://www.inkscape.org/namespaces/inkscape"
   width="519.19873"
   height="72.136253"
   id="svg4975"
   version="1.1"
   inkscape:version="0.48.4 r9939"
   sodipodi:docname="New document 5">
  <defs
     id="defs4977" />
  <sodipodi:namedview
     id="base"
     pagecolor="#ffffff"
     bordercolor="#666666"
     borderopacity="1.0"
     inkscape:pageopacity="0.0"
     inkscape:pageshadow="2"
     inkscape:zoom="1.33"
     inkscape:cx="259.59937"
     inkscape:cy="36.068127"
     inkscape:document-units="px"
     inkscape:current-layer="layer1"
     showgrid="false"
     fit-margin-top="0"
     fit-margin-left="0"
     fit-margin-right="0"
     fit-margin-bottom="0"
     inkscape:window-width="927"
     inkscape:window-height="1028"
     inkscape:window-x="1985"
     inkscape:window-y="24"
     inkscape:window-maximized="0" />
  <metadata
     id="metadata4980">
    <rdf:RDF>
      <cc:Work
         rdf:about="">
        <dc:format>image/svg+xml</dc:format>
        <dc:type
           rdf:resource="http://purl.org/dc/dcmitype/StillImage" />
        <dc:title></dc:title>
      </cc:Work>
    </rdf:RDF>
  </metadata>
  <g
     inkscape:label="Layer 1"
     inkscape:groupmode="layer"
     id="layer1"
     transform="translate(-115.40063,-496.29406)">
    <g
       id="g896"
       transform="matrix(1.25,0,0,-1.25,267.94938,527.40656)">
      <path
         inkscape:connector-curvature="0"
         d="m 0,0 c 0,-0.597 -0.106,-1.169 -0.319,-1.714 -0.211,-0.546 -0.546,-1.043 -1.005,-1.491 -0.459,-0.447 -1.067,-0.804 -1.825,-1.068 -0.757,-0.264 -1.65,-0.396 -2.677,-0.396 -1.489,0 -2.832,0.157 -4.034,0.469 -0.285,0.084 -0.427,0.226 -0.427,0.428 l 0,2.084 c 0,0.271 0.129,0.407 0.384,0.407 l 0.063,0 c 0.521,-0.049 1.234,-0.103 2.137,-0.162 0.904,-0.059 1.543,-0.089 1.918,-0.089 0.73,0 1.228,0.115 1.496,0.345 0.267,0.228 0.4,0.611 0.4,1.146 0,0.313 -0.096,0.58 -0.291,0.803 -0.195,0.222 -0.566,0.496 -1.115,0.823 l -2.94,1.751 c -0.632,0.375 -1.136,0.779 -1.515,1.209 -0.379,0.431 -0.643,0.882 -0.787,1.355 -0.147,0.472 -0.219,0.976 -0.219,1.511 0,1.279 0.424,2.291 1.271,3.038 0.848,0.748 2.245,1.121 4.19,1.121 0.771,0 1.615,-0.048 2.533,-0.146 0.916,-0.098 1.58,-0.205 1.99,-0.323 0.215,-0.049 0.323,-0.177 0.323,-0.386 l 0,-2.157 c 0,-0.236 -0.122,-0.355 -0.364,-0.355 l -0.043,0 c -0.41,0.028 -0.734,0.052 -0.974,0.074 -0.239,0.02 -0.567,0.043 -0.985,0.067 -0.416,0.024 -0.853,0.045 -1.308,0.063 -0.455,0.017 -0.873,0.026 -1.256,0.026 -0.59,0 -1.016,-0.093 -1.276,-0.276 -0.261,-0.185 -0.392,-0.471 -0.392,-0.861 0,-0.291 0.094,-0.533 0.283,-0.723 0.188,-0.192 0.572,-0.448 1.156,-0.767 l 2.731,-1.47 C -2.176,3.961 -1.608,3.548 -1.172,3.096 -0.739,2.645 -0.434,2.167 -0.262,1.663 -0.088,1.159 0,0.605 0,0"
         style="fill:#ffffff;fill-opacity:1;fill-rule:nonzero;stroke:none"
         id="path898" />
    </g>
    <g
       id="g900"
       transform="matrix(1.25,0,0,-1.25,279.40188,524.04406)">
      <path
         inkscape:connector-curvature="0"
         d="M 0,0 0,0.083 C 0,0.868 -0.17,1.461 -0.506,1.86 -0.844,2.259 -1.318,2.46 -1.93,2.46 -2.533,2.46 -3.012,2.255 -3.361,1.844 -3.713,1.434 -3.889,0.847 -3.889,0.083 L -3.889,0 0,0 z m 3.365,-1.626 c 0,-0.341 -0.148,-0.511 -0.447,-0.511 l -6.807,0 0,-0.042 c 0,-1.549 0.733,-2.324 2.199,-2.324 0.487,0 1.205,0.022 2.159,0.068 0.951,0.045 1.597,0.085 1.937,0.119 l 0.063,0 c 0.271,0 0.406,-0.11 0.406,-0.333 l 0,-1.626 c 0,-0.174 -0.033,-0.303 -0.098,-0.39 -0.066,-0.087 -0.183,-0.149 -0.349,-0.183 -1.356,-0.341 -2.815,-0.511 -4.377,-0.511 -0.696,0 -1.354,0.098 -1.977,0.292 -0.621,0.195 -1.187,0.507 -1.697,0.938 -0.512,0.43 -0.92,1.003 -1.225,1.715 -0.306,0.712 -0.459,1.558 -0.459,2.538 l 0,1.49 c 0,1.153 0.215,2.15 0.647,2.991 0.429,0.841 1.052,1.489 1.865,1.945 0.812,0.455 1.775,0.682 2.887,0.682 1.132,0 2.095,-0.24 2.892,-0.72 C 1.779,4.033 2.375,3.368 2.771,2.517 3.168,1.666 3.365,0.698 3.365,-0.386 l 0,-1.24"
         style="fill:#ffffff;fill-opacity:1;fill-rule:nonzero;stroke:none"
         id="path902" />
    </g>
    <g
       id="g904"
       transform="matrix(1.25,0,0,-1.25,306.55313,532.44781)">
      <path
         inkscape:connector-curvature="0"
         d="m 0,0 c 0,-0.118 -0.045,-0.223 -0.137,-0.312 -0.09,-0.091 -0.194,-0.136 -0.313,-0.136 l -2.584,0 c -0.111,0 -0.211,0.047 -0.297,0.14 -0.087,0.094 -0.13,0.197 -0.13,0.308 l 0,7.275 c 0,0.688 -0.092,1.156 -0.276,1.402 -0.185,0.247 -0.527,0.37 -1.027,0.37 -0.549,0 -1.094,-0.129 -1.637,-0.386 0.043,-0.417 0.063,-0.879 0.063,-1.386 l 0,-7.275 c 0,-0.111 -0.043,-0.214 -0.129,-0.308 -0.088,-0.093 -0.188,-0.14 -0.299,-0.14 l -2.584,0 c -0.119,0 -0.223,0.045 -0.313,0.136 -0.089,0.089 -0.134,0.194 -0.134,0.312 l 0,7.275 c 0,0.688 -0.086,1.156 -0.256,1.402 -0.17,0.247 -0.5,0.37 -0.986,0.37 -0.375,0 -0.913,-0.185 -1.616,-0.553 l 0,-8.494 c 0,-0.111 -0.043,-0.214 -0.129,-0.308 -0.088,-0.093 -0.187,-0.14 -0.297,-0.14 l -2.585,0 c -0.118,0 -0.223,0.045 -0.313,0.136 -0.09,0.089 -0.135,0.194 -0.135,0.312 l 0,11.361 c 0,0.104 0.041,0.202 0.125,0.291 0.082,0.091 0.184,0.136 0.301,0.136 l 2.43,0 c 0.117,0 0.219,-0.042 0.302,-0.125 0.083,-0.083 0.125,-0.184 0.125,-0.302 l 0,-0.479 c 1.063,0.715 2.116,1.073 3.159,1.073 0.568,0 1.06,-0.084 1.474,-0.25 0.412,-0.167 0.762,-0.432 1.047,-0.792 0.674,0.382 1.256,0.652 1.746,0.808 0.491,0.156 1.069,0.234 1.735,0.234 0.904,0 1.629,-0.189 2.173,-0.568 0.545,-0.379 0.932,-0.912 1.157,-1.6 C -0.114,9.099 0,8.262 0,7.275 L 0,0"
         style="fill:#ffffff;fill-opacity:1;fill-rule:nonzero;stroke:none"
         id="path906" />
    </g>
    <g
       id="g908"
       transform="matrix(1.25,0,0,-1.25,314.18688,532.47281)">
      <path
         inkscape:connector-curvature="0"
         d="m 0,0 c 0,-0.119 -0.045,-0.22 -0.135,-0.303 -0.092,-0.083 -0.187,-0.125 -0.293,-0.125 l -2.605,0 c -0.104,0 -0.201,0.042 -0.291,0.125 C -3.416,-0.22 -3.461,-0.119 -3.461,0 l 0,11.381 c 0,0.104 0.045,0.202 0.137,0.291 0.09,0.091 0.187,0.136 0.291,0.136 l 2.605,0 c 0.106,0 0.201,-0.045 0.293,-0.136 C -0.045,11.583 0,11.485 0,11.381 L 0,0 z m 0.084,13.622 c 0,-0.125 -0.043,-0.228 -0.125,-0.308 -0.084,-0.08 -0.186,-0.119 -0.303,-0.119 l -2.773,0 c -0.117,0 -0.219,0.041 -0.301,0.125 -0.084,0.083 -0.125,0.183 -0.125,0.302 l 0,1.98 c 0,0.118 0.039,0.219 0.119,0.303 0.08,0.083 0.182,0.125 0.307,0.125 l 2.773,0 c 0.131,0 0.237,-0.039 0.313,-0.115 0.076,-0.077 0.115,-0.181 0.115,-0.313 l 0,-1.98"
         style="fill:#ffffff;fill-opacity:1;fill-rule:nonzero;stroke:none"
         id="path910" />
    </g>
    <g
       id="g912"
       transform="matrix(1.25,0,0,-1.25,330.61563,532.44781)">
      <path
         inkscape:connector-curvature="0"
         d="m 0,0 c 0,-0.118 -0.045,-0.223 -0.135,-0.312 -0.09,-0.091 -0.196,-0.136 -0.313,-0.136 l -2.574,0 c -0.125,0 -0.228,0.047 -0.309,0.14 C -3.411,-0.214 -3.45,-0.111 -3.45,0 l 0,7.108 c 0,0.757 -0.103,1.277 -0.312,1.559 -0.209,0.281 -0.633,0.422 -1.272,0.422 -0.494,0 -1.16,-0.227 -2.002,-0.678 l 0,-8.411 c 0,-0.111 -0.043,-0.214 -0.128,-0.308 -0.088,-0.093 -0.188,-0.14 -0.297,-0.14 l -2.586,0 c -0.117,0 -0.223,0.045 -0.313,0.136 -0.09,0.089 -0.135,0.194 -0.135,0.312 l 0,11.361 c 0,0.104 0.041,0.202 0.125,0.291 0.082,0.091 0.184,0.136 0.301,0.136 l 2.387,0 c 0.119,0 0.221,-0.042 0.303,-0.125 0.084,-0.083 0.125,-0.184 0.125,-0.302 l 0,-0.521 c 0.605,0.424 1.164,0.716 1.677,0.875 0.516,0.16 1.116,0.24 1.805,0.24 1.43,0 2.418,-0.426 2.959,-1.277 C -0.27,9.827 0,8.637 0,7.108 L 0,0"
         style="fill:#ffffff;fill-opacity:1;fill-rule:nonzero;stroke:none"
         id="path914" />
    </g>
    <g
       id="g916"
       transform="matrix(1.25,0,0,-1.25,341.36438,529.41156)">
      <path
         inkscape:connector-curvature="0"
         d="m 0,0 0,2.355 -1.209,0 C -1.931,2.355 -2.426,2.233 -2.689,1.99 -2.953,1.747 -3.086,1.347 -3.086,0.792 l 0,-0.188 c 0,-0.424 0.106,-0.709 0.313,-0.854 0.209,-0.147 0.552,-0.22 1.033,-0.22 0.521,0 1.102,0.157 1.74,0.47 z m 3.399,-2.449 c 0,-0.125 -0.043,-0.229 -0.125,-0.308 -0.084,-0.08 -0.186,-0.12 -0.303,-0.12 l -2.387,0 c -0.119,0 -0.219,0.042 -0.303,0.125 -0.084,0.083 -0.125,0.184 -0.125,0.303 l 0,0.343 c -0.445,-0.32 -0.904,-0.559 -1.375,-0.719 -0.472,-0.16 -1.005,-0.24 -1.595,-0.24 -1.035,0 -1.903,0.29 -2.6,0.87 -0.699,0.581 -1.049,1.513 -1.049,2.799 l 0,0.188 c 0,1.251 0.418,2.164 1.252,2.741 0.834,0.576 2.168,0.865 4.002,0.865 l 1.147,0 0,0.772 c 0,0.583 -0.129,0.973 -0.387,1.172 -0.256,0.198 -0.66,0.296 -1.209,0.296 -1.34,0 -2.522,-0.047 -3.543,-0.145 l -0.104,0 c -0.257,0 -0.386,0.129 -0.386,0.386 l 0,1.73 c 0,0.25 0.136,0.406 0.406,0.469 1.244,0.299 2.475,0.448 3.689,0.448 1.6,0 2.831,-0.349 3.696,-1.048 C 2.965,7.78 3.399,6.677 3.399,5.17 l 0,-7.619"
         style="fill:#ffffff;fill-opacity:1;fill-rule:nonzero;stroke:none"
         id="path918" />
    </g>
    <g
       id="g920"
       transform="matrix(1.25,0,0,-1.25,357.19438,520.57906)">
      <path
         inkscape:connector-curvature="0"
         d="m 0,0 c 0,-0.104 -0.031,-0.198 -0.094,-0.281 l -0.228,-0.125 -0.168,0 c -0.932,0 -1.848,-0.247 -2.752,-0.74 l 0,-8.349 c 0,-0.111 -0.043,-0.214 -0.129,-0.308 -0.088,-0.093 -0.187,-0.14 -0.297,-0.14 l -2.586,0 c -0.117,0 -0.222,0.045 -0.312,0.136 -0.09,0.089 -0.135,0.194 -0.135,0.312 l 0,11.361 c 0,0.104 0.041,0.202 0.125,0.291 0.082,0.091 0.184,0.136 0.301,0.136 l 2.545,0 c 0.103,0 0.201,-0.045 0.291,-0.136 0.09,-0.089 0.135,-0.187 0.135,-0.291 l 0,-0.427 c 0.382,0.319 0.832,0.569 1.349,0.75 0.518,0.18 1.028,0.271 1.528,0.271 0.119,0 0.218,-0.042 0.302,-0.125 C -0.041,2.251 0,2.151 0,2.032 L 0,0"
         style="fill:#ffffff;fill-opacity:1;fill-rule:nonzero;stroke:none"
         id="path922" />
    </g>
    <g
       id="g924"
       transform="matrix(1.25,0,0,-1.25,363.81313,532.47281)">
      <path
         inkscape:connector-curvature="0"
         d="m 0,0 c 0,-0.119 -0.045,-0.22 -0.135,-0.303 -0.091,-0.083 -0.187,-0.125 -0.293,-0.125 l -2.605,0 c -0.104,0 -0.201,0.042 -0.291,0.125 C -3.416,-0.22 -3.461,-0.119 -3.461,0 l 0,11.381 c 0,0.104 0.045,0.202 0.137,0.291 0.09,0.091 0.187,0.136 0.291,0.136 l 2.605,0 c 0.106,0 0.202,-0.045 0.293,-0.136 C -0.045,11.583 0,11.485 0,11.381 L 0,0 z m 0.084,13.622 c 0,-0.125 -0.043,-0.228 -0.125,-0.308 -0.084,-0.08 -0.185,-0.119 -0.303,-0.119 l -2.773,0 c -0.117,0 -0.219,0.041 -0.301,0.125 -0.084,0.083 -0.125,0.183 -0.125,0.302 l 0,1.98 c 0,0.118 0.039,0.219 0.119,0.303 0.08,0.083 0.182,0.125 0.307,0.125 l 2.773,0 c 0.131,0 0.237,-0.039 0.313,-0.115 0.076,-0.077 0.115,-0.181 0.115,-0.313 l 0,-1.98"
         style="fill:#ffffff;fill-opacity:1;fill-rule:nonzero;stroke:none"
         id="path926" />
    </g>
    <g
       id="g928"
       transform="matrix(1.25,0,0,-1.25,375.76188,526.31156)">
      <path
         inkscape:connector-curvature="0"
         d="M 0,0 0,1.49 C 0,2.352 -0.16,3.002 -0.481,3.44 -0.799,3.877 -1.272,4.096 -1.899,4.096 -2.516,4.096 -2.99,3.879 -3.321,3.445 -3.651,3.011 -3.815,2.36 -3.815,1.49 l 0,-1.49 c 0,-0.861 0.166,-1.514 0.5,-1.96 0.332,-0.444 0.805,-0.667 1.416,-0.667 0.619,0 1.09,0.223 1.414,0.667 C -0.162,-1.514 0,-0.861 0,0 z m 3.439,0 c 0,-1.723 -0.465,-3.078 -1.392,-4.065 -0.928,-0.987 -2.243,-1.48 -3.946,-1.48 -1.125,0 -2.091,0.224 -2.902,0.672 -0.809,0.448 -1.42,1.091 -1.834,1.929 -0.414,0.837 -0.619,1.818 -0.619,2.944 l 0,1.49 c 0,1.126 0.203,2.108 0.613,2.945 0.41,0.838 1.022,1.482 1.836,1.933 0.813,0.453 1.781,0.678 2.906,0.678 1.703,0 3.018,-0.497 3.946,-1.49 C 2.974,4.562 3.439,3.207 3.439,1.49 l 0,-1.49"
         style="fill:#ffffff;fill-opacity:1;fill-rule:nonzero;stroke:none"
         id="path930" />
    </g>
    <g
       id="g932"
       transform="matrix(1.25,0,0,-1.25,394.59938,532.47281)">
      <path
         inkscape:connector-curvature="0"
         d="m 0,0 c 0,-0.125 -0.039,-0.229 -0.119,-0.308 -0.08,-0.08 -0.176,-0.12 -0.287,-0.12 l -2.865,0 c -0.106,0 -0.196,0.042 -0.272,0.125 C -3.619,-0.22 -3.658,-0.119 -3.658,0 l 0,15.029 c 0,0.111 0.037,0.207 0.109,0.287 0.074,0.079 0.166,0.119 0.278,0.119 l 2.865,0 c 0.119,0 0.217,-0.038 0.293,-0.114 C -0.037,15.245 0,15.147 0,15.029 L 0,0"
         style="fill:#ffffff;fill-opacity:1;fill-rule:nonzero;stroke:none"
         id="path934" />
    </g>
    <g
       id="g936"
       transform="matrix(1.25,0,0,-1.25,411.18688,532.44781)">
      <path
         inkscape:connector-curvature="0"
         d="M 0,0 C 0,-0.118 -0.045,-0.223 -0.135,-0.312 -0.227,-0.403 -0.33,-0.448 -0.45,-0.448 l -2.574,0 c -0.125,0 -0.226,0.047 -0.306,0.14 -0.081,0.094 -0.12,0.197 -0.12,0.308 l 0,7.108 c 0,0.757 -0.105,1.277 -0.314,1.559 -0.207,0.281 -0.631,0.422 -1.272,0.422 -0.492,0 -1.16,-0.227 -2,-0.678 l 0,-8.411 c 0,-0.111 -0.043,-0.214 -0.13,-0.308 -0.086,-0.093 -0.186,-0.14 -0.297,-0.14 l -2.584,0 c -0.119,0 -0.223,0.045 -0.313,0.136 -0.092,0.089 -0.136,0.194 -0.136,0.312 l 0,11.361 c 0,0.104 0.041,0.202 0.125,0.291 0.083,0.091 0.183,0.136 0.302,0.136 l 2.387,0 c 0.117,0 0.219,-0.042 0.303,-0.125 0.082,-0.083 0.125,-0.184 0.125,-0.302 l 0,-0.521 c 0.603,0.424 1.164,0.716 1.677,0.875 0.514,0.16 1.116,0.24 1.803,0.24 1.432,0 2.418,-0.426 2.961,-1.277 C -0.272,9.827 0,8.637 0,7.108 L 0,0"
         style="fill:#ffffff;fill-opacity:1;fill-rule:nonzero;stroke:none"
         id="path938" />
    </g>
    <g
       id="g940"
       transform="matrix(1.25,0,0,-1.25,422.84688,532.50031)">
      <path
         inkscape:connector-curvature="0"
         d="m 0,0 c 0,-0.236 -0.135,-0.379 -0.407,-0.427 -0.687,-0.111 -1.25,-0.167 -1.689,-0.167 -0.611,0 -1.133,0.051 -1.568,0.152 -0.434,0.1 -0.805,0.284 -1.11,0.551 C -5.08,0.377 -5.307,0.752 -5.457,1.235 -5.606,1.718 -5.68,2.324 -5.68,3.054 l 0,6.191 -1.709,0.272 c -0.127,0.02 -0.232,0.071 -0.318,0.15 -0.088,0.08 -0.131,0.18 -0.131,0.298 l 0,1.406 c 0,0.126 0.045,0.234 0.135,0.323 0.091,0.091 0.195,0.136 0.314,0.136 l 1.709,0 0,1.74 c 0,0.237 0.143,0.379 0.428,0.428 l 2.605,0.448 0.063,0 c 0.109,0 0.203,-0.031 0.275,-0.093 0.072,-0.063 0.11,-0.15 0.11,-0.261 l 0,-2.262 1.751,0 c 0.104,0 0.202,-0.045 0.291,-0.136 0.09,-0.089 0.135,-0.187 0.135,-0.291 l 0,-1.73 C -0.022,9.555 -0.067,9.454 -0.157,9.37 -0.246,9.287 -0.344,9.245 -0.448,9.245 l -1.751,0 0,-6.212 c 0,-0.292 0.015,-0.509 0.046,-0.651 0.032,-0.143 0.096,-0.238 0.194,-0.286 0.097,-0.049 0.25,-0.073 0.459,-0.073 l 1.052,0 C -0.149,2.023 0,1.904 0,1.668 L 0,0"
         style="fill:#ffffff;fill-opacity:1;fill-rule:nonzero;stroke:none"
         id="path942" />
    </g>
    <g
       id="g944"
       transform="matrix(1.25,0,0,-1.25,433.99938,524.04406)">
      <path
         inkscape:connector-curvature="0"
         d="M 0,0 0,0.083 C 0,0.868 -0.168,1.461 -0.506,1.86 -0.842,2.259 -1.317,2.46 -1.928,2.46 -2.534,2.46 -3.01,2.255 -3.362,1.844 -3.713,1.434 -3.887,0.847 -3.887,0.083 L -3.887,0 0,0 z m 3.367,-1.626 c 0,-0.341 -0.151,-0.511 -0.449,-0.511 l -6.805,0 0,-0.042 c 0,-1.549 0.732,-2.324 2.199,-2.324 0.486,0 1.205,0.022 2.156,0.068 0.953,0.045 1.598,0.085 1.94,0.119 l 0.062,0 c 0.272,0 0.407,-0.11 0.407,-0.333 l 0,-1.626 c 0,-0.174 -0.034,-0.303 -0.1,-0.39 -0.066,-0.087 -0.182,-0.149 -0.35,-0.183 -1.353,-0.341 -2.812,-0.511 -4.377,-0.511 -0.695,0 -1.353,0.098 -1.974,0.292 -0.623,0.195 -1.188,0.507 -1.699,0.938 -0.51,0.43 -0.918,1.003 -1.225,1.715 -0.307,0.712 -0.459,1.558 -0.459,2.538 l 0,1.49 c 0,1.153 0.215,2.15 0.646,2.991 0.432,0.841 1.053,1.489 1.866,1.945 0.814,0.455 1.775,0.682 2.886,0.682 1.133,0 2.098,-0.24 2.893,-0.72 C 1.781,4.033 2.377,3.368 2.773,2.517 3.168,1.666 3.367,0.698 3.367,-0.386 l 0,-1.24"
         style="fill:#ffffff;fill-opacity:1;fill-rule:nonzero;stroke:none"
         id="path946" />
    </g>
    <g
       id="g948"
       transform="matrix(1.25,0,0,-1.25,449.38438,520.57906)">
      <path
         inkscape:connector-curvature="0"
         d="m 0,0 c 0,-0.104 -0.031,-0.198 -0.094,-0.281 l -0.228,-0.125 -0.166,0 c -0.932,0 -1.85,-0.247 -2.752,-0.74 l 0,-8.349 c 0,-0.111 -0.043,-0.214 -0.131,-0.308 -0.086,-0.093 -0.185,-0.14 -0.297,-0.14 l -2.584,0 c -0.119,0 -0.222,0.045 -0.312,0.136 -0.092,0.089 -0.137,0.194 -0.137,0.312 l 0,11.361 c 0,0.104 0.041,0.202 0.125,0.291 0.084,0.091 0.184,0.136 0.303,0.136 l 2.543,0 c 0.103,0 0.201,-0.045 0.291,-0.136 0.092,-0.089 0.136,-0.187 0.136,-0.291 l 0,-0.427 c 0.381,0.319 0.832,0.569 1.35,0.75 0.518,0.18 1.027,0.271 1.527,0.271 0.118,0 0.219,-0.042 0.301,-0.125 C -0.041,2.251 0,2.151 0,2.032 L 0,0"
         style="fill:#ffffff;fill-opacity:1;fill-rule:nonzero;stroke:none"
         id="path950" />
    </g>
    <g
       id="g952"
       transform="matrix(1.25,0,0,-1.25,464.69438,532.44781)">
      <path
         inkscape:connector-curvature="0"
         d="M 0,0 C 0,-0.118 -0.045,-0.223 -0.135,-0.312 -0.226,-0.403 -0.33,-0.448 -0.449,-0.448 l -2.574,0 c -0.125,0 -0.227,0.047 -0.307,0.14 -0.08,0.094 -0.119,0.197 -0.119,0.308 l 0,7.108 c 0,0.757 -0.105,1.277 -0.314,1.559 -0.207,0.281 -0.631,0.422 -1.272,0.422 -0.492,0 -1.16,-0.227 -2,-0.678 l 0,-8.411 c 0,-0.111 -0.043,-0.214 -0.131,-0.308 -0.086,-0.093 -0.185,-0.14 -0.297,-0.14 l -2.584,0 c -0.119,0 -0.222,0.045 -0.312,0.136 -0.092,0.089 -0.137,0.194 -0.137,0.312 l 0,11.361 c 0,0.104 0.041,0.202 0.125,0.291 0.084,0.091 0.184,0.136 0.303,0.136 l 2.387,0 c 0.117,0 0.218,-0.042 0.302,-0.125 0.082,-0.083 0.125,-0.184 0.125,-0.302 l 0,-0.521 c 0.604,0.424 1.164,0.716 1.678,0.875 0.514,0.16 1.115,0.24 1.803,0.24 1.431,0 2.418,-0.426 2.961,-1.277 C -0.271,9.827 0,8.637 0,7.108 L 0,0"
         style="fill:#ffffff;fill-opacity:1;fill-rule:nonzero;stroke:none"
         id="path954" />
    </g>
    <g
       id="g956"
       transform="matrix(1.25,0,0,-1.25,475.44188,529.41156)">
      <path
         inkscape:connector-curvature="0"
         d="m 0,0 0,2.355 -1.209,0 C -1.932,2.355 -2.424,2.233 -2.688,1.99 -2.953,1.747 -3.084,1.347 -3.084,0.792 l 0,-0.188 c 0,-0.424 0.103,-0.709 0.312,-0.854 0.209,-0.147 0.553,-0.22 1.032,-0.22 0.521,0 1.101,0.157 1.74,0.47 z m 3.398,-2.449 c 0,-0.125 -0.041,-0.229 -0.125,-0.308 -0.084,-0.08 -0.183,-0.12 -0.302,-0.12 l -2.387,0 c -0.117,0 -0.219,0.042 -0.301,0.125 -0.084,0.083 -0.127,0.184 -0.127,0.303 l 0,0.343 c -0.443,-0.32 -0.902,-0.559 -1.375,-0.719 -0.473,-0.16 -1.004,-0.24 -1.594,-0.24 -1.037,0 -1.902,0.29 -2.601,0.87 -0.697,0.581 -1.047,1.513 -1.047,2.799 l 0,0.188 c 0,1.251 0.416,2.164 1.25,2.741 0.834,0.576 2.168,0.865 4.002,0.865 l 1.146,0 0,0.772 c 0,0.583 -0.127,0.973 -0.384,1.172 -0.258,0.198 -0.661,0.296 -1.209,0.296 -1.342,0 -2.522,-0.047 -3.543,-0.145 l -0.106,0 c -0.256,0 -0.385,0.129 -0.385,0.386 l 0,1.73 c 0,0.25 0.135,0.406 0.407,0.469 1.244,0.299 2.472,0.448 3.689,0.448 1.598,0 2.83,-0.349 3.695,-1.048 C 2.967,7.78 3.398,6.677 3.398,5.17 l 0,-7.619"
         style="fill:#ffffff;fill-opacity:1;fill-rule:nonzero;stroke:none"
         id="path958" />
    </g>
    <g
       id="g960"
       transform="matrix(1.25,0,0,-1.25,492.82188,532.23906)">
      <path
         inkscape:connector-curvature="0"
         d="m 0,0 c 0,-0.153 -0.031,-0.261 -0.094,-0.323 -0.062,-0.063 -0.181,-0.118 -0.353,-0.167 -0.863,-0.208 -1.811,-0.313 -2.846,-0.313 -1.521,0 -2.73,0.473 -3.627,1.417 -0.896,0.946 -1.345,2.273 -1.345,3.982 l 0,1.793 c 0,1.126 0.203,2.096 0.609,2.913 0.408,0.816 0.986,1.435 1.736,1.855 0.75,0.421 1.625,0.631 2.627,0.631 1.063,0 2.012,-0.108 2.846,-0.323 0.172,-0.049 0.291,-0.105 0.353,-0.167 C -0.031,11.235 0,11.128 0,10.975 L 0,9.078 C 0,8.974 -0.041,8.887 -0.125,8.817 -0.209,8.748 -0.303,8.713 -0.406,8.713 l -0.041,0 c -0.926,0.098 -1.793,0.146 -2.607,0.146 -1.167,0 -1.75,-0.823 -1.75,-2.47 l 0,-1.793 c 0,-0.889 0.16,-1.525 0.478,-1.907 0.32,-0.382 0.744,-0.574 1.272,-0.574 0.445,0 0.896,0.015 1.355,0.042 0.459,0.028 0.875,0.063 1.252,0.105 l 0.041,0 c 0.117,0 0.215,-0.033 0.291,-0.1 C -0.039,2.097 0,2.012 0,1.907 L 0,0"
         style="fill:#ffffff;fill-opacity:1;fill-rule:nonzero;stroke:none"
         id="path962" />
    </g>
    <g
       id="g964"
       transform="matrix(1.25,0,0,-1.25,499.97563,532.47281)">
      <path
         inkscape:connector-curvature="0"
         d="m 0,0 c 0,-0.119 -0.047,-0.22 -0.137,-0.303 -0.09,-0.083 -0.187,-0.125 -0.291,-0.125 l -2.605,0 c -0.106,0 -0.203,0.042 -0.293,0.125 -0.09,0.083 -0.135,0.184 -0.135,0.303 l 0,11.381 c 0,0.104 0.045,0.202 0.135,0.291 0.09,0.091 0.187,0.136 0.293,0.136 l 2.605,0 c 0.104,0 0.201,-0.045 0.291,-0.136 C -0.047,11.583 0,11.485 0,11.381 L 0,0 z m 0.082,13.622 c 0,-0.125 -0.041,-0.228 -0.125,-0.308 -0.084,-0.08 -0.184,-0.119 -0.303,-0.119 l -2.771,0 c -0.119,0 -0.219,0.041 -0.303,0.125 -0.084,0.083 -0.125,0.183 -0.125,0.302 l 0,1.98 c 0,0.118 0.041,0.219 0.121,0.303 0.078,0.083 0.182,0.125 0.307,0.125 l 2.771,0 c 0.133,0 0.236,-0.039 0.315,-0.115 0.076,-0.077 0.113,-0.181 0.113,-0.313 l 0,-1.98"
         style="fill:#ffffff;fill-opacity:1;fill-rule:nonzero;stroke:none"
         id="path966" />
    </g>
    <g
       id="g968"
       transform="matrix(1.25,0,0,-1.25,511.92063,526.31156)">
      <path
         inkscape:connector-curvature="0"
         d="M 0,0 0,1.49 C 0,2.352 -0.16,3.002 -0.478,3.44 -0.798,3.877 -1.271,4.096 -1.896,4.096 -2.515,4.096 -2.99,3.879 -3.318,3.445 -3.648,3.011 -3.814,2.36 -3.814,1.49 l 0,-1.49 c 0,-0.861 0.166,-1.514 0.5,-1.96 0.334,-0.444 0.807,-0.667 1.418,-0.667 0.619,0 1.09,0.223 1.412,0.667 C -0.162,-1.514 0,-0.861 0,0 z m 3.44,0 c 0,-1.723 -0.463,-3.078 -1.391,-4.065 -0.927,-0.987 -2.242,-1.48 -3.945,-1.48 -1.125,0 -2.094,0.224 -2.902,0.672 -0.811,0.448 -1.422,1.091 -1.834,1.929 -0.414,0.837 -0.621,1.818 -0.621,2.944 l 0,1.49 c 0,1.126 0.205,2.108 0.615,2.945 0.41,0.838 1.021,1.482 1.834,1.933 0.812,0.453 1.783,0.678 2.908,0.678 1.703,0 3.018,-0.497 3.945,-1.49 C 2.977,4.562 3.44,3.207 3.44,1.49 L 3.44,0"
         style="fill:#ffffff;fill-opacity:1;fill-rule:nonzero;stroke:none"
         id="path970" />
    </g>
    <g
       id="g972"
       transform="matrix(1.25,0,0,-1.25,532.11438,532.44781)">
      <path
         inkscape:connector-curvature="0"
         d="m 0,0 c 0,-0.118 -0.045,-0.223 -0.135,-0.312 -0.09,-0.091 -0.195,-0.136 -0.312,-0.136 l -2.575,0 c -0.125,0 -0.228,0.047 -0.308,0.14 -0.08,0.094 -0.119,0.197 -0.119,0.308 l 0,7.108 c 0,0.757 -0.104,1.277 -0.313,1.559 -0.209,0.281 -0.633,0.422 -1.271,0.422 -0.495,0 -1.161,-0.227 -2.002,-0.678 l 0,-8.411 c 0,-0.111 -0.043,-0.214 -0.129,-0.308 -0.088,-0.093 -0.188,-0.14 -0.297,-0.14 l -2.586,0 c -0.117,0 -0.223,0.045 -0.313,0.136 -0.089,0.089 -0.134,0.194 -0.134,0.312 l 0,11.361 c 0,0.104 0.041,0.202 0.125,0.291 0.082,0.091 0.183,0.136 0.3,0.136 l 2.387,0 c 0.119,0 0.221,-0.042 0.303,-0.125 0.084,-0.083 0.125,-0.184 0.125,-0.302 l 0,-0.521 c 0.605,0.424 1.164,0.716 1.678,0.875 0.515,0.16 1.115,0.24 1.804,0.24 1.43,0 2.418,-0.426 2.959,-1.277 C -0.27,9.827 0,8.637 0,7.108 L 0,0"
         style="fill:#ffffff;fill-opacity:1;fill-rule:nonzero;stroke:none"
         id="path974" />
    </g>
    <g
       id="g976"
       transform="matrix(1.25,0,0,-1.25,542.86313,529.41156)">
      <path
         inkscape:connector-curvature="0"
         d="m 0,0 0,2.355 -1.209,0 C -1.931,2.355 -2.425,2.233 -2.689,1.99 -2.953,1.747 -3.086,1.347 -3.086,0.792 l 0,-0.188 c 0,-0.424 0.106,-0.709 0.313,-0.854 0.209,-0.147 0.553,-0.22 1.033,-0.22 0.522,0 1.102,0.157 1.74,0.47 z m 3.399,-2.449 c 0,-0.125 -0.043,-0.229 -0.125,-0.308 -0.084,-0.08 -0.186,-0.12 -0.303,-0.12 l -2.387,0 c -0.119,0 -0.218,0.042 -0.302,0.125 -0.084,0.083 -0.125,0.184 -0.125,0.303 l 0,0.343 c -0.446,-0.32 -0.905,-0.559 -1.375,-0.719 -0.473,-0.16 -1.006,-0.24 -1.596,-0.24 -1.035,0 -1.902,0.29 -2.6,0.87 -0.699,0.581 -1.048,1.513 -1.048,2.799 l 0,0.188 c 0,1.251 0.417,2.164 1.251,2.741 0.834,0.576 2.168,0.865 4.002,0.865 l 1.147,0 0,0.772 c 0,0.583 -0.129,0.973 -0.387,1.172 -0.256,0.198 -0.66,0.296 -1.209,0.296 -1.34,0 -2.521,-0.047 -3.543,-0.145 l -0.103,0 c -0.258,0 -0.387,0.129 -0.387,0.386 l 0,1.73 c 0,0.25 0.137,0.406 0.406,0.469 1.244,0.299 2.475,0.448 3.69,0.448 1.599,0 2.83,-0.349 3.695,-1.048 C 2.965,7.78 3.399,6.677 3.399,5.17 l 0,-7.619"
         style="fill:#ffffff;fill-opacity:1;fill-rule:nonzero;stroke:none"
         id="path978" />
    </g>
    <g
       id="g980"
       transform="matrix(1.25,0,0,-1.25,554.64063,532.44781)">
      <path
         inkscape:connector-curvature="0"
         d="m 0,0 c 0,-0.118 -0.037,-0.223 -0.113,-0.312 -0.078,-0.091 -0.174,-0.136 -0.293,-0.136 l -2.605,0 c -0.118,0 -0.223,0.045 -0.313,0.136 -0.09,0.089 -0.135,0.194 -0.135,0.312 l 0,15.499 c 0,0.11 0.047,0.21 0.141,0.297 0.094,0.087 0.195,0.13 0.307,0.13 l 2.605,0 c 0.111,0 0.207,-0.043 0.287,-0.13 C -0.039,15.709 0,15.609 0,15.499 L 0,0"
         style="fill:#ffffff;fill-opacity:1;fill-rule:nonzero;stroke:none"
         id="path982" />
    </g>
    <g
       id="g984"
       transform="matrix(1.25,0,0,-1.25,260.71563,551.56906)">
      <path
         inkscape:connector-curvature="0"
         d="M 0,0 0,6.053 C -0.233,6.098 -0.493,6.126 -0.782,6.139 -1.069,6.152 -1.403,6.157 -1.78,6.157 -2.256,6.157 -2.643,6.06 -2.94,5.863 -3.239,5.667 -3.45,5.382 -3.573,5.007 -3.698,4.632 -3.76,4.162 -3.76,3.596 l 0,-1.094 c 0,-0.874 0.15,-1.525 0.447,-1.954 0.299,-0.43 0.809,-0.645 1.533,-0.645 0.448,0 1.041,0.033 1.78,0.097 z M 1.347,-0.655 C 1.347,-0.769 1.326,-0.85 1.285,-0.9 1.242,-0.95 1.156,-0.987 1.027,-1.013 0.134,-1.18 -0.801,-1.265 -1.78,-1.265 c -0.738,0 -1.357,0.153 -1.857,0.458 -0.498,0.305 -0.867,0.742 -1.109,1.31 -0.241,0.568 -0.36,1.234 -0.36,1.999 l 0,1.094 c 0,0.611 0.067,1.145 0.203,1.604 0.137,0.459 0.346,0.848 0.627,1.165 0.28,0.319 0.627,0.559 1.041,0.723 0.414,0.164 0.901,0.245 1.455,0.245 0.309,0 0.616,-0.012 0.924,-0.037 C -0.547,7.272 -0.262,7.232 0,7.177 l 0,2.837 0.082,0.205 0.209,0.085 0.781,0 0.193,-0.082 0.082,-0.208 0,-10.669"
         style="fill:#ffffff;fill-opacity:1;fill-rule:nonzero;stroke:none"
         id="path986" />
    </g>
    <g
       id="g988"
       transform="matrix(1.25,0,0,-1.25,271.37188,547.03656)">
      <path
         inkscape:connector-curvature="0"
         d="m 0,0 0,0.142 c 0,0.56 -0.074,1.019 -0.221,1.377 -0.144,0.357 -0.365,0.615 -0.658,0.774 -0.293,0.159 -0.664,0.238 -1.117,0.238 -1.359,0 -2.039,-0.796 -2.039,-2.389 L -4.035,0 0,0 z m 1.361,-0.684 c 0,-0.224 -0.095,-0.335 -0.289,-0.335 l -5.107,0 0,-0.217 c 0,-0.883 0.172,-1.519 0.517,-1.905 0.344,-0.388 0.877,-0.582 1.598,-0.582 0.471,0 0.951,0.015 1.44,0.045 0.488,0.03 0.914,0.073 1.277,0.127 l 0.074,0 c 0.164,0 0.246,-0.072 0.246,-0.216 l 0,-0.514 C 1.117,-4.385 1.096,-4.463 1.053,-4.515 1.012,-4.567 0.93,-4.608 0.811,-4.639 0.398,-4.718 -0.031,-4.779 -0.48,-4.824 c -0.45,-0.045 -0.93,-0.067 -1.44,-0.067 -0.641,0 -1.219,0.114 -1.736,0.342 -0.516,0.229 -0.932,0.614 -1.25,1.155 -0.319,0.541 -0.477,1.259 -0.477,2.158 l 0,1.378 c 0,1.101 0.297,1.971 0.891,2.609 0.592,0.638 1.426,0.956 2.496,0.956 0.721,0 1.334,-0.145 1.844,-0.438 C 0.356,2.976 0.736,2.56 0.986,2.022 1.236,1.483 1.361,0.857 1.361,0.142 l 0,-0.826"
         style="fill:#ffffff;fill-opacity:1;fill-rule:nonzero;stroke:none"
         id="path990" />
    </g>
    <g
       id="g992"
       transform="matrix(1.25,0,0,-1.25,288.29813,549.34531)">
      <path
         inkscape:connector-curvature="0"
         d="m 0,0 c 0,-0.863 -0.283,-1.586 -0.852,-2.169 -0.568,-0.583 -1.539,-0.875 -2.914,-0.875 -0.794,0 -1.638,0.07 -2.531,0.209 -0.119,0.019 -0.197,0.047 -0.234,0.084 l -0.057,0.191 0,0.61 c 0,0.164 0.088,0.246 0.26,0.246 l 0.045,0 c 0.701,-0.059 1.539,-0.089 2.517,-0.089 0.858,0 1.459,0.152 1.801,0.458 0.344,0.304 0.514,0.751 0.514,1.335 0,0.377 -0.127,0.706 -0.379,0.984 -0.254,0.277 -0.734,0.633 -1.445,1.064 L -4.756,2.949 C -5.49,3.396 -6.025,3.836 -6.361,4.27 -6.695,4.705 -6.863,5.214 -6.863,5.8 c 0,0.899 0.314,1.573 0.941,2.022 0.629,0.449 1.531,0.674 2.707,0.674 0.342,0 0.676,-0.009 1,-0.027 0.326,-0.017 0.613,-0.037 0.862,-0.059 0.248,-0.023 0.509,-0.056 0.789,-0.101 0.173,-0.034 0.259,-0.119 0.259,-0.253 l 0,-0.655 c 0,-0.164 -0.086,-0.245 -0.259,-0.245 l -0.03,0 C -1.488,7.215 -2.361,7.245 -3.215,7.245 -4.023,7.245 -4.6,7.139 -4.943,6.928 -5.285,6.717 -5.457,6.341 -5.457,5.8 c 0,-0.342 0.123,-0.642 0.365,-0.9 0.244,-0.259 0.676,-0.573 1.295,-0.946 l 1.401,-0.841 c 0.58,-0.348 1.046,-0.682 1.4,-1.001 0.352,-0.321 0.605,-0.65 0.762,-0.988 C -0.078,0.788 0,0.413 0,0"
         style="fill:#ffffff;fill-opacity:1;fill-rule:nonzero;stroke:none"
         id="path994" />
    </g>
    <g
       id="g996"
       transform="matrix(1.25,0,0,-1.25,296.92563,547.03656)">
      <path
         inkscape:connector-curvature="0"
         d="m 0,0 0,0.142 c 0,0.56 -0.074,1.019 -0.22,1.377 -0.145,0.357 -0.366,0.615 -0.659,0.774 -0.292,0.159 -0.664,0.238 -1.117,0.238 -1.359,0 -2.039,-0.796 -2.039,-2.389 L -4.035,0 0,0 z m 1.362,-0.684 c 0,-0.224 -0.096,-0.335 -0.289,-0.335 l -5.108,0 0,-0.217 c 0,-0.883 0.172,-1.519 0.518,-1.905 0.344,-0.388 0.877,-0.582 1.597,-0.582 0.471,0 0.952,0.015 1.44,0.045 0.488,0.03 0.914,0.073 1.277,0.127 l 0.074,0 c 0.165,0 0.247,-0.072 0.247,-0.216 l 0,-0.514 C 1.118,-4.385 1.096,-4.463 1.053,-4.515 1.012,-4.567 0.93,-4.608 0.811,-4.639 0.399,-4.718 -0.031,-4.779 -0.48,-4.824 c -0.449,-0.045 -0.93,-0.067 -1.44,-0.067 -0.64,0 -1.218,0.114 -1.736,0.342 -0.515,0.229 -0.931,0.614 -1.25,1.155 -0.318,0.541 -0.476,1.259 -0.476,2.158 l 0,1.378 c 0,1.101 0.296,1.971 0.89,2.609 0.592,0.638 1.426,0.956 2.496,0.956 0.721,0 1.334,-0.145 1.844,-0.438 C 0.356,2.976 0.737,2.56 0.987,2.022 1.237,1.483 1.362,0.857 1.362,0.142 l 0,-0.826"
         style="fill:#ffffff;fill-opacity:1;fill-rule:nonzero;stroke:none"
         id="path998" />
    </g>
    <g
       id="g1000"
       transform="matrix(1.25,0,0,-1.25,307.54438,546.06031)">
      <path
         inkscape:connector-curvature="0"
         d="M 0,0 0,0.12 C 0,0.626 -0.153,1.025 -0.457,1.315 -0.762,1.605 -1.297,1.75 -2.061,1.75 -2.836,1.75 -3.372,1.603 -3.67,1.307 -3.967,1.012 -4.118,0.617 -4.118,0.12 l 0,-0.12 c 0,-0.436 0.151,-0.804 0.448,-1.105 0.298,-0.3 0.834,-0.45 1.609,-0.45 0.764,0 1.299,0.134 1.604,0.402 C -0.153,-0.885 0,-0.501 0,0 z m 0.119,-6.253 0,0.12 c 0,0.287 -0.133,0.514 -0.399,0.68 -0.265,0.166 -0.752,0.336 -1.463,0.51 l -1.718,0.439 c -0.245,-0.208 -0.428,-0.426 -0.555,-0.655 -0.127,-0.228 -0.19,-0.528 -0.19,-0.9 l 0,-0.134 c 0,-0.308 0.067,-0.561 0.202,-0.76 0.132,-0.198 0.363,-0.352 0.691,-0.462 0.328,-0.108 0.762,-0.163 1.303,-0.163 0.824,0 1.385,0.107 1.683,0.32 0.297,0.213 0.446,0.548 0.446,1.005 z M 1.63,2.085 C 1.63,1.921 1.539,1.825 1.355,1.795 L 0.812,1.691 C 1.154,1.319 1.326,0.795 1.326,0.12 l 0,-0.12 c 0,-1.741 -1.129,-2.612 -3.387,-2.612 -0.676,0 -1.264,0.102 -1.766,0.305 -0.252,-0.114 -0.379,-0.285 -0.379,-0.514 0,-0.134 0.036,-0.238 0.108,-0.312 0.072,-0.075 0.191,-0.134 0.361,-0.179 l 2.27,-0.581 C -0.85,-4.051 -0.34,-4.211 0.068,-4.37 0.474,-4.528 0.81,-4.751 1.072,-5.036 1.335,-5.321 1.466,-5.687 1.466,-6.133 l 0,-0.12 c 0,-0.764 -0.275,-1.35 -0.826,-1.757 -0.551,-0.407 -1.433,-0.611 -2.65,-0.611 -1.182,0 -2.061,0.213 -2.639,0.637 -0.578,0.425 -0.867,1.022 -0.867,1.791 l 0,0.134 c 0,0.412 0.09,0.785 0.271,1.12 0.182,0.335 0.411,0.609 0.69,0.823 l -0.113,0.044 c -0.233,0.1 -0.409,0.259 -0.524,0.477 -0.117,0.218 -0.176,0.454 -0.176,0.707 l 0,0.015 c 0,0.218 0.055,0.428 0.164,0.629 0.11,0.201 0.264,0.359 0.461,0.473 -0.466,0.436 -0.699,1.027 -0.699,1.771 l 0,0.12 c 0,0.779 0.262,1.423 0.785,1.932 0.524,0.509 1.389,0.763 2.596,0.763 l 3.342,0 0.242,-0.093 C 1.595,2.66 1.63,2.58 1.63,2.48 l 0,-0.395"
         style="fill:#ffffff;fill-opacity:1;fill-rule:nonzero;stroke:none"
         id="path1002" />
    </g>
    <g
       id="g1004"
       transform="matrix(1.25,0,0,-1.25,319.58688,552.63781)">
      <path
         inkscape:connector-curvature="0"
         d="m 0,0 -0.078,-0.22 -0.205,-0.086 -0.767,0 -0.204,0.086 -0.086,0.22 0,0.29 C -1.758,0.051 -2.16,-0.125 -2.547,-0.239 -2.933,-0.353 -3.338,-0.41 -3.759,-0.41 c -1.772,0 -2.659,1.057 -2.659,3.171 l 0,5.011 0.09,0.216 0.215,0.089 0.738,0 0.215,-0.082 C -5.105,7.94 -5.078,7.866 -5.078,7.772 l 0,-5.011 c 0,-0.505 0.061,-0.908 0.18,-1.206 0.119,-0.297 0.299,-0.507 0.543,-0.629 0.242,-0.122 0.562,-0.182 0.961,-0.182 0.574,0 1.26,0.198 2.054,0.596 l 0,6.432 0.092,0.212 0.213,0.093 0.752,0 L -0.078,7.991 0,7.772 0,0"
         style="fill:#ffffff;fill-opacity:1;fill-rule:nonzero;stroke:none"
         id="path1006" />
    </g>
    <g
       id="g1008"
       transform="matrix(1.25,0,0,-1.25,326.89188,543.52781)">
      <path
         inkscape:connector-curvature="0"
         d="m 0,0 c 0,-0.174 -0.107,-0.261 -0.32,-0.261 -0.696,0 -1.397,-0.213 -2.108,-0.64 l 0,-6.387 -0.086,-0.217 -0.211,-0.089 -0.752,0 -0.201,0.089 -0.09,0.217 0,7.772 0.083,0.219 0.208,0.086 0.715,0 0.211,-0.086 0.078,-0.219 0,-0.32 C -1.768,0.655 -1.051,0.9 -0.32,0.9 -0.107,0.9 0,0.808 0,0.625 L 0,0"
         style="fill:#ffffff;fill-opacity:1;fill-rule:nonzero;stroke:none"
         id="path1010" />
    </g>
    <g
       id="g1012"
       transform="matrix(1.25,0,0,-1.25,330.58563,552.63781)">
      <path
         inkscape:connector-curvature="0"
         d="m 0,0 -0.09,-0.22 -0.215,-0.086 -0.73,0 -0.217,0.089 L -1.34,0 l 0,7.772 0.086,0.216 0.219,0.089 0.73,0 c 0.094,0 0.168,-0.027 0.223,-0.082 C -0.027,7.94 0,7.866 0,7.772 L 0,0 z M 0.029,9.73 -0.06,9.51 -0.275,9.425 l -0.776,0 -0.214,0.088 -0.09,0.217 0,1.213 0.086,0.216 0.218,0.09 0.776,0 c 0.093,0 0.168,-0.028 0.222,-0.082 0.055,-0.055 0.082,-0.129 0.082,-0.224 l 0,-1.213"
         style="fill:#ffffff;fill-opacity:1;fill-rule:nonzero;stroke:none"
         id="path1014" />
    </g>
    <g
       id="g1016"
       transform="matrix(1.25,0,0,-1.25,339.44313,551.56906)">
      <path
         inkscape:connector-curvature="0"
         d="M 0,0 0,6.053 C -0.232,6.098 -0.492,6.126 -0.781,6.139 -1.068,6.152 -1.402,6.157 -1.779,6.157 -2.256,6.157 -2.643,6.06 -2.939,5.863 -3.238,5.667 -3.449,5.382 -3.572,5.007 -3.697,4.632 -3.76,4.162 -3.76,3.596 l 0,-1.094 c 0,-0.874 0.151,-1.525 0.448,-1.954 0.298,-0.43 0.808,-0.645 1.533,-0.645 0.447,0 1.041,0.033 1.779,0.097 z M 1.348,-0.655 C 1.348,-0.769 1.326,-0.85 1.285,-0.9 1.242,-0.95 1.156,-0.987 1.027,-1.013 0.135,-1.18 -0.801,-1.265 -1.779,-1.265 c -0.739,0 -1.358,0.153 -1.858,0.458 -0.498,0.305 -0.867,0.742 -1.109,1.31 -0.24,0.568 -0.359,1.234 -0.359,1.999 l 0,1.094 c 0,0.611 0.066,1.145 0.203,1.604 0.136,0.459 0.345,0.848 0.627,1.165 0.279,0.319 0.627,0.559 1.041,0.723 0.414,0.164 0.9,0.245 1.455,0.245 0.308,0 0.615,-0.012 0.924,-0.037 C -0.547,7.272 -0.262,7.232 0,7.177 l 0,2.837 0.082,0.205 0.209,0.085 0.781,0 0.194,-0.082 0.082,-0.208 0,-10.669"
         style="fill:#ffffff;fill-opacity:1;fill-rule:nonzero;stroke:none"
         id="path1018" />
    </g>
    <g
       id="g1020"
       transform="matrix(1.25,0,0,-1.25,349.33563,551.01906)">
      <path
         inkscape:connector-curvature="0"
         d="m 0,0 0,2.457 -1.123,0 c -0.898,0 -1.512,-0.111 -1.84,-0.331 -0.326,-0.222 -0.49,-0.61 -0.49,-1.165 l 0,-0.187 c 0,-0.352 0.053,-0.631 0.16,-0.834 0.106,-0.203 0.26,-0.346 0.461,-0.428 0.201,-0.082 0.461,-0.123 0.777,-0.123 0.348,0 0.678,0.048 0.987,0.146 C -0.758,-0.369 -0.4,-0.214 0,0 z m 1.348,-1.295 -0.096,-0.217 -0.209,-0.089 -0.707,0 -0.209,0.089 -0.09,0.217 0,0.335 c -0.252,-0.145 -0.506,-0.274 -0.761,-0.388 -0.256,-0.114 -0.52,-0.202 -0.79,-0.264 -0.271,-0.062 -0.537,-0.093 -0.8,-0.093 -0.725,0 -1.321,0.19 -1.787,0.569 -0.467,0.38 -0.7,1.012 -0.7,1.895 l 0,0.186 c 0,0.422 0.067,0.788 0.202,1.099 0.132,0.309 0.339,0.564 0.617,0.762 0.277,0.199 0.656,0.35 1.134,0.454 0.481,0.105 1.055,0.157 1.725,0.157 l 1.123,0 0,0.61 c 0,0.641 -0.121,1.087 -0.363,1.341 -0.244,0.253 -0.666,0.379 -1.266,0.379 -0.74,0 -1.517,-0.039 -2.33,-0.119 l -0.076,0 c -0.184,0 -0.275,0.082 -0.275,0.246 l 0,0.528 c 0,0.164 0.107,0.261 0.32,0.291 0.805,0.134 1.592,0.2 2.361,0.2 1.985,0 2.977,-0.955 2.977,-2.866 l 0,-5.322"
         style="fill:#ffffff;fill-opacity:1;fill-rule:nonzero;stroke:none"
         id="path1022" />
    </g>
    <g
       id="g1024"
       transform="matrix(1.25,0,0,-1.25,359.64813,551.56906)">
      <path
         inkscape:connector-curvature="0"
         d="M 0,0 0,6.053 C -0.234,6.098 -0.494,6.126 -0.781,6.139 -1.07,6.152 -1.402,6.157 -1.779,6.157 -2.256,6.157 -2.642,6.06 -2.941,5.863 -3.238,5.667 -3.449,5.382 -3.574,5.007 -3.697,4.632 -3.76,4.162 -3.76,3.596 l 0,-1.094 c 0,-0.874 0.149,-1.525 0.448,-1.954 0.297,-0.43 0.808,-0.645 1.533,-0.645 0.447,0 1.039,0.033 1.779,0.097 z M 1.348,-0.655 C 1.348,-0.769 1.326,-0.85 1.283,-0.9 1.242,-0.95 1.156,-0.987 1.027,-1.013 0.135,-1.18 -0.803,-1.265 -1.779,-1.265 c -0.74,0 -1.36,0.153 -1.858,0.458 -0.5,0.305 -0.869,0.742 -1.109,1.31 -0.24,0.568 -0.361,1.234 -0.361,1.999 l 0,1.094 c 0,0.611 0.068,1.145 0.205,1.604 0.137,0.459 0.344,0.848 0.625,1.165 0.281,0.319 0.627,0.559 1.043,0.723 0.414,0.164 0.898,0.245 1.455,0.245 0.306,0 0.615,-0.012 0.924,-0.037 C -0.549,7.272 -0.264,7.232 0,7.177 l 0,2.837 0.082,0.205 0.209,0.085 0.781,0 0.194,-0.082 0.082,-0.208 0,-10.669"
         style="fill:#ffffff;fill-opacity:1;fill-rule:nonzero;stroke:none"
         id="path1026" />
    </g>
    <g
       id="g1028"
       transform="matrix(1.25,0,0,-1.25,374.66813,551.56906)">
      <path
         inkscape:connector-curvature="0"
         d="M 0,0 0,6.053 C -0.235,6.098 -0.494,6.126 -0.781,6.139 -1.071,6.152 -1.403,6.157 -1.78,6.157 -2.256,6.157 -2.643,6.06 -2.942,5.863 -3.239,5.667 -3.449,5.382 -3.574,5.007 -3.698,4.632 -3.76,4.162 -3.76,3.596 l 0,-1.094 c 0,-0.874 0.148,-1.525 0.447,-1.954 0.297,-0.43 0.809,-0.645 1.533,-0.645 0.448,0 1.04,0.033 1.78,0.097 z M 1.347,-0.655 C 1.347,-0.769 1.326,-0.85 1.283,-0.9 1.242,-0.95 1.156,-0.987 1.027,-1.013 0.135,-1.18 -0.803,-1.265 -1.78,-1.265 c -0.74,0 -1.359,0.153 -1.857,0.458 -0.5,0.305 -0.869,0.742 -1.109,1.31 -0.241,0.568 -0.362,1.234 -0.362,1.999 l 0,1.094 c 0,0.611 0.069,1.145 0.205,1.604 0.137,0.459 0.344,0.848 0.625,1.165 0.282,0.319 0.627,0.559 1.043,0.723 0.414,0.164 0.899,0.245 1.455,0.245 0.307,0 0.616,-0.012 0.924,-0.037 C -0.549,7.272 -0.264,7.232 0,7.177 l 0,2.837 0.082,0.205 0.209,0.085 0.781,0 0.193,-0.082 0.082,-0.208 0,-10.669"
         style="fill:#ffffff;fill-opacity:1;fill-rule:nonzero;stroke:none"
         id="path1030" />
    </g>
    <g
       id="g1032"
       transform="matrix(1.25,0,0,-1.25,385.32188,547.03656)">
      <path
         inkscape:connector-curvature="0"
         d="m 0,0 0,0.142 c 0,0.56 -0.072,1.019 -0.219,1.377 -0.146,0.357 -0.365,0.615 -0.658,0.774 -0.293,0.159 -0.666,0.238 -1.117,0.238 -1.359,0 -2.041,-0.796 -2.041,-2.389 L -4.035,0 0,0 z m 1.363,-0.684 c 0,-0.224 -0.097,-0.335 -0.291,-0.335 l -5.107,0 0,-0.217 c 0,-0.883 0.174,-1.519 0.518,-1.905 0.345,-0.388 0.879,-0.582 1.597,-0.582 0.471,0 0.951,0.015 1.442,0.045 0.488,0.03 0.914,0.073 1.275,0.127 l 0.074,0 c 0.164,0 0.246,-0.072 0.246,-0.216 l 0,-0.514 c 0,-0.104 -0.021,-0.182 -0.062,-0.234 -0.043,-0.052 -0.123,-0.093 -0.242,-0.124 -0.412,-0.079 -0.842,-0.14 -1.291,-0.185 -0.45,-0.045 -0.93,-0.067 -1.442,-0.067 -0.64,0 -1.218,0.114 -1.734,0.342 -0.516,0.229 -0.934,0.614 -1.25,1.155 -0.318,0.541 -0.477,1.259 -0.477,2.158 l 0,1.378 c 0,1.101 0.295,1.971 0.889,2.609 0.594,0.638 1.426,0.956 2.498,0.956 0.719,0 1.334,-0.145 1.842,-0.438 C 0.358,2.976 0.737,2.56 0.987,2.022 1.238,1.483 1.363,0.857 1.363,0.142 l 0,-0.826"
         style="fill:#ffffff;fill-opacity:1;fill-rule:nonzero;stroke:none"
         id="path1034" />
    </g>
    <g
       id="g1036"
       transform="matrix(1.25,0,0,-1.25,391.17688,552.63781)">
      <path
         inkscape:connector-curvature="0"
         d="m 0,0 -0.074,-0.22 -0.202,-0.086 -0.789,0 -0.197,0.086 -0.078,0.22 0,10.869 0.07,0.201 0.205,0.089 0.789,0 0.202,-0.082 L 0,10.869 0,0"
         style="fill:#ffffff;fill-opacity:1;fill-rule:nonzero;stroke:none"
         id="path1038" />
    </g>
    <g
       id="g1040"
       transform="matrix(1.25,0,0,-1.25,406.08688,543.10906)">
      <path
         inkscape:connector-curvature="0"
         d="m 0,0 0,0.201 c 0,0.76 -0.231,1.304 -0.69,1.634 -0.459,0.33 -1.189,0.495 -2.193,0.495 -0.532,0 -1.039,-0.02 -1.526,-0.06 l 0,-4.467 c 0.055,0 0.145,-0.003 0.272,-0.01 0.127,-0.008 0.263,-0.014 0.41,-0.019 0.146,-0.005 0.299,-0.012 0.461,-0.018 0.162,-0.008 0.289,-0.012 0.383,-0.012 1.033,0 1.771,0.177 2.215,0.528 C -0.223,-1.375 0,-0.799 0,0 z m 1.384,0 c 0,-2.279 -1.424,-3.417 -4.267,-3.417 -0.358,0 -0.866,0.024 -1.526,0.074 l 0,-4.28 -0.074,-0.22 -0.201,-0.086 -0.818,0 -0.198,0.086 -0.078,0.22 0,10.623 c 0,0.228 0.121,0.357 0.363,0.387 0.702,0.08 1.545,0.12 2.532,0.12 2.843,0 4.267,-1.102 4.267,-3.306 L 1.384,0"
         style="fill:#ffffff;fill-opacity:1;fill-rule:nonzero;stroke:none"
         id="path1042" />
    </g>
    <g
       id="g1044"
       transform="matrix(1.25,0,0,-1.25,415.14938,551.01906)">
      <path
         inkscape:connector-curvature="0"
         d="m 0,0 0,2.457 -1.124,0 C -2.022,2.457 -2.635,2.346 -2.963,2.126 -3.29,1.904 -3.454,1.516 -3.454,0.961 l 0,-0.187 c 0,-0.352 0.053,-0.631 0.161,-0.834 0.105,-0.203 0.259,-0.346 0.46,-0.428 0.202,-0.082 0.461,-0.123 0.778,-0.123 0.347,0 0.678,0.048 0.986,0.146 C -0.758,-0.369 -0.401,-0.214 0,0 z m 1.347,-1.295 -0.096,-0.217 -0.209,-0.089 -0.707,0 -0.209,0.089 -0.089,0.217 0,0.335 c -0.252,-0.145 -0.506,-0.274 -0.762,-0.388 -0.256,-0.114 -0.52,-0.202 -0.789,-0.264 -0.272,-0.062 -0.537,-0.093 -0.801,-0.093 -0.725,0 -1.32,0.19 -1.787,0.569 -0.467,0.38 -0.699,1.012 -0.699,1.895 l 0,0.186 c 0,0.422 0.066,0.788 0.201,1.099 0.133,0.309 0.34,0.564 0.617,0.762 0.277,0.199 0.656,0.35 1.135,0.454 0.48,0.105 1.055,0.157 1.724,0.157 l 1.124,0 0,0.61 c 0,0.641 -0.122,1.087 -0.364,1.341 -0.244,0.253 -0.666,0.379 -1.265,0.379 -0.741,0 -1.518,-0.039 -2.33,-0.119 l -0.077,0 c -0.183,0 -0.275,0.082 -0.275,0.246 l 0,0.528 c 0,0.164 0.107,0.261 0.32,0.291 0.805,0.134 1.592,0.2 2.362,0.2 1.984,0 2.976,-0.955 2.976,-2.866 l 0,-5.322"
         style="fill:#ffffff;fill-opacity:1;fill-rule:nonzero;stroke:none"
         id="path1046" />
    </g>
    <g
       id="g1048"
       transform="matrix(1.25,0,0,-1.25,425.90813,552.52656)">
      <path
         inkscape:connector-curvature="0"
         d="m 0,0 c 0,-0.184 -0.102,-0.295 -0.305,-0.335 -0.621,-0.11 -1.256,-0.164 -1.906,-0.164 -0.67,0 -1.254,0.151 -1.75,0.454 -0.496,0.302 -0.871,0.732 -1.125,1.288 -0.252,0.555 -0.379,1.209 -0.379,1.958 l 0,1.191 c 0,0.744 0.125,1.396 0.377,1.954 0.25,0.559 0.621,0.99 1.111,1.296 0.493,0.305 1.08,0.457 1.766,0.457 0.625,0 1.26,-0.056 1.906,-0.171 0.119,-0.019 0.199,-0.053 0.24,-0.1 C -0.022,7.781 0,7.703 0,7.593 L 0,7.043 C 0,6.893 -0.088,6.819 -0.262,6.819 l -0.058,0 c -0.631,0.069 -1.262,0.104 -1.891,0.104 -1.271,0 -1.906,-0.843 -1.906,-2.531 l 0,-1.191 c 0,-0.839 0.162,-1.47 0.488,-1.895 0.324,-0.425 0.797,-0.637 1.418,-0.637 0.645,0 1.275,0.038 1.891,0.113 l 0.058,0 C -0.088,0.782 0,0.705 0,0.55 L 0,0"
         style="fill:#ffffff;fill-opacity:1;fill-rule:nonzero;stroke:none"
         id="path1050" />
    </g>
    <g
       id="g1052"
       transform="matrix(1.25,0,0,-1.25,429.92688,552.63781)">
      <path
         inkscape:connector-curvature="0"
         d="m 0,0 -0.088,-0.22 -0.217,-0.086 -0.728,0 -0.217,0.089 -0.09,0.217 0,7.772 0.086,0.216 0.221,0.089 0.728,0 c 0.094,0 0.168,-0.027 0.223,-0.082 C -0.028,7.94 0,7.866 0,7.772 L 0,0 z m 0.031,9.73 -0.09,-0.22 -0.217,-0.085 -0.773,0 -0.217,0.088 -0.088,0.217 0,1.213 0.084,0.216 0.221,0.09 0.773,0 c 0.096,0 0.17,-0.028 0.225,-0.082 0.055,-0.055 0.082,-0.129 0.082,-0.224 l 0,-1.213"
         style="fill:#ffffff;fill-opacity:1;fill-rule:nonzero;stroke:none"
         id="path1054" />
    </g>
    <g
       id="g1056"
       transform="matrix(1.25,0,0,-1.25,439.13063,547.03656)">
      <path
         inkscape:connector-curvature="0"
         d="m 0,0 0,0.142 c 0,0.56 -0.074,1.019 -0.221,1.377 -0.144,0.357 -0.365,0.615 -0.658,0.774 -0.293,0.159 -0.664,0.238 -1.117,0.238 -1.359,0 -2.039,-0.796 -2.039,-2.389 L -4.035,0 0,0 z m 1.361,-0.684 c 0,-0.224 -0.095,-0.335 -0.289,-0.335 l -5.107,0 0,-0.217 c 0,-0.883 0.172,-1.519 0.517,-1.905 0.344,-0.388 0.877,-0.582 1.598,-0.582 0.471,0 0.951,0.015 1.44,0.045 0.488,0.03 0.914,0.073 1.277,0.127 l 0.074,0 c 0.164,0 0.246,-0.072 0.246,-0.216 l 0,-0.514 C 1.117,-4.385 1.096,-4.463 1.053,-4.515 1.012,-4.567 0.93,-4.608 0.811,-4.639 0.399,-4.718 -0.031,-4.779 -0.48,-4.824 c -0.45,-0.045 -0.93,-0.067 -1.44,-0.067 -0.64,0 -1.219,0.114 -1.736,0.342 -0.516,0.229 -0.932,0.614 -1.25,1.155 -0.319,0.541 -0.477,1.259 -0.477,2.158 l 0,1.378 c 0,1.101 0.297,1.971 0.891,2.609 0.592,0.638 1.426,0.956 2.496,0.956 0.721,0 1.334,-0.145 1.844,-0.438 C 0.356,2.976 0.736,2.56 0.986,2.022 1.236,1.483 1.361,0.857 1.361,0.142 l 0,-0.826"
         style="fill:#ffffff;fill-opacity:1;fill-rule:nonzero;stroke:none"
         id="path1058" />
    </g>
    <g
       id="g1060"
       transform="matrix(1.25,0,0,-1.25,451.13563,552.63781)">
      <path
         inkscape:connector-curvature="0"
         d="m 0,0 -0.088,-0.22 -0.209,-0.086 -0.739,0 -0.207,0.089 L -1.34,0 l 0,5.017 c 0,0.501 -0.057,0.9 -0.17,1.195 -0.115,0.296 -0.295,0.505 -0.541,0.63 -0.246,0.124 -0.567,0.185 -0.963,0.185 -0.572,0 -1.26,-0.198 -2.063,-0.596 l 0,-6.431 -0.086,-0.217 -0.212,-0.089 -0.752,0 -0.202,0.089 -0.087,0.217 0,7.772 0.082,0.219 0.207,0.086 0.767,0 0.209,-0.086 0.074,-0.219 0,-0.283 c 0.426,0.238 0.83,0.414 1.213,0.528 0.383,0.115 0.787,0.171 1.213,0.171 0.904,0 1.572,-0.267 2.004,-0.804 C -0.215,6.848 0,6.059 0,5.017 L 0,0"
         style="fill:#ffffff;fill-opacity:1;fill-rule:nonzero;stroke:none"
         id="path1062" />
    </g>
    <g
       id="g1064"
       transform="matrix(1.25,0,0,-1.25,458.91563,552.73156)">
      <path
         inkscape:connector-curvature="0"
         d="m 0,0 c 0,-0.149 -0.094,-0.236 -0.277,-0.26 -0.336,-0.05 -0.666,-0.075 -0.988,-0.075 -0.747,0 -1.278,0.14 -1.594,0.42 -0.319,0.281 -0.477,0.821 -0.477,1.62 l 0,5.323 -1.482,0.164 c -0.194,0.019 -0.289,0.111 -0.289,0.275 l 0,0.417 0.078,0.198 0.211,0.07 1.482,0 0,1.496 c 0,0.174 0.092,0.276 0.276,0.306 l 0.789,0.119 0.045,0 0.164,-0.068 0.066,-0.185 0,-1.668 1.645,0 c 0.095,0 0.17,-0.027 0.224,-0.082 0.055,-0.055 0.082,-0.129 0.082,-0.223 l 0,-0.514 -0.09,-0.219 -0.216,-0.086 -1.645,0 0,-5.323 c 0,-0.408 0.057,-0.669 0.172,-0.786 0.113,-0.117 0.332,-0.174 0.654,-0.174 l 0.85,0 C -0.107,0.745 0,0.672 0,0.529 L 0,0"
         style="fill:#ffffff;fill-opacity:1;fill-rule:nonzero;stroke:none"
         id="path1066" />
    </g>
    <g
       id="g1068"
       transform="matrix(1.25,0,0,-1.25,467.06563,547.03656)">
      <path
         inkscape:connector-curvature="0"
         d="m 0,0 0,0.142 c 0,0.56 -0.073,1.019 -0.219,1.377 -0.147,0.357 -0.365,0.615 -0.658,0.774 -0.293,0.159 -0.666,0.238 -1.117,0.238 -1.36,0 -2.041,-0.796 -2.041,-2.389 L -4.035,0 0,0 z m 1.363,-0.684 c 0,-0.224 -0.098,-0.335 -0.291,-0.335 l -5.107,0 0,-0.217 c 0,-0.883 0.173,-1.519 0.517,-1.905 0.346,-0.388 0.879,-0.582 1.598,-0.582 0.471,0 0.951,0.015 1.441,0.045 0.488,0.03 0.914,0.073 1.276,0.127 l 0.074,0 c 0.164,0 0.246,-0.072 0.246,-0.216 l 0,-0.514 C 1.117,-4.385 1.095,-4.463 1.054,-4.515 1.011,-4.567 0.931,-4.608 0.812,-4.639 0.4,-4.718 -0.03,-4.779 -0.479,-4.824 -0.928,-4.869 -1.408,-4.891 -1.92,-4.891 c -0.641,0 -1.219,0.114 -1.735,0.342 -0.515,0.229 -0.933,0.614 -1.25,1.155 -0.318,0.541 -0.476,1.259 -0.476,2.158 l 0,1.378 c 0,1.101 0.295,1.971 0.889,2.609 0.593,0.638 1.425,0.956 2.498,0.956 0.718,0 1.334,-0.145 1.841,-0.438 C 0.357,2.976 0.736,2.56 0.986,2.022 1.238,1.483 1.363,0.857 1.363,0.142 l 0,-0.826"
         style="fill:#ffffff;fill-opacity:1;fill-rule:nonzero;stroke:none"
         id="path1070" />
    </g>
    <g
       id="g1072"
       transform="matrix(1.25,0,0,-1.25,483.90063,542.85781)">
      <path
         inkscape:connector-curvature="0"
         d="M 0,0 -0.015,-0.111 -2.531,-8.89 c -0.158,-0.565 -0.345,-1.011 -0.558,-1.34 -0.213,-0.327 -0.495,-0.563 -0.842,-0.707 -0.348,-0.143 -0.811,-0.215 -1.393,-0.215 -0.445,0 -0.873,0.046 -1.279,0.141 -0.213,0.05 -0.32,0.131 -0.32,0.245 l 0,0.559 c 0,0.164 0.095,0.246 0.291,0.246 l 0.043,0 c 0.672,-0.06 1.123,-0.09 1.355,-0.09 0.451,0 0.785,0.088 1.002,0.265 0.215,0.176 0.385,0.519 0.51,1.031 l 0.156,0.625 -0.217,0 c -0.271,0 -0.496,0.064 -0.67,0.193 -0.173,0.129 -0.326,0.415 -0.461,0.857 L -6.939,-0.111 -6.953,0 c 0,0.169 0.092,0.253 0.276,0.253 l 0.834,0 c 0.133,0 0.22,-0.079 0.259,-0.238 l 1.801,-6.619 c 0.055,-0.223 0.153,-0.335 0.291,-0.335 l 0.246,0 1.854,6.968 0.103,0.16 0.188,0.064 0.855,0 0.18,-0.067 L 0,0"
         style="fill:#ffffff;fill-opacity:1;fill-rule:nonzero;stroke:none"
         id="path1074" />
    </g>
    <g
       id="g1076"
       transform="matrix(1.25,0,0,-1.25,498.80813,552.78656)">
      <path
         inkscape:connector-curvature="0"
         d="m 0,0 c 0,-0.13 -0.052,-0.202 -0.156,-0.216 -0.477,-0.05 -1.467,-0.075 -2.971,-0.075 -1.086,0 -1.9,0.223 -2.437,0.669 -0.539,0.448 -0.809,1.169 -0.809,2.167 l 0,5.867 c 0,0.993 0.268,1.714 0.805,2.163 0.535,0.449 1.35,0.674 2.441,0.674 0.438,0 0.797,-0.003 1.08,-0.008 0.284,-0.005 0.627,-0.016 1.036,-0.033 0.406,-0.018 0.691,-0.034 0.855,-0.049 L -0.041,11.088 0,10.943 0,10.184 C 0,10.06 -0.056,9.998 -0.172,9.998 l -2.939,0 c -0.537,0 -0.94,-0.051 -1.207,-0.153 C -4.586,9.744 -4.765,9.582 -4.853,9.361 -4.943,9.14 -4.988,8.824 -4.988,8.412 l 0,-2.121 4.684,0 L -0.09,6.201 0,5.985 0,5.412 -0.097,5.196 l -0.207,-0.09 -4.684,0 0,-2.561 c 0,-0.412 0.045,-0.728 0.135,-0.949 0.088,-0.22 0.267,-0.383 0.535,-0.484 0.267,-0.102 0.67,-0.152 1.207,-0.152 l 2.939,0 C -0.056,0.96 0,0.897 0,0.773 L 0,0"
         style="fill:#ffffff;fill-opacity:1;fill-rule:nonzero;stroke:none"
         id="path1078" />
    </g>
    <g
       id="g1080"
       transform="matrix(1.25,0,0,-1.25,509.59438,552.80656)">
      <path
         inkscape:connector-curvature="0"
         d="m 0,0 c 0,-0.114 -0.068,-0.171 -0.201,-0.171 l -1.051,0 -0.215,0.119 -2.181,3.187 -2.182,-3.158 -0.115,-0.122 -0.145,-0.026 -0.916,0 c -0.119,0 -0.179,0.05 -0.179,0.148 l 0.074,0.202 2.748,3.916 -2.592,3.737 -0.08,0.201 c 0,0.119 0.076,0.179 0.23,0.179 l 0.991,0 c 0.113,0 0.215,-0.069 0.304,-0.208 l 1.936,-2.866 1.951,2.866 c 0.074,0.094 0.127,0.152 0.16,0.175 l 0.16,0.033 0.885,0 c 0.135,0 0.201,-0.06 0.201,-0.179 L -0.291,7.832 -2.851,4.191 -0.068,0.179 0,0"
         style="fill:#ffffff;fill-opacity:1;fill-rule:nonzero;stroke:none"
         id="path1082" />
    </g>
    <g
       id="g1084"
       transform="matrix(1.25,0,0,-1.25,517.54188,552.52656)">
      <path
         inkscape:connector-curvature="0"
         d="m 0,0 c 0,-0.184 -0.102,-0.295 -0.305,-0.335 -0.621,-0.11 -1.256,-0.164 -1.906,-0.164 -0.67,0 -1.254,0.151 -1.75,0.454 -0.496,0.302 -0.871,0.732 -1.125,1.288 -0.252,0.555 -0.379,1.209 -0.379,1.958 l 0,1.191 c 0,0.744 0.125,1.396 0.377,1.954 0.25,0.559 0.621,0.99 1.111,1.296 0.492,0.305 1.08,0.457 1.766,0.457 0.625,0 1.259,-0.056 1.906,-0.171 0.119,-0.019 0.199,-0.053 0.24,-0.1 C -0.022,7.781 0,7.703 0,7.593 L 0,7.043 C 0,6.893 -0.088,6.819 -0.262,6.819 l -0.059,0 c -0.631,0.069 -1.261,0.104 -1.89,0.104 -1.272,0 -1.907,-0.843 -1.907,-2.531 l 0,-1.191 c 0,-0.839 0.163,-1.47 0.489,-1.895 0.324,-0.425 0.797,-0.637 1.418,-0.637 0.644,0 1.275,0.038 1.89,0.113 l 0.059,0 C -0.088,0.782 0,0.705 0,0.55 L 0,0"
         style="fill:#ffffff;fill-opacity:1;fill-rule:nonzero;stroke:none"
         id="path1086" />
    </g>
    <g
       id="g1088"
       transform="matrix(1.25,0,0,-1.25,526.05438,547.03656)">
      <path
         inkscape:connector-curvature="0"
         d="m 0,0 0,0.142 c 0,0.56 -0.072,1.019 -0.219,1.377 -0.146,0.357 -0.365,0.615 -0.658,0.774 -0.293,0.159 -0.666,0.238 -1.117,0.238 -1.359,0 -2.041,-0.796 -2.041,-2.389 L -4.035,0 0,0 z m 1.363,-0.684 c 0,-0.224 -0.097,-0.335 -0.291,-0.335 l -5.107,0 0,-0.217 c 0,-0.883 0.174,-1.519 0.518,-1.905 0.345,-0.388 0.878,-0.582 1.597,-0.582 0.471,0 0.951,0.015 1.442,0.045 0.488,0.03 0.914,0.073 1.275,0.127 l 0.074,0 c 0.164,0 0.246,-0.072 0.246,-0.216 l 0,-0.514 c 0,-0.104 -0.021,-0.182 -0.062,-0.234 -0.043,-0.052 -0.123,-0.093 -0.242,-0.124 -0.412,-0.079 -0.842,-0.14 -1.291,-0.185 -0.45,-0.045 -0.93,-0.067 -1.442,-0.067 -0.64,0 -1.219,0.114 -1.734,0.342 -0.516,0.229 -0.934,0.614 -1.25,1.155 -0.319,0.541 -0.477,1.259 -0.477,2.158 l 0,1.378 c 0,1.101 0.295,1.971 0.889,2.609 0.594,0.638 1.426,0.956 2.498,0.956 0.719,0 1.334,-0.145 1.842,-0.438 C 0.358,2.976 0.736,2.56 0.986,2.022 1.238,1.483 1.363,0.857 1.363,0.142 l 0,-0.826"
         style="fill:#ffffff;fill-opacity:1;fill-rule:nonzero;stroke:none"
         id="path1090" />
    </g>
    <g
       id="g1092"
       transform="matrix(1.25,0,0,-1.25,531.90938,552.63781)">
      <path
         inkscape:connector-curvature="0"
         d="m 0,0 -0.074,-0.22 -0.202,-0.086 -0.789,0 -0.197,0.086 -0.078,0.22 0,10.869 0.07,0.201 0.205,0.089 0.789,0 0.202,-0.082 L 0,10.869 0,0"
         style="fill:#ffffff;fill-opacity:1;fill-rule:nonzero;stroke:none"
         id="path1094" />
    </g>
    <g
       id="g1096"
       transform="matrix(1.25,0,0,-1.25,541.07688,547.03656)">
      <path
         inkscape:connector-curvature="0"
         d="m 0,0 0,0.142 c 0,0.56 -0.075,1.019 -0.221,1.377 -0.145,0.357 -0.365,0.615 -0.658,0.774 -0.293,0.159 -0.664,0.238 -1.117,0.238 -1.36,0 -2.039,-0.796 -2.039,-2.389 L -4.035,0 0,0 z m 1.361,-0.684 c 0,-0.224 -0.096,-0.335 -0.289,-0.335 l -5.107,0 0,-0.217 c 0,-0.883 0.171,-1.519 0.517,-1.905 0.344,-0.388 0.877,-0.582 1.598,-0.582 0.47,0 0.951,0.015 1.439,0.045 0.489,0.03 0.914,0.073 1.278,0.127 l 0.074,0 c 0.164,0 0.246,-0.072 0.246,-0.216 l 0,-0.514 C 1.117,-4.385 1.095,-4.463 1.052,-4.515 1.011,-4.567 0.929,-4.608 0.81,-4.639 0.398,-4.718 -0.032,-4.779 -0.481,-4.824 -0.93,-4.869 -1.41,-4.891 -1.92,-4.891 c -0.641,0 -1.219,0.114 -1.737,0.342 -0.515,0.229 -0.931,0.614 -1.25,1.155 -0.318,0.541 -0.476,1.259 -0.476,2.158 l 0,1.378 c 0,1.101 0.297,1.971 0.891,2.609 0.591,0.638 1.425,0.956 2.496,0.956 0.72,0 1.334,-0.145 1.843,-0.438 C 0.355,2.976 0.736,2.56 0.986,2.022 1.236,1.483 1.361,0.857 1.361,0.142 l 0,-0.826"
         style="fill:#ffffff;fill-opacity:1;fill-rule:nonzero;stroke:none"
         id="path1098" />
    </g>
    <g
       id="g1100"
       transform="matrix(1.25,0,0,-1.25,553.08063,552.63781)">
      <path
         inkscape:connector-curvature="0"
         d="m 0,0 -0.088,-0.22 -0.209,-0.086 -0.738,0 -0.207,0.089 L -1.34,0 l 0,5.017 c 0,0.501 -0.056,0.9 -0.17,1.195 -0.115,0.296 -0.294,0.505 -0.541,0.63 -0.246,0.124 -0.566,0.185 -0.962,0.185 -0.573,0 -1.26,-0.198 -2.063,-0.596 l 0,-6.431 -0.086,-0.217 -0.213,-0.089 -0.752,0 -0.201,0.089 -0.088,0.217 0,7.772 0.082,0.219 0.207,0.086 0.768,0 0.209,-0.086 0.074,-0.219 0,-0.283 c 0.426,0.238 0.83,0.414 1.213,0.528 0.383,0.115 0.787,0.171 1.213,0.171 0.904,0 1.572,-0.267 2.004,-0.804 C -0.215,6.848 0,6.059 0,5.017 L 0,0"
         style="fill:#ffffff;fill-opacity:1;fill-rule:nonzero;stroke:none"
         id="path1102" />
    </g>
    <g
       id="g1104"
       transform="matrix(1.25,0,0,-1.25,562.16313,552.52656)">
      <path
         inkscape:connector-curvature="0"
         d="m 0,0 c 0,-0.184 -0.102,-0.295 -0.305,-0.335 -0.621,-0.11 -1.256,-0.164 -1.906,-0.164 -0.67,0 -1.252,0.151 -1.748,0.454 -0.498,0.302 -0.871,0.732 -1.125,1.288 -0.254,0.555 -0.379,1.209 -0.379,1.958 l 0,1.191 c 0,0.744 0.125,1.396 0.375,1.954 0.25,0.559 0.621,0.99 1.113,1.296 0.49,0.305 1.08,0.457 1.764,0.457 0.625,0 1.262,-0.056 1.906,-0.171 0.119,-0.019 0.199,-0.053 0.242,-0.1 C -0.02,7.781 0,7.703 0,7.593 L 0,7.043 C 0,6.893 -0.086,6.819 -0.26,6.819 l -0.06,0 c -0.629,0.069 -1.26,0.104 -1.891,0.104 -1.27,0 -1.906,-0.843 -1.906,-2.531 l 0,-1.191 c 0,-0.839 0.164,-1.47 0.488,-1.895 0.326,-0.425 0.799,-0.637 1.418,-0.637 0.646,0 1.275,0.038 1.891,0.113 l 0.06,0 C -0.086,0.782 0,0.705 0,0.55 L 0,0"
         style="fill:#ffffff;fill-opacity:1;fill-rule:nonzero;stroke:none"
         id="path1106" />
    </g>
    <g
       id="g1108"
       transform="matrix(1.25,0,0,-1.25,566.18438,552.63781)">
      <path
         inkscape:connector-curvature="0"
         d="m 0,0 -0.09,-0.22 -0.215,-0.086 -0.731,0 -0.216,0.089 L -1.34,0 l 0,7.772 0.086,0.216 0.218,0.089 0.731,0 c 0.094,0 0.168,-0.027 0.223,-0.082 C -0.028,7.94 0,7.866 0,7.772 L 0,0 z m 0.029,9.73 -0.09,-0.22 -0.215,-0.085 -0.775,0 -0.215,0.088 -0.09,0.217 0,1.213 0.086,0.216 0.219,0.09 0.775,0 c 0.094,0 0.168,-0.028 0.223,-0.082 0.055,-0.055 0.082,-0.129 0.082,-0.224 l 0,-1.213"
         style="fill:#ffffff;fill-opacity:1;fill-rule:nonzero;stroke:none"
         id="path1110" />
    </g>
    <g
       id="g1112"
       transform="matrix(1.25,0,0,-1.25,574.62438,551.01906)">
      <path
         inkscape:connector-curvature="0"
         d="m 0,0 0,2.457 -1.125,0 c -0.899,0 -1.51,-0.111 -1.838,-0.331 -0.328,-0.222 -0.492,-0.61 -0.492,-1.165 l 0,-0.187 c 0,-0.352 0.054,-0.631 0.16,-0.834 0.107,-0.203 0.261,-0.346 0.463,-0.428 0.199,-0.082 0.459,-0.123 0.777,-0.123 0.348,0 0.676,0.048 0.986,0.146 C -0.758,-0.369 -0.403,-0.214 0,0 z M 1.347,-1.295 1.25,-1.512 1.043,-1.601 l -0.709,0 -0.207,0.089 -0.09,0.217 0,0.335 c -0.254,-0.145 -0.508,-0.274 -0.764,-0.388 -0.256,-0.114 -0.518,-0.202 -0.789,-0.264 -0.27,-0.062 -0.537,-0.093 -0.801,-0.093 -0.724,0 -1.32,0.19 -1.785,0.569 -0.467,0.38 -0.701,1.012 -0.701,1.895 l 0,0.186 c 0,0.422 0.068,0.788 0.201,1.099 0.135,0.309 0.34,0.564 0.619,0.762 0.278,0.199 0.656,0.35 1.135,0.454 0.478,0.105 1.053,0.157 1.723,0.157 l 1.125,0 0,0.61 c 0,0.641 -0.121,1.087 -0.366,1.341 -0.242,0.253 -0.664,0.379 -1.265,0.379 -0.74,0 -1.516,-0.039 -2.33,-0.119 l -0.075,0 c -0.183,0 -0.275,0.082 -0.275,0.246 l 0,0.528 c 0,0.164 0.106,0.261 0.32,0.291 0.803,0.134 1.59,0.2 2.36,0.2 1.986,0 2.978,-0.955 2.978,-2.866 l 0,-5.322"
         style="fill:#ffffff;fill-opacity:1;fill-rule:nonzero;stroke:none"
         id="path1114" />
    </g>
    <g
       id="g1116"
       transform="matrix(1.25,0,0,-1.25,592.02563,552.52656)">
      <path
         inkscape:connector-curvature="0"
         d="m 0,0 c 0,-0.169 -0.099,-0.271 -0.298,-0.306 -0.696,-0.129 -1.539,-0.193 -2.532,-0.193 -0.496,0 -0.984,0.08 -1.462,0.238 -0.479,0.159 -0.909,0.415 -1.292,0.766 -0.382,0.353 -0.689,0.838 -0.923,1.456 -0.233,0.619 -0.35,1.367 -0.35,2.245 l 0,2.122 c 0,1.161 0.195,2.094 0.584,2.8 0.391,0.704 0.885,1.199 1.486,1.484 0.6,0.286 1.252,0.429 1.957,0.429 0.725,0 1.579,-0.082 2.561,-0.247 0.16,-0.019 0.238,-0.083 0.238,-0.193 l 0,-0.781 c 0,-0.109 -0.058,-0.164 -0.178,-0.164 l -0.044,0 C -1.355,9.745 -2.209,9.79 -2.814,9.79 -3.632,9.79 -4.281,9.518 -4.757,8.974 -5.234,8.431 -5.472,7.548 -5.472,6.328 l 0,-2.122 c 0,-1.211 0.24,-2.089 0.719,-2.635 0.478,-0.547 1.125,-0.819 1.939,-0.819 0.699,0 1.539,0.04 2.516,0.119 l 0.06,0 C -0.08,0.871 0,0.789 0,0.625 L 0,0"
         style="fill:#ffffff;fill-opacity:1;fill-rule:nonzero;stroke:none"
         id="path1118" />
    </g>
    <g
       id="g1120"
       transform="matrix(1.25,0,0,-1.25,595.85938,552.63781)">
      <path
         inkscape:connector-curvature="0"
         d="m 0,0 -0.074,-0.22 -0.202,-0.086 -0.789,0 -0.197,0.086 -0.078,0.22 0,10.869 0.07,0.201 0.205,0.089 0.789,0 0.202,-0.082 L 0,10.869 0,0"
         style="fill:#ffffff;fill-opacity:1;fill-rule:nonzero;stroke:none"
         id="path1122" />
    </g>
    <g
       id="g1124"
       transform="matrix(1.25,0,0,-1.25,600.53188,552.63781)">
      <path
         inkscape:connector-curvature="0"
         d="m 0,0 -0.09,-0.22 -0.215,-0.086 -0.73,0 -0.217,0.089 L -1.34,0 l 0,7.772 0.086,0.216 0.219,0.089 0.73,0 c 0.094,0 0.168,-0.027 0.223,-0.082 C -0.027,7.94 0,7.866 0,7.772 L 0,0 z m 1.586,11.465 -0.06,-0.12 -1.727,-1.92 c -0.09,-0.1 -0.152,-0.164 -0.186,-0.19 l -0.164,-0.041 -0.818,0 c -0.096,0 -0.143,0.034 -0.143,0.104 l 0.061,0.156 1.496,1.891 c 0.094,0.105 0.158,0.167 0.193,0.19 l 0.172,0.034 1.004,0 c 0.115,0 0.172,-0.035 0.172,-0.104"
         style="fill:#ffffff;fill-opacity:1;fill-rule:nonzero;stroke:none"
         id="path1126" />
    </g>
    <g
       id="g1128"
       transform="matrix(1.25,0,0,-1.25,611.37188,552.63781)">
      <path
         inkscape:connector-curvature="0"
         d="m 0,0 -0.088,-0.22 -0.209,-0.086 -0.738,0 -0.207,0.089 L -1.34,0 l 0,5.017 c 0,0.501 -0.056,0.9 -0.17,1.195 -0.115,0.296 -0.295,0.505 -0.541,0.63 -0.246,0.124 -0.566,0.185 -0.963,0.185 -0.572,0 -1.259,-0.198 -2.062,-0.596 l 0,-6.431 -0.086,-0.217 -0.213,-0.089 -0.752,0 -0.201,0.089 -0.088,0.217 0,7.772 0.082,0.219 0.207,0.086 0.768,0 0.209,-0.086 0.074,-0.219 0,-0.283 c 0.426,0.238 0.83,0.414 1.213,0.528 0.383,0.115 0.787,0.171 1.213,0.171 0.904,0 1.572,-0.267 2.004,-0.804 C -0.215,6.848 0,6.059 0,5.017 L 0,0"
         style="fill:#ffffff;fill-opacity:1;fill-rule:nonzero;stroke:none"
         id="path1130" />
    </g>
    <g
       id="g1132"
       transform="matrix(1.25,0,0,-1.25,615.85688,552.63781)">
      <path
         inkscape:connector-curvature="0"
         d="m 0,0 -0.088,-0.22 -0.217,-0.086 -0.728,0 -0.217,0.089 -0.09,0.217 0,7.772 0.086,0.216 0.221,0.089 0.728,0 c 0.094,0 0.168,-0.027 0.223,-0.082 C -0.027,7.94 0,7.866 0,7.772 L 0,0 z m 0.031,9.73 -0.09,-0.22 -0.216,-0.085 -0.774,0 -0.217,0.088 -0.088,0.217 0,1.213 0.084,0.216 0.221,0.09 0.774,0 c 0.095,0 0.169,-0.028 0.224,-0.082 0.055,-0.055 0.082,-0.129 0.082,-0.224 l 0,-1.213"
         style="fill:#ffffff;fill-opacity:1;fill-rule:nonzero;stroke:none"
         id="path1134" />
    </g>
    <g
       id="g1136"
       transform="matrix(1.25,0,0,-1.25,625.16313,552.52656)">
      <path
         inkscape:connector-curvature="0"
         d="m 0,0 c 0,-0.184 -0.101,-0.295 -0.304,-0.335 -0.622,-0.11 -1.256,-0.164 -1.907,-0.164 -0.67,0 -1.254,0.151 -1.75,0.454 -0.496,0.302 -0.871,0.732 -1.125,1.288 -0.252,0.555 -0.379,1.209 -0.379,1.958 l 0,1.191 c 0,0.744 0.125,1.396 0.377,1.954 0.25,0.559 0.621,0.99 1.112,1.296 0.492,0.305 1.08,0.457 1.765,0.457 0.625,0 1.26,-0.056 1.907,-0.171 0.119,-0.019 0.199,-0.053 0.24,-0.1 C -0.021,7.781 0,7.703 0,7.593 L 0,7.043 C 0,6.893 -0.088,6.819 -0.261,6.819 l -0.059,0 c -0.631,0.069 -1.262,0.104 -1.891,0.104 -1.271,0 -1.906,-0.843 -1.906,-2.531 l 0,-1.191 c 0,-0.839 0.162,-1.47 0.488,-1.895 0.325,-0.425 0.797,-0.637 1.418,-0.637 0.645,0 1.276,0.038 1.891,0.113 l 0.059,0 C -0.088,0.782 0,0.705 0,0.55 L 0,0"
         style="fill:#ffffff;fill-opacity:1;fill-rule:nonzero;stroke:none"
         id="path1138" />
    </g>
    <g
       id="g1140"
       transform="matrix(1.25,0,0,-1.25,632.91438,551.01906)">
      <path
         inkscape:connector-curvature="0"
         d="m 0,0 0,2.457 -1.125,0 c -0.898,0 -1.509,-0.111 -1.837,-0.331 -0.329,-0.222 -0.493,-0.61 -0.493,-1.165 l 0,-0.187 c 0,-0.352 0.055,-0.631 0.16,-0.834 0.108,-0.203 0.262,-0.346 0.463,-0.428 0.2,-0.082 0.459,-0.123 0.778,-0.123 0.347,0 0.676,0.048 0.986,0.146 C -0.757,-0.369 -0.402,-0.214 0,0 z M 1.348,-1.295 1.25,-1.512 1.043,-1.601 l -0.709,0 -0.207,0.089 -0.089,0.217 0,0.335 c -0.254,-0.145 -0.508,-0.274 -0.764,-0.388 -0.256,-0.114 -0.518,-0.202 -0.789,-0.264 -0.27,-0.062 -0.537,-0.093 -0.801,-0.093 -0.725,0 -1.32,0.19 -1.785,0.569 -0.467,0.38 -0.701,1.012 -0.701,1.895 l 0,0.186 c 0,0.422 0.068,0.788 0.201,1.099 0.135,0.309 0.34,0.564 0.619,0.762 0.277,0.199 0.656,0.35 1.135,0.454 0.478,0.105 1.052,0.157 1.722,0.157 l 1.125,0 0,0.61 c 0,0.641 -0.121,1.087 -0.365,1.341 -0.242,0.253 -0.664,0.379 -1.265,0.379 -0.741,0 -1.516,-0.039 -2.331,-0.119 l -0.074,0 c -0.183,0 -0.275,0.082 -0.275,0.246 l 0,0.528 c 0,0.164 0.105,0.261 0.32,0.291 0.803,0.134 1.59,0.2 2.36,0.2 1.986,0 2.978,-0.955 2.978,-2.866 l 0,-5.322"
         style="fill:#ffffff;fill-opacity:1;fill-rule:nonzero;stroke:none"
         id="path1142" />
    </g>
    <g
       id="g1144"
       transform="matrix(1.25,0,0,-1.25,187.53438,532.36281)">
      <path
         inkscape:connector-curvature="0"
         d="m 0,0 c 0,-15.936 -12.918,-28.854 -28.854,-28.854 -15.935,0 -28.853,12.918 -28.853,28.854 0,15.935 12.918,28.855 28.853,28.855 C -12.918,28.855 0,15.935 0,0"
         style="fill:#00b1ac;fill-opacity:1;fill-rule:nonzero;stroke:none"
         id="path1146" />
    </g>
    <g
       id="g1148"
       transform="matrix(1.25,0,0,-1.25,248.40313,532.36281)">
      <path
         inkscape:connector-curvature="0"
         d="m 0,0 c 0,-15.936 -12.92,-28.854 -28.855,-28.854 -15.934,0 -28.854,12.918 -28.854,28.854 0,15.935 12.92,28.855 28.854,28.855 C -12.92,28.855 0,15.935 0,0"
         style="fill:#f05169;fill-opacity:1;fill-rule:nonzero;stroke:none"
         id="path1150" />
    </g>
    <g
       id="g1152"
       transform="matrix(1.25,0,0,-1.25,222.53188,522.79531)">
      <path
         inkscape:connector-curvature="0"
         d="M 0,0 C 0,-1.515 -0.373,-2.855 -1.119,-4.019 -1.864,-5.183 -2.961,-6.253 -4.414,-7.23 l -3.268,-2.197 c -1.377,-0.926 -2.43,-1.687 -3.162,-2.281 -0.732,-0.595 -1.318,-1.242 -1.756,-1.944 -0.439,-0.701 -0.658,-1.47 -0.658,-2.309 l 0,-0.151 12.148,0 c 0.202,0 0.379,-0.072 0.536,-0.215 0.156,-0.144 0.234,-0.317 0.234,-0.517 l 0,-3.962 c 0,-0.213 -0.08,-0.393 -0.244,-0.544 -0.162,-0.15 -0.338,-0.225 -0.526,-0.225 l -17.105,0 c -0.213,0 -0.395,0.075 -0.545,0.225 -0.15,0.151 -0.225,0.331 -0.225,0.544 l 0,3.925 c 0,1.326 0.225,2.606 0.676,3.84 0.451,1.232 1.07,2.346 1.86,3.342 0.789,0.996 1.683,1.856 2.685,2.582 l 3.549,2.498 c 1.601,1.138 2.562,1.837 2.881,2.093 0.32,0.256 0.57,0.563 0.752,0.92 0.181,0.357 0.271,0.842 0.271,1.455 0,0.851 -0.297,1.449 -0.89,1.793 -0.596,0.344 -1.657,0.517 -3.184,0.517 -1.527,0 -4.049,-0.169 -7.566,-0.507 l -0.077,0 c -0.212,0 -0.38,0.075 -0.505,0.225 -0.125,0.15 -0.188,0.332 -0.188,0.545 l 0,3.004 c 0,0.326 0.244,0.57 0.732,0.732 1.202,0.351 2.516,0.636 3.942,0.854 1.428,0.219 2.842,0.33 4.244,0.33 1.766,0 3.277,-0.151 4.535,-0.452 C -4.01,6.591 -3.002,6.139 -2.244,5.539 -1.489,4.938 -0.924,4.177 -0.555,3.258 -0.186,2.338 0,1.251 0,0"
         style="fill:#ffffff;fill-opacity:1;fill-rule:nonzero;stroke:none"
         id="path1154" />
    </g>
    <g
       id="g1156"
       transform="matrix(1.25,0,0,-1.25,233.20063,522.48656)">
      <path
         inkscape:connector-curvature="0"
         d="M 0,0 0,0.844 C 0,1.539 -0.098,2.035 -0.297,2.333 -0.496,2.631 -0.815,2.78 -1.252,2.78 -1.684,2.78 -2.006,2.629 -2.221,2.327 -2.436,2.024 -2.543,1.53 -2.543,0.844 l 0,-0.844 c 0,-0.679 0.107,-1.169 0.322,-1.471 0.215,-0.303 0.537,-0.453 0.969,-0.453 0.43,0 0.746,0.15 0.949,0.453 C -0.102,-1.169 0,-0.679 0,0 z M 2.719,0 C 2.719,-0.927 2.564,-1.703 2.254,-2.327 1.943,-2.952 1.492,-3.418 0.9,-3.724 c -0.591,-0.306 -1.308,-0.46 -2.152,-0.46 -1.275,0 -2.258,0.353 -2.949,1.056 -0.692,0.703 -1.035,1.746 -1.035,3.128 l 0,0.844 c 0,0.926 0.154,1.704 0.464,2.333 0.311,0.628 0.764,1.1 1.36,1.415 0.596,0.314 1.314,0.471 2.16,0.471 0.844,0 1.561,-0.157 2.152,-0.471 C 1.492,4.277 1.943,3.805 2.254,3.177 2.564,2.548 2.719,1.77 2.719,0.844 L 2.719,0"
         style="fill:#ffffff;fill-opacity:1;fill-rule:nonzero;stroke:none"
         id="path1158" />
    </g>
    <g
       id="g1160"
       transform="matrix(1.25,0,0,-1.25,161.03688,537.34531)">
      <path
         inkscape:connector-curvature="0"
         d="m 0,0 -2.234,11.033 c -1.623,0.504 -3.113,-2.08 -3.113,-2.08 0,0 -1.278,2.674 -1.787,2.582 -0.756,-0.137 -1.258,-0.297 -1.258,-0.297 L -10.695,0 c 1.43,-0.977 2.83,-1.45 4.125,-1.612 l 0.479,-5.836 c 0,0 2.232,0.707 2.931,6.053 C -1.242,-0.914 0,0 0,0"
         style="fill:#ffffff;fill-opacity:1;fill-rule:nonzero;stroke:none"
         id="path1162" />
    </g>
    <g
       id="g1164"
       transform="matrix(1.25,0,0,-1.25,153.24438,521.00781)">
      <path
         inkscape:connector-curvature="0"
         d="M 0,0 C 0.959,-0.211 2.539,0.406 2.957,1.127 3.316,1.867 2.754,3.482 1.881,4.129 0.986,4.699 -0.687,4.098 -1.17,3.014 -1.576,1.896 -0.92,0.266 0,0"
         style="fill:#ffffff;fill-opacity:1;fill-rule:nonzero;stroke:none"
         id="path1166" />
    </g>
    <g
       id="g1168"
       transform="matrix(1.25,0,0,-1.25,137.46813,520.55656)">
      <path
         inkscape:connector-curvature="0"
         d="M 0,0 C 0.768,-0.344 2.193,0.039 2.662,0.692 3.088,1.371 2.887,3.043 2.262,3.803 1.609,4.492 0.107,4.137 -0.475,3.137 -1.002,2.092 -0.727,0.393 0,0"
         style="fill:#ffffff;fill-opacity:1;fill-rule:nonzero;stroke:none"
         id="path1170" />
    </g>
    <g
       id="g1172"
       transform="matrix(1.25,0,0,-1.25,139.20438,522.13156)">
      <path
         inkscape:connector-curvature="0"
         d="m 0,0 c -3.588,0 -4.942,-1.152 -4.942,-1.152 0,0 0,-2.232 0,-5.685 0,-2.209 1.604,-3.584 2.76,-4.293 l 0.41,-8.444 c 0,0 3.695,-0.408 3.811,8.865 2.338,1.305 2.498,3.196 2.498,3.196 l 0,5.888 C 4.537,-1.625 3.588,0 0,0"
         style="fill:#ffffff;fill-opacity:1;fill-rule:nonzero;stroke:none"
         id="path1174" />
    </g>
    <g
       id="g1176"
       transform="matrix(1.25,0,0,-1.25,124.98563,531.83531)">
      <path
         inkscape:connector-curvature="0"
         d="M 0,0 C 0.759,-0.34 2.173,0.039 2.64,0.687 3.06,1.363 2.863,3.021 2.242,3.777 1.595,4.461 0.105,4.107 -0.473,3.115 -0.996,2.078 -0.723,0.39 0,0"
         style="fill:#ffffff;fill-opacity:1;fill-rule:nonzero;stroke:none"
         id="path1178" />
    </g>
    <g
       id="g1180"
       transform="matrix(1.25,0,0,-1.25,126.47938,532.46281)">
      <path
         inkscape:connector-curvature="0"
         d="m 0,0 c -2.381,0 -2.523,-0.61 -2.523,-0.61 0,0 -0.752,-1.632 -0.752,-3.921 0,-1.463 1.062,-2.373 1.828,-2.842 l 0.271,-3.981 c 0,0 2.526,0.364 2.526,4.258 C 2.896,-6.231 3,-5.651 3.004,-4.979 3.008,-3.86 2.201,-0.565 2.201,-0.565 2.201,-0.565 1.117,0 0,0"
         style="fill:#ffffff;fill-opacity:1;fill-rule:nonzero;stroke:none"
         id="path1182" />
    </g>
    <g
       id="g1184"
       transform="matrix(1.25,0,0,-1.25,168.50813,532.46281)">
      <path
         inkscape:connector-curvature="0"
         d="m 0,0 c -2.377,0 -2.523,-0.61 -2.523,-0.61 0,0 -0.752,-4.023 -0.752,-6.31 0,0 0.937,-0.109 1.828,-0.453 l 0.271,-3.981 c 0,0 2.526,0.871 2.526,4.258 0.543,0.135 1.654,-0.031 1.654,-0.031 L 2.182,-0.565 C 2.182,-0.565 1.117,0 0,0"
         style="fill:#ffffff;fill-opacity:1;fill-rule:nonzero;stroke:none"
         id="path1186" />
    </g>
    <g
       id="g1188"
       transform="matrix(1.25,0,0,-1.25,172.25563,530.69281)">
      <path
         inkscape:connector-curvature="0"
         d="m 0,0 c -0.35,0.338 -0.812,0.476 -1.26,0.428 0.11,0.607 0.053,1.316 -0.216,1.795 -0.51,0.767 -2.11,0.835 -2.92,0.107 C -4.865,1.849 -5.08,1.078 -5.029,0.43 -5.467,0.469 -5.918,0.33 -6.258,0 c -0.365,-0.352 -0.523,-0.838 -0.47,-1.307 0.47,-0.207 1.037,-0.123 1.429,0.256 l 0.606,0.588 0.088,-0.084 c 0.703,-0.498 2.228,-0.522 2.849,-0.068 l 0.16,0.179 0.635,-0.615 C -0.568,-1.43 -0.002,-1.514 0.469,-1.307 0.524,-0.838 0.367,-0.352 0,0"
         style="fill:#ffffff;fill-opacity:1;fill-rule:nonzero;stroke:none"
         id="path1190" />
    </g>
    <g
       id="g1192"
       transform="matrix(1.25,0,0,-1.25,176.26688,532.36281)">
      <path
         inkscape:connector-curvature="0"
         d="M 0,0 C 0,-5.695 1.658,-11.002 4.508,-15.477 7.357,-11.002 9.014,-5.695 9.014,0 9.014,5.697 7.357,11.004 4.508,15.476 1.658,11.004 0,5.697 0,0"
         style="fill:#41494f;fill-opacity:1;fill-rule:nonzero;stroke:none"
         id="path1194" />
    </g>
  </g>
</svg>
