<?xml version="1.0" encoding="UTF-8" standalone="no"?>
<!-- Created with Inkscape (http://www.inkscape.org/) -->

<svg
   xmlns:dc="http://purl.org/dc/elements/1.1/"
   xmlns:cc="http://creativecommons.org/ns#"
   xmlns:rdf="http://www.w3.org/1999/02/22-rdf-syntax-ns#"
   xmlns:svg="http://www.w3.org/2000/svg"
   xmlns="http://www.w3.org/2000/svg"
   xmlns:sodipodi="http://sodipodi.sourceforge.net/DTD/sodipodi-0.dtd"
   xmlns:inkscape="http://www.inkscape.org/namespaces/inkscape"
   width="417.28"
   height="128.67999"
   id="svg3654"
   version="1.1"
   inkscape:version="0.48.4 r9939"
   sodipodi:docname="logo.svg">
  <defs
     id="defs3656" />
  <sodipodi:namedview
     id="base"
     pagecolor="#ffffff"
     bordercolor="#666666"
     borderopacity="1.0"
     inkscape:pageopacity="0.0"
     inkscape:pageshadow="2"
     inkscape:zoom="1.42"
     inkscape:cx="194.52712"
     inkscape:cy="100.57725"
     inkscape:document-units="px"
     inkscape:current-layer="text3755"
     showgrid="false"
     fit-margin-top="0"
     fit-margin-left="0"
     fit-margin-right="0"
     fit-margin-bottom="0"
     inkscape:window-width="1855"
     inkscape:window-height="1056"
     inkscape:window-x="1985"
     inkscape:window-y="24"
     inkscape:window-maximized="1" />
  <metadata
     id="metadata3659">
    <rdf:RDF>
      <cc:Work
         rdf:about="">
        <dc:format>image/svg+xml</dc:format>
        <dc:type
           rdf:resource="http://purl.org/dc/dcmitype/StillImage" />
        <dc:title></dc:title>
      </cc:Work>
    </rdf:RDF>
  </metadata>
  <g
     inkscape:label="Layer 1"
     inkscape:groupmode="layer"
     id="layer1"
     transform="translate(-168.36,-481.66156)">
    <g
       id="g22"
       transform="matrix(1.25,0,0,-1.25,210.72,531.61343)">
      <path
         inkscape:connector-curvature="0"
         d="m 0,0 c 7.36,0.909 13.073,7.627 13.073,15.787 0,5.137 -2.26,9.704 -5.771,12.608 -4.47,-1.967 -7.62,-6.692 -7.62,-12.211 l 0,-16.188 0.222,0 L 0,0"
         style="fill:#e73e51;fill-opacity:1;fill-rule:nonzero;stroke:none"
         id="path24" />
    </g>
    <g
       id="g26"
       transform="matrix(1.25,0,0,-1.25,168.36,516.09343)">
      <path
         inkscape:connector-curvature="0"
         d="m 0,0 c 0,-15.757 11.875,-28.732 27.166,-30.482 l 0.197,-0.008 0.46,0 0,31.258 c 0,10.658 -6.541,19.777 -15.82,23.58 C 4.703,18.737 0,9.922 0,0"
         style="fill:#00afaa;fill-opacity:1;fill-rule:nonzero;stroke:none"
         id="path28" />
    </g>
    <g
       id="g30"
       transform="matrix(1.25,0,0,-1.25,439.63,533.48843)">
      <path
         inkscape:connector-curvature="0"
         d="m 0,0 -4.074,0 c -2.988,0 -4.482,1.266 -4.482,3.803 0,2.717 2.371,4.076 7.119,4.076 3.404,0 6.783,-0.543 10.135,-1.631 l 0,4.348 c -3.352,0.904 -6.731,1.357 -10.135,1.357 -7.916,0 -11.873,-2.716 -11.873,-8.15 0,-5.615 3.078,-8.424 9.236,-8.424 l 4.074,0 c 3.172,0 4.758,-1.265 4.758,-3.802 0,-2.717 -2.273,-4.075 -6.82,-4.075 -3.424,0 -6.813,0.543 -10.162,1.629 l 0,-4.346 c 3.349,-0.906 6.738,-1.359 10.162,-1.359 7.898,0 11.846,2.717 11.846,8.151 C 9.784,-2.808 6.524,0 0,0"
         style="fill:#00afaa;fill-opacity:1;fill-rule:nonzero;stroke:none"
         id="path32" />
    </g>
    <g
       id="g34"
       transform="matrix(1.25,0,0,-1.25,481.03625,545.64843)">
      <path
         inkscape:connector-curvature="0"
         d="m 0,0 c -2.408,-1.846 -5.351,-2.77 -8.832,-2.77 -3.441,0 -5.162,1.539 -5.162,4.617 0,3.081 2.182,4.62 6.549,4.62 2.481,0 4.963,-0.18 7.445,-0.543 L 0,0 z m -7.691,21.681 c -2.932,0 -5.94,-0.453 -9.02,-1.357 l 0,-4.076 c 3.08,0.904 6.088,1.359 9.02,1.359 5.127,0 7.691,-1.64 7.691,-4.918 L 0,10 c -2.482,0.361 -4.964,0.543 -7.445,0.543 -7.717,0 -11.574,-2.926 -11.574,-8.778 0,-5.74 3.396,-8.611 10.187,-8.611 3.35,0 6.45,0.942 9.293,2.826 l 1.741,-2.826 2.826,0 0,19.67 c 0,5.906 -4.241,8.857 -12.719,8.857"
         style="fill:#00afaa;fill-opacity:1;fill-rule:nonzero;stroke:none"
         id="path36" />
    </g>
    <path
       inkscape:connector-curvature="0"
       d="m 496.45625,554.20593 6.2825,0 0,-48.5675 -6.2825,0 0,48.5675 z"
       style="fill:#00afaa;fill-opacity:1;fill-rule:nonzero;stroke:none"
       id="path38" />
    <g
       id="g40"
       transform="matrix(1.25,0,0,-1.25,536.3325,544.45718)">
      <path
         inkscape:connector-curvature="0"
         d="m 0,0 c -2.61,-2.41 -5.352,-3.615 -8.233,-3.615 -4.203,0 -6.304,2.119 -6.304,6.357 l 0,17.986 -5.028,0 0,-17.904 c 0,-7.082 3.278,-10.623 9.836,-10.623 3.498,0 6.975,1.215 10.436,3.641 l 0.867,-3.641 3.451,0 0,28.527 L 0,20.728 0,0"
         style="fill:#00afaa;fill-opacity:1;fill-rule:nonzero;stroke:none"
         id="path42" />
    </g>
    <g
       id="g44"
       transform="matrix(1.25,0,0,-1.25,575.355,547.65093)">
      <path
         inkscape:connector-curvature="0"
         d="m 0,0 c -2.027,-0.707 -4.345,-1.06 -6.955,-1.06 -5.742,0 -8.613,3.615 -8.613,10.84 0,6.105 2.871,9.158 8.613,9.158 2.61,0 4.928,-0.49 6.955,-1.467 L 0,0 z M 0,33.61 0,21.926 c -2.191,0.904 -4.519,1.357 -6.982,1.357 -9.02,0 -13.531,-4.564 -13.531,-13.693 0,-9.889 4.246,-14.834 12.744,-14.834 5.07,0 9.336,0.57 12.797,1.713 l 0,37.141 -5.028,0"
         style="fill:#00afaa;fill-opacity:1;fill-rule:nonzero;stroke:none"
         id="path46" />
    </g>
    <g
       id="g48"
       transform="matrix(1.25,0,0,-1.25,293.625,544.45718)"
       style="fill:#ffffff">
      <path
         inkscape:connector-curvature="0"
         d="m 0,0 c -2.609,-2.41 -5.351,-3.615 -8.231,-3.615 -4.203,0 -6.304,2.119 -6.304,6.357 l 0,17.986 -5.028,0 0,-17.904 c 0,-7.082 3.278,-10.623 9.837,-10.623 3.497,0 6.972,1.215 10.433,3.641 l 0.87,-3.641 3.451,0 0,28.527 L 0,20.728 0,0"
         style="fill:#ffffff;fill-opacity:1;fill-rule:nonzero;stroke:none"
         id="path50" />
    </g>
    <path
       inkscape:connector-curvature="0"
       d="m 309.3875,554.20593 6.28125,0 0,-35.65875 -6.28125,0 0,35.65875 z"
       style="fill:#ffffff;fill-opacity:1;fill-rule:nonzero;stroke:none"
       id="path52" />
    <g
       id="g54"
       transform="matrix(1.25,0,0,-1.25,329.39,518.54718)"
       style="fill:#ffffff">
      <path
         inkscape:connector-curvature="0"
         d="m 0,0 -3.396,0 0,-28.527 5.026,0 0,20.731 c 2.122,2.408 4.884,3.613 8.288,3.613 L 9.918,0 C 6.405,0 3.399,-1.212 0.898,-3.64 L 0,0"
         style="fill:#ffffff;fill-opacity:1;fill-rule:nonzero;stroke:none"
         id="path56" />
    </g>
    <g
       id="g58"
       transform="matrix(1.25,0,0,-1.25,361.07375,549.11093)"
       style="fill:#ffffff">
      <path
         inkscape:connector-curvature="0"
         d="m 0,0 c -5.704,0 -8.558,3.43 -8.558,10.297 0,6.719 2.854,10.08 8.558,10.08 5.705,0 8.559,-3.361 8.559,-10.08 C 8.559,3.43 5.705,0 0,0 z m 3.18,24.229 4.129,4.129 -6.493,0 -2.741,-3.992 C -9.693,23.715 -13.587,18.994 -13.587,10.188 -13.549,0.698 -9.021,-4.049 0,-4.049 c 9.056,0 13.583,4.747 13.583,14.237 0,8.322 -3.467,13.002 -10.403,14.041"
         style="fill:#ffffff;fill-opacity:1;fill-rule:nonzero;stroke:none"
         id="path60" />
    </g>
    <g
       id="g62"
       transform="matrix(1.25,0,0,-1.25,402.5425,518.54718)"
       style="fill:#ffffff">
      <path
         inkscape:connector-curvature="0"
         d="m 0,0 c -3.496,0 -6.701,-1.212 -9.615,-3.64 l -0.9,3.64 -3.397,0 0,-28.527 5.028,0 0,20.731 c 2.59,2.408 5.328,3.613 8.207,3.613 4.218,0 6.33,-2.119 6.33,-6.36 l 0,-17.984 5.025,0 0,17.904 C 10.678,-3.541 7.122,0 0,0"
         style="fill:#ffffff;fill-opacity:1;fill-rule:nonzero;stroke:none"
         id="path64" />
    </g>
    <g
       id="g66"
       transform="matrix(1.25,0,0,-1.25,254.9975,546.98218)"
       style="fill:#ffffff">
      <path
         inkscape:connector-curvature="0"
         d="m 0,0 c -1.977,-0.98 -4.272,-1.47 -6.885,-1.47 -5.751,0 -8.626,3.383 -8.626,10.15 0,6.584 3.036,9.877 9.115,9.877 2.541,0 4.673,-0.217 6.396,-0.652 L 0,0 z m -20.464,8.625 c 0,-9.632 4.518,-14.451 13.553,-14.451 2.467,0 4.771,0.455 6.911,1.362 l 0,-14.803 5.036,0 0,40.846 c -3.61,0.779 -7.349,1.169 -11.212,1.169 -9.525,0 -14.288,-4.709 -14.288,-14.123"
         style="fill:#ffffff;fill-opacity:1;fill-rule:nonzero;stroke:none"
         id="path68" />
    </g>
    <path
       inkscape:connector-curvature="0"
       d="m 309.3875,513.82468 6.28125,0 0,-5.945 -6.28125,0 0,5.945 z"
       style="fill:#ffffff;fill-opacity:1;fill-rule:nonzero;stroke:none"
       id="path70" />
    <g
       style="font-size:40px;font-style:normal;font-weight:normal;line-height:125%;letter-spacing:0px;word-spacing:0px;fill:#000000;fill-opacity:1;stroke:none;font-family:Sans"
       id="text3755">
      <path
         d="m 264.62413,599.91095 c -10e-6,0.19531 -0.01,0.36133 -0.0293,0.49805 -0.0195,0.12695 -0.0537,0.23925 -0.10254,0.33691 -0.0391,0.0879 -0.0928,0.15625 -0.16113,0.20508 -0.0586,0.0391 -0.13185,0.0586 -0.21973,0.0586 l -8.3789,0 c -0.22461,0 -0.43946,-0.0732 -0.64453,-0.21972 -0.19532,-0.15625 -0.29297,-0.42481 -0.29297,-0.80567 l 0,-17.54883 c 0,-0.0781 0.0195,-0.14646 0.0586,-0.20507 0.0391,-0.0586 0.10742,-0.10252 0.20508,-0.13184 0.0977,-0.039 0.22949,-0.0683 0.39551,-0.0879 0.16601,-0.0293 0.36621,-0.0439 0.60058,-0.044 0.24414,2e-5 0.44434,0.0147 0.60059,0.044 0.16601,0.0195 0.29785,0.0488 0.39551,0.0879 0.0977,0.0293 0.16601,0.0733 0.20508,0.13184 0.0391,0.0586 0.0586,0.12697 0.0586,0.20507 l 0,16.39161 6.79687,0 c 0.0879,0 0.16113,0.0244 0.21973,0.0732 0.0684,0.0391 0.12206,0.10254 0.16113,0.19043 0.0488,0.0781 0.083,0.18555 0.10254,0.32226 0.0195,0.13672 0.0293,0.30274 0.0293,0.49805"
         style="font-size:30px;font-variant:normal;font-stretch:normal;fill:#ffffff;font-family:Calibri;-inkscape-font-specification:Calibri"
         id="path3762"
         inkscape:connector-curvature="0" />
      <path
         d="m 277.04601,600.65802 c -2e-5,0.11719 -0.0391,0.20508 -0.11719,0.26367 -0.0781,0.0586 -0.18556,0.10254 -0.32227,0.13184 -0.13673,0.0293 -0.33692,0.0439 -0.60058,0.0439 -0.25392,0 -0.459,-0.0147 -0.61524,-0.0439 -0.14649,-0.0293 -0.25391,-0.0732 -0.32226,-0.13184 -0.0684,-0.0586 -0.10255,-0.14648 -0.10254,-0.26367 l 0,-1.31836 c -0.57618,0.61524 -1.22071,1.09375 -1.9336,1.43555 -0.70313,0.34179 -1.4502,0.51269 -2.24121,0.51269 -0.69336,0 -1.32324,-0.0928 -1.88965,-0.27832 -0.55664,-0.17578 -1.03516,-0.43457 -1.43554,-0.77636 -0.39063,-0.3418 -0.69825,-0.76172 -0.92285,-1.25977 -0.21485,-0.49804 -0.32227,-1.06445 -0.32227,-1.69922 0,-0.74218 0.15137,-1.38671 0.4541,-1.93359 0.30273,-0.54687 0.7373,-1.00097 1.30371,-1.36231 0.56641,-0.36132 1.25976,-0.62987 2.08008,-0.80566 0.82031,-0.18554 1.74316,-0.27831 2.76856,-0.27832 l 1.8164,0 0,-1.02539 c -1e-5,-0.50781 -0.0537,-0.95702 -0.16113,-1.34766 -0.10743,-0.39061 -0.28321,-0.71288 -0.52735,-0.9668 -0.23438,-0.26366 -0.542,-0.45897 -0.92285,-0.58593 -0.38086,-0.13671 -0.84961,-0.20507 -1.40625,-0.20508 -0.59571,10e-6 -1.13281,0.0732 -1.61132,0.21973 -0.46876,0.13673 -0.8838,0.29298 -1.24512,0.46875 -0.35157,0.16602 -0.64942,0.32227 -0.89356,0.46875 -0.23437,0.13673 -0.41016,0.20508 -0.52734,0.20507 -0.0781,10e-6 -0.14649,-0.0195 -0.20508,-0.0586 -0.0586,-0.039 -0.11231,-0.0976 -0.16113,-0.17578 -0.0391,-0.0781 -0.0684,-0.17577 -0.0879,-0.29297 -0.0195,-0.12694 -0.0293,-0.26366 -0.0293,-0.41016 0,-0.24413 0.0147,-0.43455 0.0439,-0.57129 0.0391,-0.14647 0.12206,-0.28319 0.24902,-0.41015 0.13672,-0.12694 0.36621,-0.27343 0.68848,-0.43945 0.32226,-0.17577 0.69335,-0.33202 1.11328,-0.46875 0.41992,-0.14648 0.8789,-0.26366 1.37695,-0.35157 0.49804,-0.0976 1.00097,-0.14647 1.50879,-0.14648 0.94726,10e-6 1.75292,0.10743 2.41699,0.32226 0.66405,0.21486 1.20116,0.53224 1.61133,0.95215 0.41015,0.41017 0.708,0.92287 0.89355,1.53809 0.18554,0.61524 0.27831,1.33302 0.27833,2.15332 l 0,8.8916 m -2.40235,-6.02051 -2.06543,0 c -0.66407,10e-6 -1.24024,0.0586 -1.72851,0.17578 -0.48829,0.10743 -0.89356,0.27345 -1.21582,0.49805 -0.32227,0.21485 -0.56153,0.47852 -0.71778,0.79102 -0.14649,0.30273 -0.21973,0.6543 -0.21972,1.05468 -1e-5,0.6836 0.21484,1.23047 0.64453,1.64063 0.43945,0.40039 1.0498,0.60059 1.83105,0.60058 0.63476,10e-6 1.2207,-0.16113 1.75781,-0.48339 0.54687,-0.32227 1.11816,-0.81543 1.71387,-1.4795 l 0,-2.79785"
         style="font-size:30px;font-variant:normal;font-stretch:normal;fill:#ffffff;font-family:Calibri;-inkscape-font-specification:Calibri"
         id="path3764"
         inkscape:connector-curvature="0" />
      <path
         d="m 296.54308,597.0545 c -10e-6,0.67384 -0.12697,1.27442 -0.38086,1.80176 -0.24415,0.52735 -0.59572,0.97168 -1.05469,1.33301 -0.45899,0.36133 -1.00587,0.63477 -1.64063,0.82031 -0.63477,0.18555 -1.33301,0.27832 -2.09472,0.27832 -0.46876,0 -0.91798,-0.0391 -1.34766,-0.11718 -0.41992,-0.0684 -0.80078,-0.15625 -1.14258,-0.26368 -0.33203,-0.11718 -0.61523,-0.23437 -0.84961,-0.35156 -0.23437,-0.12695 -0.40527,-0.23926 -0.51269,-0.33691 -0.10743,-0.0977 -0.18555,-0.23438 -0.23438,-0.41016 -0.0488,-0.17578 -0.0732,-0.41504 -0.0732,-0.71777 0,-0.18555 0.01,-0.3418 0.0293,-0.46875 0.0195,-0.12695 0.0439,-0.22949 0.0732,-0.30762 0.0293,-0.0781 0.0684,-0.13183 0.11719,-0.16113 0.0586,-0.0391 0.12207,-0.0586 0.19043,-0.0586 0.10742,10e-6 0.26367,0.0684 0.46875,0.20508 0.21484,0.12696 0.47363,0.26856 0.77636,0.42481 0.3125,0.15625 0.67871,0.30273 1.09864,0.43945 0.41991,0.12695 0.90331,0.19043 1.45019,0.19043 0.41015,0 0.78125,-0.0439 1.11328,-0.13184 0.33203,-0.0879 0.62011,-0.21484 0.86426,-0.38086 0.24413,-0.17578 0.42968,-0.3955 0.55664,-0.65918 0.13671,-0.26366 0.20507,-0.57616 0.20508,-0.9375 -10e-6,-0.37109 -0.0977,-0.68359 -0.29297,-0.9375 -0.18555,-0.2539 -0.43458,-0.47851 -0.74707,-0.67382 -0.31251,-0.19531 -0.66407,-0.36621 -1.05469,-0.5127 -0.39063,-0.15624 -0.7959,-0.31738 -1.21582,-0.4834 -0.41016,-0.16601 -0.81543,-0.35155 -1.21582,-0.55664 -0.39063,-0.21484 -0.74219,-0.47362 -1.05468,-0.77637 -0.31251,-0.30272 -0.56641,-0.66405 -0.76172,-1.08398 -0.18555,-0.41991 -0.27833,-0.92284 -0.27832,-1.50879 -10e-6,-0.51757 0.0976,-1.01073 0.29297,-1.47949 0.20507,-0.4785 0.50781,-0.89354 0.9082,-1.24512 0.40039,-0.36131 0.89843,-0.6494 1.49414,-0.86426 0.60546,-0.21483 1.30859,-0.32225 2.10937,-0.32226 0.35156,10e-6 0.70312,0.0293 1.05469,0.0879 0.35156,0.0586 0.66894,0.13185 0.95215,0.21973 0.28319,0.0879 0.52245,0.18556 0.71777,0.29296 0.20507,0.0977 0.35644,0.18556 0.4541,0.26368 0.10742,0.0781 0.17578,0.14649 0.20508,0.20507 0.0391,0.0586 0.0635,0.12697 0.0733,0.20508 0.0195,0.0684 0.0342,0.15626 0.0439,0.26367 0.0195,0.10744 0.0293,0.23927 0.0293,0.39551 -10e-6,0.16603 -0.01,0.31251 -0.0293,0.43946 -0.01,0.11719 -0.0342,0.21485 -0.0732,0.29296 -0.0293,0.0781 -0.0684,0.13673 -0.11719,0.17579 -0.0488,0.0293 -0.10255,0.0439 -0.16113,0.0439 -0.0879,10e-6 -0.21485,-0.0537 -0.38086,-0.16113 -0.16603,-0.10741 -0.38087,-0.21972 -0.64453,-0.33692 -0.26368,-0.12694 -0.57618,-0.24413 -0.9375,-0.35156 -0.35157,-0.10741 -0.75685,-0.16112 -1.21582,-0.16113 -0.41017,10e-6 -0.77149,0.0488 -1.08399,0.14648 -0.3125,0.0879 -0.57129,0.21974 -0.77636,0.39551 -0.19532,0.16603 -0.34669,0.36622 -0.45411,0.60059 -0.0977,0.23438 -0.14648,0.48829 -0.14648,0.76172 0,0.38086 0.0976,0.70313 0.29297,0.96679 0.19531,0.25392 0.44921,0.47853 0.76172,0.67383 0.31249,0.19532 0.66894,0.3711 1.06933,0.52734 0.40039,0.15626 0.80566,0.31739 1.21582,0.4834 0.41992,0.16603 0.83007,0.35157 1.23047,0.55664 0.41015,0.20509 0.77148,0.45411 1.08399,0.74707 0.31249,0.29298 0.56151,0.64454 0.74707,1.05469 0.1953,0.41016 0.29296,0.89844 0.29297,1.46484"
         style="font-size:30px;font-variant:normal;font-stretch:normal;fill:#ffffff;font-family:Calibri;-inkscape-font-specification:Calibri"
         id="path3766"
         inkscape:connector-curvature="0" />
      <path
         d="m 309.9171,600.65802 c -1e-5,0.11719 -0.0391,0.20508 -0.11719,0.26367 -0.0781,0.0586 -0.18556,0.10254 -0.32226,0.13184 -0.13673,0.0293 -0.33693,0.0439 -0.60059,0.0439 -0.25392,0 -0.459,-0.0147 -0.61523,-0.0439 -0.1465,-0.0293 -0.25392,-0.0732 -0.32227,-0.13184 -0.0684,-0.0586 -0.10255,-0.14648 -0.10254,-0.26367 l 0,-1.31836 c -0.57618,0.61524 -1.22071,1.09375 -1.93359,1.43555 -0.70314,0.34179 -1.4502,0.51269 -2.24121,0.51269 -0.69337,0 -1.32325,-0.0928 -1.88965,-0.27832 -0.55665,-0.17578 -1.03516,-0.43457 -1.43555,-0.77636 -0.39063,-0.3418 -0.69824,-0.76172 -0.92285,-1.25977 -0.21485,-0.49804 -0.32227,-1.06445 -0.32227,-1.69922 0,-0.74218 0.15137,-1.38671 0.45411,-1.93359 0.30273,-0.54687 0.7373,-1.00097 1.30371,-1.36231 0.5664,-0.36132 1.25976,-0.62987 2.08007,-0.80566 0.82031,-0.18554 1.74316,-0.27831 2.76856,-0.27832 l 1.81641,0 0,-1.02539 c -1e-5,-0.50781 -0.0537,-0.95702 -0.16114,-1.34766 -0.10743,-0.39061 -0.28321,-0.71288 -0.52734,-0.9668 -0.23439,-0.26366 -0.542,-0.45897 -0.92285,-0.58593 -0.38087,-0.13671 -0.84962,-0.20507 -1.40625,-0.20508 -0.59571,10e-6 -1.13282,0.0732 -1.61133,0.21973 -0.46876,0.13673 -0.88379,0.29298 -1.24512,0.46875 -0.35156,0.16602 -0.64942,0.32227 -0.89355,0.46875 -0.23438,0.13673 -0.41016,0.20508 -0.52735,0.20507 -0.0781,10e-6 -0.14648,-0.0195 -0.20507,-0.0586 -0.0586,-0.039 -0.11231,-0.0976 -0.16114,-0.17578 -0.0391,-0.0781 -0.0684,-0.17577 -0.0879,-0.29297 -0.0195,-0.12694 -0.0293,-0.26366 -0.0293,-0.41016 0,-0.24413 0.0147,-0.43455 0.0439,-0.57129 0.0391,-0.14647 0.12207,-0.28319 0.24902,-0.41015 0.13672,-0.12694 0.36621,-0.27343 0.68848,-0.43945 0.32226,-0.17577 0.69336,-0.33202 1.11328,-0.46875 0.41992,-0.14648 0.8789,-0.26366 1.37695,-0.35157 0.49805,-0.0976 1.00097,-0.14647 1.50879,-0.14648 0.94726,10e-6 1.75292,0.10743 2.417,0.32226 0.66405,0.21486 1.20116,0.53224 1.61132,0.95215 0.41015,0.41017 0.708,0.92287 0.89356,1.53809 0.18553,0.61524 0.27831,1.33302 0.27832,2.15332 l 0,8.8916 m -2.40234,-6.02051 -2.06543,0 c -0.66407,10e-6 -1.24025,0.0586 -1.72852,0.17578 -0.48829,0.10743 -0.89356,0.27345 -1.21582,0.49805 -0.32227,0.21485 -0.56153,0.47852 -0.71777,0.79102 -0.14649,0.30273 -0.21973,0.6543 -0.21973,1.05468 0,0.6836 0.21484,1.23047 0.64453,1.64063 0.43945,0.40039 1.0498,0.60059 1.83106,0.60058 0.63475,10e-6 1.22069,-0.16113 1.75781,-0.48339 0.54686,-0.32227 1.11815,-0.81543 1.71387,-1.4795 l 0,-2.79785"
         style="font-size:30px;font-variant:normal;font-stretch:normal;fill:#ffffff;font-family:Calibri;-inkscape-font-specification:Calibri"
         id="path3768"
         inkscape:connector-curvature="0" />
      <path
         d="m 316.75792,600.64337 c -1e-5,0.0781 -0.0195,0.14649 -0.0586,0.20508 -0.0391,0.0488 -0.10255,0.0928 -0.19043,0.13184 -0.0879,0.0391 -0.20997,0.0684 -0.36622,0.0879 -0.15625,0.0195 -0.35644,0.0293 -0.60058,0.0293 -0.23438,0 -0.42969,-0.01 -0.58594,-0.0293 -0.15625,-0.0195 -0.2832,-0.0488 -0.38086,-0.0879 -0.0879,-0.0391 -0.15137,-0.083 -0.19043,-0.13184 -0.0293,-0.0586 -0.0439,-0.12695 -0.0439,-0.20508 l 0,-19.57031 c -10e-6,-0.0781 0.0146,-0.14647 0.0439,-0.20508 0.0391,-0.0586 0.10254,-0.1074 0.19043,-0.14648 0.0977,-0.039 0.22461,-0.0683 0.38086,-0.0879 0.15625,-0.0195 0.35156,-0.0293 0.58594,-0.0293 0.24414,2e-5 0.44433,0.01 0.60058,0.0293 0.15625,0.0195 0.27832,0.0488 0.36622,0.0879 0.0879,0.0391 0.15136,0.0879 0.19043,0.14648 0.0391,0.0586 0.0586,0.12697 0.0586,0.20508 l 0,19.57031"
         style="font-size:30px;font-variant:normal;font-stretch:normal;fill:#ffffff;font-family:Calibri;-inkscape-font-specification:Calibri"
         id="path3770"
         inkscape:connector-curvature="0" />
      <path
         d="m 332.54893,600.64337 c -10e-6,0.0781 -0.0195,0.14649 -0.0586,0.20508 -0.0293,0.0488 -0.0879,0.0928 -0.17578,0.13184 -0.0879,0.0391 -0.20509,0.0684 -0.35156,0.0879 -0.13673,0.0195 -0.30763,0.0293 -0.5127,0.0293 -0.22462,0 -0.41017,-0.01 -0.55664,-0.0293 -0.13673,-0.0195 -0.24903,-0.0488 -0.33691,-0.0879 -0.0781,-0.0391 -0.13185,-0.083 -0.16114,-0.13184 -0.0293,-0.0586 -0.0439,-0.12695 -0.0439,-0.20508 l 0,-1.74316 c -0.75196,0.83008 -1.49415,1.43555 -2.22656,1.8164 -0.73243,0.38086 -1.47462,0.57129 -2.22657,0.57129 -0.87891,0 -1.62109,-0.14648 -2.22656,-0.43945 -0.59571,-0.29297 -1.0791,-0.68848 -1.45019,-1.18652 -0.3711,-0.50781 -0.63965,-1.09375 -0.80567,-1.75782 -0.15625,-0.67382 -0.23437,-1.48925 -0.23437,-2.44629 l 0,-7.99804 c 0,-0.0781 0.0146,-0.14159 0.0439,-0.19043 0.0391,-0.0586 0.10742,-0.10741 0.20508,-0.14649 0.0976,-0.0488 0.22461,-0.0781 0.38086,-0.0879 0.15625,-0.0195 0.35156,-0.0293 0.58594,-0.0293 0.23437,10e-6 0.42968,0.01 0.58594,0.0293 0.15624,0.01 0.27831,0.0391 0.36621,0.0879 0.0976,0.0391 0.16601,0.0879 0.20507,0.14649 0.0391,0.0488 0.0586,0.11232 0.0586,0.19043 l 0,7.67578 c -1e-5,0.77149 0.0537,1.39161 0.16113,1.86035 0.11718,0.45899 0.28808,0.8545 0.5127,1.18652 0.23437,0.32227 0.52733,0.57618 0.8789,0.76172 0.35156,0.17579 0.76171,0.26368 1.23047,0.26367 0.60546,10e-6 1.20605,-0.21484 1.80176,-0.64453 0.60546,-0.42968 1.24511,-1.05956 1.91894,-1.88964 l 0,-9.21387 c -10e-6,-0.0781 0.0146,-0.14159 0.0439,-0.19043 0.039,-0.0586 0.10741,-0.10741 0.20508,-0.14649 0.0976,-0.0488 0.21971,-0.0781 0.36621,-0.0879 0.15624,-0.0195 0.35643,-0.0293 0.60058,-0.0293 0.23437,10e-6 0.42968,0.01 0.58594,0.0293 0.15624,0.01 0.27831,0.0391 0.36621,0.0879 0.0879,0.0391 0.15136,0.0879 0.19043,0.14649 0.0488,0.0488 0.0732,0.11232 0.0732,0.19043 l 0,13.18359"
         style="font-size:30px;font-variant:normal;font-stretch:normal;fill:#ffffff;font-family:Calibri;-inkscape-font-specification:Calibri"
         id="path3772"
         inkscape:connector-curvature="0" />
      <path
         d="m 348.31065,600.64337 c -1e-5,0.0781 -0.0195,0.14649 -0.0586,0.20508 -0.0293,0.0586 -0.0879,0.10742 -0.17578,0.14648 -0.0781,0.0293 -0.18556,0.0537 -0.32227,0.0733 -0.13673,0.0195 -0.30274,0.0293 -0.49804,0.0293 -0.20509,0 -0.37599,-0.01 -0.5127,-0.0293 -0.13673,-0.0195 -0.24903,-0.0439 -0.33691,-0.0733 -0.0879,-0.0391 -0.15138,-0.0879 -0.19043,-0.14648 -0.0391,-0.0586 -0.0586,-0.12695 -0.0586,-0.20508 l 0,-1.74316 c -0.69337,0.75195 -1.41602,1.33789 -2.16797,1.75781 -0.74219,0.41992 -1.55762,0.62988 -2.44628,0.62988 -0.96681,0 -1.792,-0.18554 -2.47559,-0.55664 -0.6836,-0.38086 -1.24024,-0.88867 -1.66992,-1.52344 -0.41993,-0.64452 -0.72754,-1.39648 -0.92285,-2.25585 -0.19532,-0.86914 -0.29297,-1.78223 -0.29297,-2.73926 0,-1.13281 0.12207,-2.15331 0.36621,-3.06153 0.24414,-0.91795 0.60546,-1.6992 1.08398,-2.34375 0.47852,-0.64451 1.06933,-1.13768 1.77246,-1.47949 0.71289,-0.35155 1.5332,-0.52733 2.46094,-0.52734 0.77148,10e-6 1.4746,0.17091 2.10938,0.51269 0.64452,0.33205 1.27928,0.82521 1.90429,1.4795 l 0,-7.66114 c -1e-5,-0.0683 0.0146,-0.13181 0.0439,-0.19043 0.0391,-0.0683 0.10741,-0.11716 0.20508,-0.14648 0.0976,-0.039 0.21971,-0.0683 0.36621,-0.0879 0.15624,-0.0293 0.35155,-0.0439 0.58593,-0.0439 0.24413,2e-5 0.44433,0.0147 0.60059,0.0439 0.15624,0.0195 0.27831,0.0489 0.36621,0.0879 0.0879,0.0293 0.15136,0.0781 0.19043,0.14648 0.0488,0.0586 0.0732,0.12209 0.0732,0.19043 l 0,19.51172 m -2.43164,-9.27246 c -0.6543,-0.81054 -1.28907,-1.42577 -1.90429,-1.8457 -0.60548,-0.42968 -1.24025,-0.64452 -1.9043,-0.64453 -0.61524,10e-6 -1.1377,0.14649 -1.56738,0.43945 -0.4297,0.29298 -0.78126,0.67872 -1.05469,1.15723 -0.26368,0.47852 -0.45899,1.02051 -0.58594,1.62597 -0.11719,0.60548 -0.17578,1.22071 -0.17578,1.84571 0,0.66406 0.0488,1.31348 0.14648,1.94824 0.10742,0.63477 0.28809,1.20117 0.542,1.69922 0.2539,0.48828 0.59081,0.88379 1.01074,1.18652 0.41991,0.29297 0.94726,0.43945 1.58203,0.43945 0.32226,0 0.62988,-0.0439 0.92285,-0.13183 0.30273,-0.0879 0.61034,-0.23438 0.92285,-0.43946 0.31249,-0.20507 0.63964,-0.46874 0.98145,-0.79101 0.34179,-0.33203 0.70311,-0.7373 1.08398,-1.21582 l 0,-5.27344"
         style="font-size:30px;font-variant:normal;font-stretch:normal;fill:#ffffff;font-family:Calibri;-inkscape-font-specification:Calibri"
         id="path3774"
         inkscape:connector-curvature="0" />
      <path
         d="m 371.70421,593.8465 c -2e-5,1.15235 -0.12697,2.1875 -0.38086,3.10547 -0.24416,0.91797 -0.61037,1.69922 -1.09863,2.34375 -0.47853,0.63476 -1.07423,1.12793 -1.78711,1.47949 -0.7129,0.34179 -1.52833,0.51269 -2.44629,0.51269 -0.39064,0 -0.75196,-0.0391 -1.08399,-0.11718 -0.33204,-0.0781 -0.65918,-0.2002 -0.98144,-0.36622 -0.31251,-0.16601 -0.62501,-0.37597 -0.9375,-0.62988 -0.31251,-0.2539 -0.64454,-0.55175 -0.9961,-0.89355 l 0,6.59179 c 0,0.0781 -0.0195,0.14648 -0.0586,0.20508 -0.0391,0.0586 -0.10254,0.10742 -0.19043,0.14649 -0.0879,0.039 -0.20996,0.0684 -0.36621,0.0879 -0.15625,0.0195 -0.35645,0.0293 -0.60059,0.0293 -0.23437,0 -0.42969,-0.01 -0.58593,-0.0293 -0.15626,-0.0195 -0.28321,-0.0488 -0.38086,-0.0879 -0.0879,-0.0391 -0.15137,-0.0879 -0.19043,-0.14649 -0.0293,-0.0586 -0.0439,-0.12696 -0.0439,-0.20508 l 0,-18.41308 c 0,-0.0879 0.0146,-0.15624 0.0439,-0.20508 0.0293,-0.0586 0.0879,-0.10741 0.17578,-0.14648 0.0879,-0.039 0.20019,-0.0635 0.33691,-0.0732 0.13672,-0.0195 0.30273,-0.0293 0.49805,-0.0293 0.20507,10e-6 0.37109,0.01 0.49805,0.0293 0.13671,0.01 0.24902,0.0342 0.33691,0.0732 0.0879,0.0391 0.14648,0.0879 0.17578,0.14648 0.0391,0.0488 0.0586,0.1172 0.0586,0.20508 l 0,1.77246 c 0.40038,-0.41015 0.78612,-0.76659 1.15722,-1.06934 0.37109,-0.30272 0.74218,-0.55174 1.11328,-0.74707 0.38086,-0.20506 0.7666,-0.35643 1.15723,-0.4541 0.40038,-0.10741 0.8203,-0.16112 1.25977,-0.16113 0.95702,10e-6 1.77245,0.18556 2.44628,0.55664 0.67382,0.37111 1.2207,0.87892 1.64063,1.52344 0.42967,0.64454 0.74217,1.39649 0.9375,2.25586 0.1953,0.84961 0.29295,1.75293 0.29297,2.70996 m -2.54883,0.27832 c -1e-5,-0.67382 -0.0537,-1.32324 -0.16113,-1.94825 -0.0977,-0.63475 -0.27345,-1.19627 -0.52735,-1.68457 -0.24415,-0.48827 -0.57618,-0.87889 -0.99609,-1.17187 -0.41993,-0.29296 -0.94239,-0.43944 -1.56738,-0.43945 -0.31251,10e-6 -0.62013,0.0488 -0.92285,0.14648 -0.30275,0.0879 -0.61036,0.23439 -0.92286,0.43945 -0.3125,0.19533 -0.63965,0.459 -0.98144,0.79102 -0.3418,0.32228 -0.70313,0.72267 -1.08399,1.20117 l 0,5.24414 c 0.66406,0.81055 1.29394,1.43067 1.88965,1.86035 0.5957,0.42969 1.2207,0.64454 1.875,0.64453 0.60546,10e-6 1.12304,-0.14648 1.55274,-0.43945 0.43944,-0.29296 0.791,-0.68359 1.05468,-1.17187 0.27343,-0.48828 0.47363,-1.03516 0.60059,-1.64063 0.12694,-0.60546 0.19042,-1.21581 0.19043,-1.83105"
         style="font-size:30px;font-variant:normal;font-stretch:normal;fill:#ffffff;font-family:Calibri;-inkscape-font-specification:Calibri"
         id="path3776"
         inkscape:connector-curvature="0" />
      <path
         d="m 386.58702,593.48029 c -10e-6,0.38086 -0.0977,0.6543 -0.29297,0.82031 -0.18556,0.15625 -0.4004,0.23438 -0.64453,0.23437 l -8.64258,0 c 0,0.73243 0.0732,1.39161 0.21973,1.97754 0.14648,0.58594 0.39062,1.08887 0.73242,1.50879 0.34179,0.41993 0.78613,0.74219 1.33301,0.9668 0.54687,0.22461 1.21581,0.33691 2.00683,0.33691 0.625,0 1.18164,-0.0488 1.66993,-0.14648 0.48827,-0.10742 0.90819,-0.22461 1.25976,-0.35156 0.36132,-0.12696 0.65429,-0.23926 0.87891,-0.33692 0.23436,-0.10742 0.41014,-0.16113 0.52734,-0.16113 0.0684,0 0.12694,0.0195 0.17578,0.0586 0.0586,0.0293 0.10253,0.0781 0.13184,0.14649 0.0293,0.0684 0.0488,0.16601 0.0586,0.29297 0.0195,0.11718 0.0293,0.26367 0.0293,0.43945 -1e-5,0.12695 -0.005,0.23926 -0.0146,0.33691 -0.01,0.0879 -0.0244,0.1709 -0.0439,0.24903 -0.01,0.0684 -0.0342,0.13183 -0.0732,0.19043 -0.0293,0.0586 -0.0733,0.11718 -0.13183,0.17578 -0.0488,0.0488 -0.20509,0.13672 -0.46875,0.26367 -0.26369,0.11719 -0.60548,0.23437 -1.02539,0.35156 -0.41993,0.11719 -0.90822,0.21973 -1.46485,0.30762 -0.54688,0.0976 -1.13282,0.14648 -1.75781,0.14648 -1.08399,0 -2.03614,-0.15136 -2.85644,-0.4541 -0.81055,-0.30273 -1.49415,-0.75195 -2.05079,-1.34765 -0.55664,-0.59571 -0.97656,-1.34278 -1.25976,-2.24122 -0.28321,-0.89843 -0.42481,-1.94335 -0.42481,-3.13476 0,-1.13281 0.14649,-2.14843 0.43946,-3.04688 0.29296,-0.90819 0.71289,-1.67479 1.25976,-2.2998 0.55664,-0.63475 1.22559,-1.11815 2.00684,-1.4502 0.78124,-0.34178 1.65527,-0.51268 2.62207,-0.51269 1.03515,10e-6 1.91405,0.16603 2.63672,0.49805 0.73241,0.33204 1.33299,0.78126 1.80176,1.34765 0.46873,0.55665 0.81053,1.21583 1.02539,1.97754 0.22459,0.75196 0.3369,1.55763 0.33691,2.41699 l 0,0.43946 m -2.43164,-0.71778 c 0.0293,-1.26952 -0.25392,-2.26561 -0.84961,-2.98828 -0.58595,-0.72264 -1.45997,-1.08397 -2.62207,-1.08398 -0.59571,1e-5 -1.11817,0.11231 -1.56738,0.33691 -0.44923,0.22462 -0.8252,0.52247 -1.12793,0.89356 -0.30274,0.3711 -0.53712,0.80567 -0.70313,1.30371 -0.16602,0.48829 -0.25879,1.00098 -0.27832,1.53808 l 7.14844,0"
         style="font-size:30px;font-variant:normal;font-stretch:normal;fill:#ffffff;font-family:Calibri;-inkscape-font-specification:Calibri"
         id="path3778"
         inkscape:connector-curvature="0" />
      <path
         d="m 397.98351,588.32404 c -1e-5,0.21485 -0.005,0.39552 -0.0147,0.54199 -0.01,0.14649 -0.0293,0.26368 -0.0586,0.35156 -0.0293,0.0781 -0.0684,0.14161 -0.11718,0.19043 -0.0391,0.0391 -0.0977,0.0586 -0.17579,0.0586 -0.0781,2e-5 -0.17579,-0.0195 -0.29296,-0.0586 -0.10744,-0.0488 -0.23439,-0.0928 -0.38086,-0.13184 -0.13673,-0.0488 -0.29298,-0.0928 -0.46875,-0.13183 -0.17579,-0.039 -0.36622,-0.0586 -0.57129,-0.0586 -0.24415,2e-5 -0.48341,0.0488 -0.71778,0.14649 -0.23438,0.0977 -0.4834,0.2588 -0.74707,0.4834 -0.25391,0.22462 -0.52246,0.52247 -0.80566,0.89355 -0.28321,0.37111 -0.59571,0.82521 -0.9375,1.36231 l 0,8.67187 c -1e-5,0.0781 -0.0195,0.14649 -0.0586,0.20508 -0.0391,0.0488 -0.10255,0.0928 -0.19043,0.13184 -0.0879,0.0391 -0.20997,0.0684 -0.36622,0.0879 -0.15625,0.0195 -0.35644,0.0293 -0.60058,0.0293 -0.23438,0 -0.42969,-0.01 -0.58594,-0.0293 -0.15625,-0.0195 -0.2832,-0.0488 -0.38086,-0.0879 -0.0879,-0.0391 -0.15137,-0.083 -0.19043,-0.13184 -0.0293,-0.0586 -0.0439,-0.12695 -0.0439,-0.20508 l 0,-13.18359 c -1e-5,-0.0781 0.0146,-0.14159 0.0439,-0.19043 0.0293,-0.0586 0.0879,-0.10741 0.17578,-0.14649 0.0879,-0.0488 0.2002,-0.0781 0.33692,-0.0879 0.13671,-0.0195 0.31738,-0.0293 0.54199,-0.0293 0.21484,10e-6 0.39062,0.01 0.52734,0.0293 0.14648,0.01 0.25879,0.0391 0.33692,0.0879 0.0781,0.0391 0.13183,0.0879 0.16113,0.14649 0.0391,0.0488 0.0586,0.11232 0.0586,0.19043 l 0,1.91894 c 0.36133,-0.52733 0.69824,-0.95702 1.01075,-1.28906 0.32226,-0.33202 0.62499,-0.59081 0.9082,-0.77637 0.2832,-0.1953 0.56152,-0.32713 0.83496,-0.3955 0.2832,-0.0781 0.5664,-0.11718 0.84961,-0.11719 0.12694,10e-6 0.26855,0.01 0.4248,0.0293 0.16601,0.01 0.33691,0.0342 0.5127,0.0732 0.17577,0.0391 0.33202,0.083 0.46875,0.13183 0.14647,0.0488 0.24901,0.0977 0.30762,0.14649 0.0586,0.0488 0.0976,0.0977 0.11718,0.14648 0.0195,0.0391 0.0342,0.0928 0.0439,0.16113 0.0195,0.0684 0.0293,0.17092 0.0293,0.30762 0.01,0.12697 0.0146,0.30275 0.0147,0.52735"
         style="font-size:30px;font-variant:normal;font-stretch:normal;fill:#ffffff;font-family:Calibri;-inkscape-font-specification:Calibri"
         id="path3780"
         inkscape:connector-curvature="0" />
      <path
         d="m 408.51573,597.0545 c -1e-5,0.67384 -0.12696,1.27442 -0.38086,1.80176 -0.24415,0.52735 -0.59571,0.97168 -1.05469,1.33301 -0.45899,0.36133 -1.00586,0.63477 -1.64062,0.82031 -0.63477,0.18555 -1.33301,0.27832 -2.09473,0.27832 -0.46875,0 -0.91797,-0.0391 -1.34765,-0.11718 -0.41993,-0.0684 -0.80079,-0.15625 -1.14258,-0.26368 -0.33203,-0.11718 -0.61524,-0.23437 -0.84961,-0.35156 -0.23438,-0.12695 -0.40528,-0.23926 -0.5127,-0.33691 -0.10742,-0.0977 -0.18554,-0.23438 -0.23437,-0.41016 -0.0488,-0.17578 -0.0732,-0.41504 -0.0732,-0.71777 0,-0.18555 0.01,-0.3418 0.0293,-0.46875 0.0195,-0.12695 0.0439,-0.22949 0.0732,-0.30762 0.0293,-0.0781 0.0684,-0.13183 0.11718,-0.16113 0.0586,-0.0391 0.12207,-0.0586 0.19043,-0.0586 0.10742,10e-6 0.26367,0.0684 0.46875,0.20508 0.21484,0.12696 0.47363,0.26856 0.77637,0.42481 0.3125,0.15625 0.67871,0.30273 1.09863,0.43945 0.41992,0.12695 0.90332,0.19043 1.4502,0.19043 0.41015,0 0.78124,-0.0439 1.11328,-0.13184 0.33202,-0.0879 0.62011,-0.21484 0.86426,-0.38086 0.24413,-0.17578 0.42968,-0.3955 0.55664,-0.65918 0.13671,-0.26366 0.20507,-0.57616 0.20508,-0.9375 -10e-6,-0.37109 -0.0977,-0.68359 -0.29297,-0.9375 -0.18556,-0.2539 -0.43458,-0.47851 -0.74707,-0.67382 -0.31251,-0.19531 -0.66407,-0.36621 -1.05469,-0.5127 -0.39063,-0.15624 -0.7959,-0.31738 -1.21582,-0.4834 -0.41016,-0.16601 -0.81543,-0.35155 -1.21582,-0.55664 -0.39063,-0.21484 -0.74219,-0.47362 -1.05469,-0.77637 -0.3125,-0.30272 -0.56641,-0.66405 -0.76172,-1.08398 -0.18555,-0.41991 -0.27832,-0.92284 -0.27832,-1.50879 0,-0.51757 0.0977,-1.01073 0.29297,-1.47949 0.20508,-0.4785 0.50781,-0.89354 0.9082,-1.24512 0.40039,-0.36131 0.89844,-0.6494 1.49415,-0.86426 0.60546,-0.21483 1.30858,-0.32225 2.10937,-0.32226 0.35156,10e-6 0.70312,0.0293 1.05469,0.0879 0.35155,0.0586 0.66894,0.13185 0.95215,0.21973 0.28319,0.0879 0.52245,0.18556 0.71777,0.29296 0.20507,0.0977 0.35644,0.18556 0.4541,0.26368 0.10741,0.0781 0.17577,0.14649 0.20508,0.20507 0.039,0.0586 0.0635,0.12697 0.0732,0.20508 0.0195,0.0684 0.0342,0.15626 0.0439,0.26367 0.0195,0.10744 0.0293,0.23927 0.0293,0.39551 -10e-6,0.16603 -0.01,0.31251 -0.0293,0.43946 -0.01,0.11719 -0.0342,0.21485 -0.0733,0.29296 -0.0293,0.0781 -0.0684,0.13673 -0.11718,0.17579 -0.0488,0.0293 -0.10255,0.0439 -0.16114,0.0439 -0.0879,10e-6 -0.21485,-0.0537 -0.38086,-0.16113 -0.16602,-0.10741 -0.38086,-0.21972 -0.64453,-0.33692 -0.26368,-0.12694 -0.57618,-0.24413 -0.9375,-0.35156 -0.35157,-0.10741 -0.75684,-0.16112 -1.21582,-0.16113 -0.41016,10e-6 -0.77149,0.0488 -1.08398,0.14648 -0.31251,0.0879 -0.57129,0.21974 -0.77637,0.39551 -0.19531,0.16603 -0.34668,0.36622 -0.4541,0.60059 -0.0977,0.23438 -0.14649,0.48829 -0.14648,0.76172 -10e-6,0.38086 0.0977,0.70313 0.29296,0.96679 0.19531,0.25392 0.44922,0.47853 0.76172,0.67383 0.3125,0.19532 0.66894,0.3711 1.06934,0.52734 0.40038,0.15626 0.80566,0.31739 1.21582,0.4834 0.41991,0.16603 0.83007,0.35157 1.23047,0.55664 0.41015,0.20509 0.77147,0.45411 1.08398,0.74707 0.31249,0.29298 0.56152,0.64454 0.74707,1.05469 0.19531,0.41016 0.29296,0.89844 0.29297,1.46484"
         style="font-size:30px;font-variant:normal;font-stretch:normal;fill:#ffffff;font-family:Calibri;-inkscape-font-specification:Calibri"
         id="path3782"
         inkscape:connector-curvature="0" />
      <path
         d="m 424.21886,593.90509 c -2e-5,1.07423 -0.14162,2.06544 -0.42481,2.97363 -0.28321,0.89844 -0.70802,1.67481 -1.27441,2.3291 -0.55665,0.6543 -1.25978,1.167 -2.10938,1.53809 -0.83985,0.36133 -1.81641,0.54199 -2.92968,0.54199 -1.084,0 -2.03126,-0.16113 -2.8418,-0.4834 -0.80079,-0.32226 -1.46973,-0.79101 -2.00684,-1.40625 -0.53711,-0.61523 -0.9375,-1.3623 -1.20117,-2.24121 -0.26367,-0.8789 -0.39551,-1.87499 -0.39551,-2.98828 0,-1.07421 0.13672,-2.06054 0.41016,-2.95898 0.2832,-0.90819 0.70312,-1.68944 1.25976,-2.34375 0.56641,-0.65429 1.26953,-1.1621 2.10938,-1.52344 0.83984,-0.36131 1.82128,-0.54198 2.94434,-0.54199 1.08397,10e-6 2.02635,0.16115 2.82714,0.4834 0.81054,0.32228 1.48437,0.79103 2.02149,1.40625 0.53709,0.61524 0.93748,1.36231 1.20117,2.24121 0.27342,0.87891 0.41014,1.87012 0.41016,2.97363 m -2.54883,0.16113 c -10e-6,-0.71288 -0.0684,-1.38671 -0.20508,-2.02148 -0.12696,-0.63476 -0.34181,-1.1914 -0.64453,-1.66992 -0.30275,-0.47851 -0.7129,-0.85448 -1.23047,-1.12793 -0.51759,-0.28319 -1.16212,-0.4248 -1.93359,-0.42481 -0.7129,10e-6 -1.32813,0.12697 -1.84571,0.38086 -0.50781,0.25392 -0.92774,0.61525 -1.25976,1.08399 -0.33204,0.45899 -0.58106,1.00587 -0.74707,1.64062 -0.15626,0.63478 -0.23438,1.32813 -0.23438,2.08008 0,0.72266 0.0635,1.40137 0.19043,2.03613 0.13672,0.63477 0.35644,1.19141 0.65918,1.66992 0.3125,0.46876 0.72754,0.84473 1.24512,1.12793 0.51757,0.27344 1.1621,0.41016 1.93359,0.41016 0.70312,0 1.31347,-0.12695 1.83106,-0.38086 0.51757,-0.2539 0.94237,-0.61035 1.27441,-1.06934 0.33202,-0.45898 0.57616,-1.00585 0.73242,-1.64062 0.15624,-0.63476 0.23437,-1.333 0.23438,-2.09473"
         style="font-size:30px;font-variant:normal;font-stretch:normal;fill:#ffffff;font-family:Calibri;-inkscape-font-specification:Calibri"
         id="path3784"
         inkscape:connector-curvature="0" />
      <path
         d="m 439.13097,600.64337 c -2e-5,0.0781 -0.0195,0.14649 -0.0586,0.20508 -0.0391,0.0488 -0.10255,0.0928 -0.19043,0.13184 -0.0879,0.0391 -0.20997,0.0684 -0.36621,0.0879 -0.15626,0.0195 -0.35157,0.0293 -0.58594,0.0293 -0.24415,0 -0.44434,-0.01 -0.60058,-0.0293 -0.15626,-0.0195 -0.27833,-0.0488 -0.36621,-0.0879 -0.0879,-0.0391 -0.15138,-0.083 -0.19043,-0.13184 -0.0391,-0.0586 -0.0586,-0.12695 -0.0586,-0.20508 l 0,-7.71972 c -1e-5,-0.75195 -0.0586,-1.35742 -0.17578,-1.81641 -0.1172,-0.45898 -0.28809,-0.85448 -0.51269,-1.18652 -0.22462,-0.33202 -0.51759,-0.58593 -0.87891,-0.76172 -0.35157,-0.17577 -0.76173,-0.26366 -1.23047,-0.26368 -0.60547,2e-5 -1.21094,0.21486 -1.8164,0.64454 -0.60548,0.42969 -1.24024,1.05958 -1.9043,1.88964 l 0,9.21387 c -1e-5,0.0781 -0.0195,0.14649 -0.0586,0.20508 -0.0391,0.0488 -0.10255,0.0928 -0.19043,0.13184 -0.0879,0.0391 -0.20997,0.0684 -0.36622,0.0879 -0.15625,0.0195 -0.35644,0.0293 -0.60058,0.0293 -0.23438,0 -0.42969,-0.01 -0.58594,-0.0293 -0.15625,-0.0195 -0.2832,-0.0488 -0.38086,-0.0879 -0.0879,-0.0391 -0.15137,-0.083 -0.19043,-0.13184 -0.0293,-0.0586 -0.0439,-0.12695 -0.0439,-0.20508 l 0,-13.18359 c -10e-6,-0.0781 0.0146,-0.14159 0.0439,-0.19043 0.0293,-0.0586 0.0879,-0.10741 0.17578,-0.14649 0.0879,-0.0488 0.2002,-0.0781 0.33692,-0.0879 0.13671,-0.0195 0.31738,-0.0293 0.54199,-0.0293 0.21484,10e-6 0.39062,0.01 0.52734,0.0293 0.14648,0.01 0.25879,0.0391 0.33692,0.0879 0.0781,0.0391 0.13183,0.0879 0.16113,0.14649 0.0391,0.0488 0.0586,0.11232 0.0586,0.19043 l 0,1.74316 c 0.74219,-0.83006 1.47949,-1.43553 2.21192,-1.8164 0.74218,-0.39062 1.48925,-0.58593 2.24121,-0.58594 0.8789,10e-6 1.6162,0.15138 2.21191,0.4541 0.60546,0.29298 1.09374,0.68849 1.46485,1.18652 0.37108,0.49806 0.63475,1.084 0.79101,1.75782 0.166,0.66407 0.24901,1.46485 0.24903,2.40234 l 0,8.04199"
         style="font-size:30px;font-variant:normal;font-stretch:normal;fill:#ffffff;font-family:Calibri;-inkscape-font-specification:Calibri"
         id="path3786"
         inkscape:connector-curvature="0" />
      <path
         d="m 453.47179,600.65802 c -2e-5,0.11719 -0.0391,0.20508 -0.11719,0.26367 -0.0781,0.0586 -0.18556,0.10254 -0.32227,0.13184 -0.13673,0.0293 -0.33692,0.0439 -0.60058,0.0439 -0.25392,0 -0.459,-0.0147 -0.61524,-0.0439 -0.14649,-0.0293 -0.25391,-0.0732 -0.32226,-0.13184 -0.0684,-0.0586 -0.10255,-0.14648 -0.10254,-0.26367 l 0,-1.31836 c -0.57618,0.61524 -1.22071,1.09375 -1.9336,1.43555 -0.70313,0.34179 -1.4502,0.51269 -2.24121,0.51269 -0.69336,0 -1.32324,-0.0928 -1.88964,-0.27832 -0.55665,-0.17578 -1.03516,-0.43457 -1.43555,-0.77636 -0.39063,-0.3418 -0.69825,-0.76172 -0.92285,-1.25977 -0.21485,-0.49804 -0.32227,-1.06445 -0.32227,-1.69922 0,-0.74218 0.15137,-1.38671 0.4541,-1.93359 0.30274,-0.54687 0.7373,-1.00097 1.30371,-1.36231 0.56641,-0.36132 1.25976,-0.62987 2.08008,-0.80566 0.82031,-0.18554 1.74316,-0.27831 2.76856,-0.27832 l 1.8164,0 0,-1.02539 c -10e-6,-0.50781 -0.0537,-0.95702 -0.16113,-1.34766 -0.10743,-0.39061 -0.28321,-0.71288 -0.52734,-0.9668 -0.23439,-0.26366 -0.542,-0.45897 -0.92286,-0.58593 -0.38086,-0.13671 -0.84961,-0.20507 -1.40625,-0.20508 -0.5957,10e-6 -1.13281,0.0732 -1.61132,0.21973 -0.46876,0.13673 -0.8838,0.29298 -1.24512,0.46875 -0.35157,0.16602 -0.64942,0.32227 -0.89356,0.46875 -0.23437,0.13673 -0.41015,0.20508 -0.52734,0.20507 -0.0781,10e-6 -0.14649,-0.0195 -0.20508,-0.0586 -0.0586,-0.039 -0.1123,-0.0976 -0.16113,-0.17578 -0.0391,-0.0781 -0.0684,-0.17577 -0.0879,-0.29297 -0.0195,-0.12694 -0.0293,-0.26366 -0.0293,-0.41016 0,-0.24413 0.0147,-0.43455 0.0439,-0.57129 0.0391,-0.14647 0.12207,-0.28319 0.24902,-0.41015 0.13672,-0.12694 0.36621,-0.27343 0.68848,-0.43945 0.32226,-0.17577 0.69335,-0.33202 1.11328,-0.46875 0.41992,-0.14648 0.8789,-0.26366 1.37695,-0.35157 0.49804,-0.0976 1.00097,-0.14647 1.50879,-0.14648 0.94726,10e-6 1.75292,0.10743 2.41699,0.32226 0.66406,0.21486 1.20116,0.53224 1.61133,0.95215 0.41015,0.41017 0.708,0.92287 0.89356,1.53809 0.18553,0.61524 0.2783,1.33302 0.27832,2.15332 l 0,8.8916 m -2.40235,-6.02051 -2.06543,0 c -0.66407,10e-6 -1.24024,0.0586 -1.72851,0.17578 -0.48829,0.10743 -0.89356,0.27345 -1.21582,0.49805 -0.32227,0.21485 -0.56153,0.47852 -0.71778,0.79102 -0.14648,0.30273 -0.21973,0.6543 -0.21972,1.05468 -10e-6,0.6836 0.21484,1.23047 0.64453,1.64063 0.43945,0.40039 1.0498,0.60059 1.83105,0.60058 0.63476,10e-6 1.2207,-0.16113 1.75782,-0.48339 0.54686,-0.32227 1.11815,-0.81543 1.71386,-1.4795 l 0,-2.79785"
         style="font-size:30px;font-variant:normal;font-stretch:normal;fill:#ffffff;font-family:Calibri;-inkscape-font-specification:Calibri"
         id="path3788"
         inkscape:connector-curvature="0" />
      <path
         d="m 474.62413,600.65802 c -10e-6,0.11719 -0.0391,0.20508 -0.11719,0.26367 -0.0781,0.0586 -0.18556,0.10254 -0.32226,0.13184 -0.13673,0.0293 -0.33693,0.0439 -0.60059,0.0439 -0.25392,0 -0.45899,-0.0147 -0.61523,-0.0439 -0.1465,-0.0293 -0.25392,-0.0732 -0.32227,-0.13184 -0.0684,-0.0586 -0.10255,-0.14648 -0.10254,-0.26367 l 0,-1.31836 c -0.57618,0.61524 -1.22071,1.09375 -1.93359,1.43555 -0.70313,0.34179 -1.4502,0.51269 -2.24121,0.51269 -0.69337,0 -1.32325,-0.0928 -1.88965,-0.27832 -0.55665,-0.17578 -1.03516,-0.43457 -1.43555,-0.77636 -0.39063,-0.3418 -0.69824,-0.76172 -0.92285,-1.25977 -0.21484,-0.49804 -0.32227,-1.06445 -0.32227,-1.69922 0,-0.74218 0.15137,-1.38671 0.45411,-1.93359 0.30273,-0.54687 0.7373,-1.00097 1.30371,-1.36231 0.5664,-0.36132 1.25976,-0.62987 2.08008,-0.80566 0.8203,-0.18554 1.74315,-0.27831 2.76855,-0.27832 l 1.81641,0 0,-1.02539 c -10e-6,-0.50781 -0.0537,-0.95702 -0.16114,-1.34766 -0.10743,-0.39061 -0.28321,-0.71288 -0.52734,-0.9668 -0.23438,-0.26366 -0.542,-0.45897 -0.92285,-0.58593 -0.38087,-0.13671 -0.84962,-0.20507 -1.40625,-0.20508 -0.59571,10e-6 -1.13282,0.0732 -1.61133,0.21973 -0.46875,0.13673 -0.88379,0.29298 -1.24512,0.46875 -0.35156,0.16602 -0.64941,0.32227 -0.89355,0.46875 -0.23438,0.13673 -0.41016,0.20508 -0.52735,0.20507 -0.0781,10e-6 -0.14648,-0.0195 -0.20507,-0.0586 -0.0586,-0.039 -0.11231,-0.0976 -0.16114,-0.17578 -0.0391,-0.0781 -0.0684,-0.17577 -0.0879,-0.29297 -0.0195,-0.12694 -0.0293,-0.26366 -0.0293,-0.41016 -10e-6,-0.24413 0.0146,-0.43455 0.0439,-0.57129 0.0391,-0.14647 0.12207,-0.28319 0.24902,-0.41015 0.13672,-0.12694 0.36621,-0.27343 0.68848,-0.43945 0.32226,-0.17577 0.69336,-0.33202 1.11328,-0.46875 0.41992,-0.14648 0.8789,-0.26366 1.37696,-0.35157 0.49804,-0.0976 1.00097,-0.14647 1.50878,-0.14648 0.94726,10e-6 1.75293,0.10743 2.417,0.32226 0.66405,0.21486 1.20116,0.53224 1.61133,0.95215 0.41014,0.41017 0.70799,0.92287 0.89355,1.53809 0.18553,0.61524 0.27831,1.33302 0.27832,2.15332 l 0,8.8916 m -2.40234,-6.02051 -2.06543,0 c -0.66407,10e-6 -1.24024,0.0586 -1.72852,0.17578 -0.48829,0.10743 -0.89356,0.27345 -1.21582,0.49805 -0.32227,0.21485 -0.56153,0.47852 -0.71777,0.79102 -0.14649,0.30273 -0.21973,0.6543 -0.21973,1.05468 0,0.6836 0.21484,1.23047 0.64453,1.64063 0.43945,0.40039 1.0498,0.60059 1.83106,0.60058 0.63476,10e-6 1.22069,-0.16113 1.75781,-0.48339 0.54687,-0.32227 1.11815,-0.81543 1.71387,-1.4795 l 0,-2.79785"
         style="font-size:30px;font-variant:normal;font-stretch:normal;fill:#ffffff;font-family:Calibri;-inkscape-font-specification:Calibri"
         id="path3790"
         inkscape:connector-curvature="0" />
      <path
         d="m 497.97374,593.8465 c -1e-5,1.15235 -0.12697,2.1875 -0.38086,3.10547 -0.24415,0.91797 -0.61036,1.69922 -1.09863,2.34375 -0.47853,0.63476 -1.07423,1.12793 -1.78711,1.47949 -0.7129,0.34179 -1.52833,0.51269 -2.44629,0.51269 -0.39063,0 -0.75196,-0.0391 -1.08399,-0.11718 -0.33203,-0.0781 -0.65918,-0.2002 -0.98144,-0.36622 -0.31251,-0.16601 -0.62501,-0.37597 -0.9375,-0.62988 -0.31251,-0.2539 -0.64454,-0.55175 -0.99609,-0.89355 l 0,6.59179 c -10e-6,0.0781 -0.0195,0.14648 -0.0586,0.20508 -0.0391,0.0586 -0.10254,0.10742 -0.19043,0.14649 -0.0879,0.039 -0.20996,0.0684 -0.36621,0.0879 -0.15625,0.0195 -0.35645,0.0293 -0.60058,0.0293 -0.23438,0 -0.4297,-0.01 -0.58594,-0.0293 -0.15625,-0.0195 -0.28321,-0.0488 -0.38086,-0.0879 -0.0879,-0.0391 -0.15137,-0.0879 -0.19043,-0.14649 -0.0293,-0.0586 -0.0439,-0.12696 -0.0439,-0.20508 l 0,-18.41308 c 0,-0.0879 0.0147,-0.15624 0.0439,-0.20508 0.0293,-0.0586 0.0879,-0.10741 0.17578,-0.14648 0.0879,-0.039 0.20019,-0.0635 0.33691,-0.0732 0.13672,-0.0195 0.30274,-0.0293 0.49805,-0.0293 0.20508,10e-6 0.37109,0.01 0.49805,0.0293 0.13671,0.01 0.24902,0.0342 0.33691,0.0732 0.0879,0.0391 0.14648,0.0879 0.17578,0.14648 0.0391,0.0488 0.0586,0.1172 0.0586,0.20508 l 0,1.77246 c 0.40038,-0.41015 0.78612,-0.76659 1.15722,-1.06934 0.37109,-0.30272 0.74218,-0.55174 1.11328,-0.74707 0.38086,-0.20506 0.7666,-0.35643 1.15723,-0.4541 0.40038,-0.10741 0.82031,-0.16112 1.25977,-0.16113 0.95702,10e-6 1.77245,0.18556 2.44629,0.55664 0.67381,0.37111 1.22069,0.87892 1.64062,1.52344 0.42967,0.64454 0.74217,1.39649 0.9375,2.25586 0.1953,0.84961 0.29296,1.75293 0.29297,2.70996 m -2.54883,0.27832 c -1e-5,-0.67382 -0.0537,-1.32324 -0.16113,-1.94825 -0.0977,-0.63475 -0.27345,-1.19627 -0.52735,-1.68457 -0.24415,-0.48827 -0.57618,-0.87889 -0.99609,-1.17187 -0.41993,-0.29296 -0.94239,-0.43944 -1.56738,-0.43945 -0.31251,10e-6 -0.62013,0.0488 -0.92285,0.14648 -0.30274,0.0879 -0.61036,0.23439 -0.92285,0.43945 -0.31251,0.19533 -0.63966,0.459 -0.98145,0.79102 -0.3418,0.32228 -0.70313,0.72267 -1.08398,1.20117 l 0,5.24414 c 0.66405,0.81055 1.29393,1.43067 1.88964,1.86035 0.5957,0.42969 1.2207,0.64454 1.875,0.64453 0.60546,10e-6 1.12304,-0.14648 1.55274,-0.43945 0.43944,-0.29296 0.791,-0.68359 1.05469,-1.17187 0.27342,-0.48828 0.47362,-1.03516 0.60058,-1.64063 0.12694,-0.60546 0.19042,-1.21581 0.19043,-1.83105"
         style="font-size:30px;font-variant:normal;font-stretch:normal;fill:#ffffff;font-family:Calibri;-inkscape-font-specification:Calibri"
         id="path3792"
         inkscape:connector-curvature="0" />
      <path
         d="m 512.85655,593.48029 c -10e-6,0.38086 -0.0977,0.6543 -0.29297,0.82031 -0.18556,0.15625 -0.4004,0.23438 -0.64453,0.23437 l -8.64258,0 c 0,0.73243 0.0732,1.39161 0.21973,1.97754 0.14648,0.58594 0.39062,1.08887 0.73242,1.50879 0.34179,0.41993 0.78613,0.74219 1.33301,0.9668 0.54687,0.22461 1.21581,0.33691 2.00684,0.33691 0.62499,0 1.18163,-0.0488 1.66992,-0.14648 0.48827,-0.10742 0.90819,-0.22461 1.25976,-0.35156 0.36132,-0.12696 0.65429,-0.23926 0.87891,-0.33692 0.23436,-0.10742 0.41014,-0.16113 0.52734,-0.16113 0.0684,0 0.12694,0.0195 0.17578,0.0586 0.0586,0.0293 0.10253,0.0781 0.13184,0.14649 0.0293,0.0684 0.0488,0.16601 0.0586,0.29297 0.0195,0.11718 0.0293,0.26367 0.0293,0.43945 -1e-5,0.12695 -0.005,0.23926 -0.0146,0.33691 -0.01,0.0879 -0.0244,0.1709 -0.0439,0.24903 -0.01,0.0684 -0.0342,0.13183 -0.0732,0.19043 -0.0293,0.0586 -0.0733,0.11718 -0.13184,0.17578 -0.0488,0.0488 -0.20509,0.13672 -0.46875,0.26367 -0.26368,0.11719 -0.60548,0.23437 -1.02539,0.35156 -0.41993,0.11719 -0.90821,0.21973 -1.46484,0.30762 -0.54689,0.0976 -1.13283,0.14648 -1.75782,0.14648 -1.08399,0 -2.03614,-0.15136 -2.85644,-0.4541 -0.81055,-0.30273 -1.49415,-0.75195 -2.05078,-1.34765 -0.55665,-0.59571 -0.97657,-1.34278 -1.25977,-2.24122 -0.2832,-0.89843 -0.42481,-1.94335 -0.4248,-3.13476 -1e-5,-1.13281 0.14648,-2.14843 0.43945,-3.04688 0.29297,-0.90819 0.71289,-1.67479 1.25976,-2.2998 0.55664,-0.63475 1.22559,-1.11815 2.00684,-1.4502 0.78124,-0.34178 1.65527,-0.51268 2.62207,-0.51269 1.03515,10e-6 1.91405,0.16603 2.63672,0.49805 0.73241,0.33204 1.333,0.78126 1.80176,1.34765 0.46873,0.55665 0.81053,1.21583 1.02539,1.97754 0.22459,0.75196 0.3369,1.55763 0.33691,2.41699 l 0,0.43946 m -2.43164,-0.71778 c 0.0293,-1.26952 -0.25392,-2.26561 -0.84961,-2.98828 -0.58595,-0.72264 -1.45997,-1.08397 -2.62207,-1.08398 -0.59571,1e-5 -1.11817,0.11231 -1.56738,0.33691 -0.44923,0.22462 -0.8252,0.52247 -1.12793,0.89356 -0.30274,0.3711 -0.53711,0.80567 -0.70313,1.30371 -0.16602,0.48829 -0.25879,1.00098 -0.27832,1.53808 l 7.14844,0"
         style="font-size:30px;font-variant:normal;font-stretch:normal;fill:#ffffff;font-family:Calibri;-inkscape-font-specification:Calibri"
         id="path3794"
         inkscape:connector-curvature="0" />
      <path
         d="m 524.25304,588.32404 c -1e-5,0.21485 -0.005,0.39552 -0.0147,0.54199 -0.01,0.14649 -0.0293,0.26368 -0.0586,0.35156 -0.0293,0.0781 -0.0684,0.14161 -0.11718,0.19043 -0.0391,0.0391 -0.0977,0.0586 -0.17578,0.0586 -0.0781,2e-5 -0.1758,-0.0195 -0.29297,-0.0586 -0.10743,-0.0488 -0.23439,-0.0928 -0.38086,-0.13184 -0.13673,-0.0488 -0.29298,-0.0928 -0.46875,-0.13183 -0.17579,-0.039 -0.36622,-0.0586 -0.57129,-0.0586 -0.24415,2e-5 -0.48341,0.0488 -0.71778,0.14649 -0.23438,0.0977 -0.4834,0.2588 -0.74707,0.4834 -0.25391,0.22462 -0.52246,0.52247 -0.80566,0.89355 -0.28321,0.37111 -0.59571,0.82521 -0.9375,1.36231 l 0,8.67187 c 0,0.0781 -0.0195,0.14649 -0.0586,0.20508 -0.0391,0.0488 -0.10255,0.0928 -0.19043,0.13184 -0.0879,0.0391 -0.20997,0.0684 -0.36621,0.0879 -0.15626,0.0195 -0.35645,0.0293 -0.60059,0.0293 -0.23438,0 -0.42969,-0.01 -0.58594,-0.0293 -0.15625,-0.0195 -0.2832,-0.0488 -0.38086,-0.0879 -0.0879,-0.0391 -0.15137,-0.083 -0.19043,-0.13184 -0.0293,-0.0586 -0.0439,-0.12695 -0.0439,-0.20508 l 0,-13.18359 c 0,-0.0781 0.0146,-0.14159 0.0439,-0.19043 0.0293,-0.0586 0.0879,-0.10741 0.17578,-0.14649 0.0879,-0.0488 0.2002,-0.0781 0.33692,-0.0879 0.13671,-0.0195 0.31738,-0.0293 0.54199,-0.0293 0.21484,10e-6 0.39062,0.01 0.52734,0.0293 0.14649,0.01 0.25879,0.0391 0.33692,0.0879 0.0781,0.0391 0.13183,0.0879 0.16113,0.14649 0.0391,0.0488 0.0586,0.11232 0.0586,0.19043 l 0,1.91894 c 0.36132,-0.52733 0.69823,-0.95702 1.01074,-1.28906 0.32226,-0.33202 0.62499,-0.59081 0.9082,-0.77637 0.2832,-0.1953 0.56152,-0.32713 0.83496,-0.3955 0.2832,-0.0781 0.5664,-0.11718 0.84961,-0.11719 0.12695,10e-6 0.26855,0.01 0.42481,0.0293 0.166,0.01 0.3369,0.0342 0.51269,0.0732 0.17577,0.0391 0.33202,0.083 0.46875,0.13183 0.14648,0.0488 0.24901,0.0977 0.30762,0.14649 0.0586,0.0488 0.0976,0.0977 0.11719,0.14648 0.0195,0.0391 0.0342,0.0928 0.0439,0.16113 0.0195,0.0684 0.0293,0.17092 0.0293,0.30762 0.01,0.12697 0.0146,0.30275 0.0147,0.52735"
         style="font-size:30px;font-variant:normal;font-stretch:normal;fill:#ffffff;font-family:Calibri;-inkscape-font-specification:Calibri"
         id="path3796"
         inkscape:connector-curvature="0" />
      <path
         d="m 534.78526,597.0545 c -10e-6,0.67384 -0.12696,1.27442 -0.38086,1.80176 -0.24415,0.52735 -0.59571,0.97168 -1.05468,1.33301 -0.459,0.36133 -1.00587,0.63477 -1.64063,0.82031 -0.63477,0.18555 -1.33301,0.27832 -2.09473,0.27832 -0.46875,0 -0.91797,-0.0391 -1.34765,-0.11718 -0.41993,-0.0684 -0.80079,-0.15625 -1.14258,-0.26368 -0.33203,-0.11718 -0.61524,-0.23437 -0.84961,-0.35156 -0.23438,-0.12695 -0.40527,-0.23926 -0.51269,-0.33691 -0.10743,-0.0977 -0.18555,-0.23438 -0.23438,-0.41016 -0.0488,-0.17578 -0.0732,-0.41504 -0.0732,-0.71777 0,-0.18555 0.01,-0.3418 0.0293,-0.46875 0.0195,-0.12695 0.0439,-0.22949 0.0732,-0.30762 0.0293,-0.0781 0.0684,-0.13183 0.11718,-0.16113 0.0586,-0.0391 0.12207,-0.0586 0.19043,-0.0586 0.10742,10e-6 0.26367,0.0684 0.46875,0.20508 0.21485,0.12696 0.47363,0.26856 0.77637,0.42481 0.3125,0.15625 0.67871,0.30273 1.09863,0.43945 0.41992,0.12695 0.90332,0.19043 1.4502,0.19043 0.41015,0 0.78124,-0.0439 1.11328,-0.13184 0.33203,-0.0879 0.62011,-0.21484 0.86426,-0.38086 0.24413,-0.17578 0.42968,-0.3955 0.55664,-0.65918 0.13671,-0.26366 0.20507,-0.57616 0.20508,-0.9375 -10e-6,-0.37109 -0.0977,-0.68359 -0.29297,-0.9375 -0.18556,-0.2539 -0.43458,-0.47851 -0.74707,-0.67382 -0.31251,-0.19531 -0.66407,-0.36621 -1.05469,-0.5127 -0.39063,-0.15624 -0.7959,-0.31738 -1.21582,-0.4834 -0.41016,-0.16601 -0.81543,-0.35155 -1.21582,-0.55664 -0.39063,-0.21484 -0.74219,-0.47362 -1.05469,-0.77637 -0.3125,-0.30272 -0.56641,-0.66405 -0.76172,-1.08398 -0.18554,-0.41991 -0.27832,-0.92284 -0.27832,-1.50879 0,-0.51757 0.0977,-1.01073 0.29297,-1.47949 0.20508,-0.4785 0.50781,-0.89354 0.90821,-1.24512 0.40038,-0.36131 0.89843,-0.6494 1.49414,-0.86426 0.60546,-0.21483 1.30858,-0.32225 2.10937,-0.32226 0.35156,10e-6 0.70312,0.0293 1.05469,0.0879 0.35155,0.0586 0.66894,0.13185 0.95215,0.21973 0.28319,0.0879 0.52245,0.18556 0.71777,0.29296 0.20507,0.0977 0.35644,0.18556 0.4541,0.26368 0.10741,0.0781 0.17577,0.14649 0.20508,0.20507 0.039,0.0586 0.0635,0.12697 0.0732,0.20508 0.0195,0.0684 0.0342,0.15626 0.0439,0.26367 0.0195,0.10744 0.0293,0.23927 0.0293,0.39551 0,0.16603 -0.01,0.31251 -0.0293,0.43946 -0.01,0.11719 -0.0342,0.21485 -0.0732,0.29296 -0.0293,0.0781 -0.0684,0.13673 -0.11719,0.17579 -0.0488,0.0293 -0.10255,0.0439 -0.16113,0.0439 -0.0879,10e-6 -0.21486,-0.0537 -0.38086,-0.16113 -0.16603,-0.10741 -0.38087,-0.21972 -0.64454,-0.33692 -0.26368,-0.12694 -0.57617,-0.24413 -0.9375,-0.35156 -0.35156,-0.10741 -0.75684,-0.16112 -1.21582,-0.16113 -0.41016,10e-6 -0.77149,0.0488 -1.08398,0.14648 -0.3125,0.0879 -0.57129,0.21974 -0.77637,0.39551 -0.19531,0.16603 -0.34668,0.36622 -0.4541,0.60059 -0.0977,0.23438 -0.14649,0.48829 -0.14648,0.76172 -10e-6,0.38086 0.0977,0.70313 0.29297,0.96679 0.1953,0.25392 0.44921,0.47853 0.76171,0.67383 0.3125,0.19532 0.66894,0.3711 1.06934,0.52734 0.40038,0.15626 0.80566,0.31739 1.21582,0.4834 0.41992,0.16603 0.83007,0.35157 1.23047,0.55664 0.41015,0.20509 0.77147,0.45411 1.08398,0.74707 0.31249,0.29298 0.56152,0.64454 0.74707,1.05469 0.19531,0.41016 0.29296,0.89844 0.29297,1.46484"
         style="font-size:30px;font-variant:normal;font-stretch:normal;fill:#ffffff;font-family:Calibri;-inkscape-font-specification:Calibri"
         id="path3798"
         inkscape:connector-curvature="0" />
      <path
         d="m 550.48839,593.90509 c -2e-5,1.07423 -0.14162,2.06544 -0.42481,2.97363 -0.28321,0.89844 -0.70802,1.67481 -1.27441,2.3291 -0.55665,0.6543 -1.25978,1.167 -2.10938,1.53809 -0.83985,0.36133 -1.81641,0.54199 -2.92968,0.54199 -1.08399,0 -2.03126,-0.16113 -2.8418,-0.4834 -0.80079,-0.32226 -1.46973,-0.79101 -2.00684,-1.40625 -0.53711,-0.61523 -0.9375,-1.3623 -1.20117,-2.24121 -0.26367,-0.8789 -0.39551,-1.87499 -0.39551,-2.98828 0,-1.07421 0.13672,-2.06054 0.41016,-2.95898 0.2832,-0.90819 0.70312,-1.68944 1.25977,-2.34375 0.5664,-0.65429 1.26952,-1.1621 2.10937,-1.52344 0.83984,-0.36131 1.82128,-0.54198 2.94434,-0.54199 1.08397,10e-6 2.02635,0.16115 2.82715,0.4834 0.81053,0.32228 1.48436,0.79103 2.02148,1.40625 0.5371,0.61524 0.93749,1.36231 1.20117,2.24121 0.27342,0.87891 0.41014,1.87012 0.41016,2.97363 m -2.54883,0.16113 c -10e-6,-0.71288 -0.0684,-1.38671 -0.20508,-2.02148 -0.12696,-0.63476 -0.34181,-1.1914 -0.64453,-1.66992 -0.30274,-0.47851 -0.7129,-0.85448 -1.23047,-1.12793 -0.51759,-0.28319 -1.16212,-0.4248 -1.93359,-0.42481 -0.7129,10e-6 -1.32813,0.12697 -1.84571,0.38086 -0.50781,0.25392 -0.92773,0.61525 -1.25976,1.08399 -0.33204,0.45899 -0.58106,1.00587 -0.74707,1.64062 -0.15625,0.63478 -0.23438,1.32813 -0.23438,2.08008 0,0.72266 0.0635,1.40137 0.19043,2.03613 0.13672,0.63477 0.35644,1.19141 0.65918,1.66992 0.3125,0.46876 0.72754,0.84473 1.24512,1.12793 0.51757,0.27344 1.1621,0.41016 1.93359,0.41016 0.70312,0 1.31347,-0.12695 1.83106,-0.38086 0.51757,-0.2539 0.94237,-0.61035 1.27441,-1.06934 0.33202,-0.45898 0.57616,-1.00585 0.73242,-1.64062 0.15624,-0.63476 0.23437,-1.333 0.23438,-2.09473"
         style="font-size:30px;font-variant:normal;font-stretch:normal;fill:#ffffff;font-family:Calibri;-inkscape-font-specification:Calibri"
         id="path3800"
         inkscape:connector-curvature="0" />
      <path
         d="m 565.4005,600.64337 c -2e-5,0.0781 -0.0195,0.14649 -0.0586,0.20508 -0.0391,0.0488 -0.10255,0.0928 -0.19043,0.13184 -0.0879,0.0391 -0.20997,0.0684 -0.36621,0.0879 -0.15626,0.0195 -0.35157,0.0293 -0.58593,0.0293 -0.24416,0 -0.44435,-0.01 -0.60059,-0.0293 -0.15626,-0.0195 -0.27833,-0.0488 -0.36621,-0.0879 -0.0879,-0.0391 -0.15138,-0.083 -0.19043,-0.13184 -0.0391,-0.0586 -0.0586,-0.12695 -0.0586,-0.20508 l 0,-7.71972 c -2e-5,-0.75195 -0.0586,-1.35742 -0.17579,-1.81641 -0.11719,-0.45898 -0.28809,-0.85448 -0.51269,-1.18652 -0.22462,-0.33202 -0.51759,-0.58593 -0.87891,-0.76172 -0.35157,-0.17577 -0.76173,-0.26366 -1.23047,-0.26368 -0.60547,2e-5 -1.21094,0.21486 -1.8164,0.64454 -0.60548,0.42969 -1.24024,1.05958 -1.9043,1.88964 l 0,9.21387 c 0,0.0781 -0.0195,0.14649 -0.0586,0.20508 -0.0391,0.0488 -0.10255,0.0928 -0.19043,0.13184 -0.0879,0.0391 -0.20997,0.0684 -0.36621,0.0879 -0.15626,0.0195 -0.35645,0.0293 -0.60059,0.0293 -0.23438,0 -0.42969,-0.01 -0.58594,-0.0293 -0.15625,-0.0195 -0.2832,-0.0488 -0.38086,-0.0879 -0.0879,-0.0391 -0.15137,-0.083 -0.19043,-0.13184 -0.0293,-0.0586 -0.0439,-0.12695 -0.0439,-0.20508 l 0,-13.18359 c 0,-0.0781 0.0146,-0.14159 0.0439,-0.19043 0.0293,-0.0586 0.0879,-0.10741 0.17578,-0.14649 0.0879,-0.0488 0.2002,-0.0781 0.33692,-0.0879 0.13671,-0.0195 0.31738,-0.0293 0.54199,-0.0293 0.21484,10e-6 0.39062,0.01 0.52734,0.0293 0.14649,0.01 0.25879,0.0391 0.33692,0.0879 0.0781,0.0391 0.13183,0.0879 0.16113,0.14649 0.0391,0.0488 0.0586,0.11232 0.0586,0.19043 l 0,1.74316 c 0.74218,-0.83006 1.47948,-1.43553 2.21191,-1.8164 0.74218,-0.39062 1.48925,-0.58593 2.24121,-0.58594 0.8789,10e-6 1.6162,0.15138 2.21191,0.4541 0.60546,0.29298 1.09374,0.68849 1.46485,1.18652 0.37108,0.49806 0.63475,1.084 0.79101,1.75782 0.16601,0.66407 0.24901,1.46485 0.24903,2.40234 l 0,8.04199"
         style="font-size:30px;font-variant:normal;font-stretch:normal;fill:#ffffff;font-family:Calibri;-inkscape-font-specification:Calibri"
         id="path3802"
         inkscape:connector-curvature="0" />
      <path
         d="m 579.74132,600.65802 c -10e-6,0.11719 -0.0391,0.20508 -0.11719,0.26367 -0.0781,0.0586 -0.18556,0.10254 -0.32227,0.13184 -0.13673,0.0293 -0.33692,0.0439 -0.60058,0.0439 -0.25392,0 -0.459,-0.0147 -0.61524,-0.0439 -0.14649,-0.0293 -0.25391,-0.0732 -0.32226,-0.13184 -0.0684,-0.0586 -0.10255,-0.14648 -0.10254,-0.26367 l 0,-1.31836 c -0.57618,0.61524 -1.22071,1.09375 -1.93359,1.43555 -0.70314,0.34179 -1.45021,0.51269 -2.24122,0.51269 -0.69336,0 -1.32324,-0.0928 -1.88964,-0.27832 -0.55665,-0.17578 -1.03516,-0.43457 -1.43555,-0.77636 -0.39063,-0.3418 -0.69824,-0.76172 -0.92285,-1.25977 -0.21485,-0.49804 -0.32227,-1.06445 -0.32227,-1.69922 0,-0.74218 0.15137,-1.38671 0.4541,-1.93359 0.30274,-0.54687 0.73731,-1.00097 1.30371,-1.36231 0.56641,-0.36132 1.25977,-0.62987 2.08008,-0.80566 0.82031,-0.18554 1.74316,-0.27831 2.76856,-0.27832 l 1.8164,0 0,-1.02539 c -10e-6,-0.50781 -0.0537,-0.95702 -0.16113,-1.34766 -0.10743,-0.39061 -0.28321,-0.71288 -0.52734,-0.9668 -0.23439,-0.26366 -0.542,-0.45897 -0.92285,-0.58593 -0.38087,-0.13671 -0.84962,-0.20507 -1.40625,-0.20508 -0.59571,10e-6 -1.13282,0.0732 -1.61133,0.21973 -0.46876,0.13673 -0.8838,0.29298 -1.24512,0.46875 -0.35157,0.16602 -0.64942,0.32227 -0.89355,0.46875 -0.23438,0.13673 -0.41016,0.20508 -0.52735,0.20507 -0.0781,10e-6 -0.14648,-0.0195 -0.20508,-0.0586 -0.0586,-0.039 -0.1123,-0.0976 -0.16113,-0.17578 -0.0391,-0.0781 -0.0684,-0.17577 -0.0879,-0.29297 -0.0195,-0.12694 -0.0293,-0.26366 -0.0293,-0.41016 0,-0.24413 0.0146,-0.43455 0.0439,-0.57129 0.0391,-0.14647 0.12207,-0.28319 0.24902,-0.41015 0.13672,-0.12694 0.36621,-0.27343 0.68848,-0.43945 0.32226,-0.17577 0.69335,-0.33202 1.11328,-0.46875 0.41992,-0.14648 0.8789,-0.26366 1.37695,-0.35157 0.49804,-0.0976 1.00097,-0.14647 1.50879,-0.14648 0.94726,10e-6 1.75292,0.10743 2.41699,0.32226 0.66406,0.21486 1.20117,0.53224 1.61133,0.95215 0.41015,0.41017 0.708,0.92287 0.89356,1.53809 0.18553,0.61524 0.27831,1.33302 0.27832,2.15332 l 0,8.8916 m -2.40235,-6.02051 -2.06543,0 c -0.66407,10e-6 -1.24024,0.0586 -1.72851,0.17578 -0.48829,0.10743 -0.89356,0.27345 -1.21582,0.49805 -0.32227,0.21485 -0.56153,0.47852 -0.71778,0.79102 -0.14648,0.30273 -0.21973,0.6543 -0.21972,1.05468 -10e-6,0.6836 0.21484,1.23047 0.64453,1.64063 0.43945,0.40039 1.0498,0.60059 1.83105,0.60058 0.63476,10e-6 1.2207,-0.16113 1.75782,-0.48339 0.54686,-0.32227 1.11815,-0.81543 1.71386,-1.4795 l 0,-2.79785"
         style="font-size:30px;font-variant:normal;font-stretch:normal;fill:#ffffff;font-family:Calibri;-inkscape-font-specification:Calibri"
         id="path3804"
         inkscape:connector-curvature="0" />
    </g>
  </g>
</svg>
