<?xml version="1.0" encoding="UTF-8" standalone="no"?>
<!-- Created with Inkscape (http://www.inkscape.org/) -->

<svg
   xmlns:dc="http://purl.org/dc/elements/1.1/"
   xmlns:cc="http://creativecommons.org/ns#"
   xmlns:rdf="http://www.w3.org/1999/02/22-rdf-syntax-ns#"
   xmlns:svg="http://www.w3.org/2000/svg"
   xmlns="http://www.w3.org/2000/svg"
   xmlns:sodipodi="http://sodipodi.sourceforge.net/DTD/sodipodi-0.dtd"
   xmlns:inkscape="http://www.inkscape.org/namespaces/inkscape"
   width="47.047844"
   height="29.178331"
   id="svg4521"
   version="1.1"
   inkscape:version="0.48.4 r9939"
   sodipodi:docname="New document 3">
  <defs
     id="defs4523" />
  <sodipodi:namedview
     id="base"
     pagecolor="#ffffff"
     bordercolor="#666666"
     borderopacity="1.0"
     inkscape:pageopacity="0.0"
     inkscape:pageshadow="2"
     inkscape:zoom="1.01"
     inkscape:cx="-44.33322"
     inkscape:cy="-84.533891"
     inkscape:document-units="px"
     inkscape:current-layer="layer1"
     showgrid="false"
     fit-margin-top="0"
     fit-margin-left="0"
     fit-margin-right="0"
     fit-margin-bottom="0"
     inkscape:window-width="909"
     inkscape:window-height="764"
     inkscape:window-x="931"
     inkscape:window-y="24"
     inkscape:window-maximized="0" />
  <metadata
     id="metadata4526">
    <rdf:RDF>
      <cc:Work
         rdf:about="">
        <dc:format>image/svg+xml</dc:format>
        <dc:type
           rdf:resource="http://purl.org/dc/dcmitype/StillImage" />
        <dc:title></dc:title>
      </cc:Work>
    </rdf:RDF>
  </metadata>
  <g
     inkscape:label="Layer 1"
     inkscape:groupmode="layer"
     id="layer1"
     transform="translate(-419.33322,-220.63016)">
    <g
       id="g880"
       transform="matrix(1.25,0,0,-1.25,455.36572,241.13099)">
      <path
         inkscape:connector-curvature="0"
         d="m 0,0 -2.083,10.287 c -1.515,0.47 -2.903,-1.94 -2.903,-1.94 0,0 -1.19,2.494 -1.667,2.408 -0.702,-0.128 -1.17,-0.278 -1.17,-0.278 L -9.971,0 c 1.333,-0.909 2.64,-1.35 3.847,-1.502 l 0.445,-5.44 c 0,0 2.081,0.658 2.732,5.642 C -1.156,-0.851 0,0 0,0"
         style="fill:#ffffff;fill-opacity:1;fill-rule:nonzero;stroke:none"
         id="path882" />
    </g>
    <g
       id="g884"
       transform="matrix(1.25,0,0,-1.25,448.10072,225.89974)">
      <path
         inkscape:connector-curvature="0"
         d="M 0,0 C 0.895,-0.196 2.366,0.379 2.755,1.051 3.091,1.74 2.568,3.247 1.752,3.849 0.919,4.381 -0.64,3.82 -1.09,2.81 -1.47,1.767 -0.859,0.248 0,0"
         style="fill:#ffffff;fill-opacity:1;fill-rule:nonzero;stroke:none"
         id="path886" />
    </g>
    <g
       id="g888"
       transform="matrix(1.25,0,0,-1.25,433.39322,225.47849)">
      <path
         inkscape:connector-curvature="0"
         d="M 0,0 C 0.718,-0.321 2.043,0.037 2.481,0.645 2.877,1.278 2.691,2.837 2.107,3.546 1.5,4.189 0.1,3.856 -0.442,2.924 -0.935,1.95 -0.676,0.366 0,0"
         style="fill:#ffffff;fill-opacity:1;fill-rule:nonzero;stroke:none"
         id="path890" />
    </g>
    <g
       id="g892"
       transform="matrix(1.25,0,0,-1.25,435.00947,226.94599)">
      <path
         inkscape:connector-curvature="0"
         d="m 0,0 c -3.343,0 -4.604,-1.074 -4.604,-1.074 0,0 0,-2.081 0,-5.301 0,-2.059 1.493,-3.341 2.569,-4.001 l 0.386,-7.873 c 0,0 3.442,-0.379 3.551,8.265 2.179,1.217 2.328,2.978 2.328,2.978 l 0,5.491 C 4.23,-1.515 3.348,0 0,0"
         style="fill:#ffffff;fill-opacity:1;fill-rule:nonzero;stroke:none"
         id="path894" />
    </g>
    <g
       id="g896"
       transform="matrix(1.25,0,0,-1.25,421.75572,235.99224)">
      <path
         inkscape:connector-curvature="0"
         d="M 0,0 C 0.71,-0.318 2.026,0.037 2.46,0.641 2.854,1.27 2.669,2.816 2.09,3.521 1.487,4.157 0.099,3.828 -0.44,2.903 -0.929,1.936 -0.673,0.363 0,0"
         style="fill:#ffffff;fill-opacity:1;fill-rule:nonzero;stroke:none"
         id="path898" />
    </g>
    <g
       id="g900"
       transform="matrix(1.25,0,0,-1.25,423.14697,236.57849)">
      <path
         inkscape:connector-curvature="0"
         d="m 0,0 c -2.217,0 -2.35,-0.568 -2.35,-0.568 0,0 -0.701,-1.522 -0.701,-3.655 0,-1.364 0.989,-2.213 1.703,-2.651 l 0.254,-3.71 c 0,0 2.354,0.338 2.354,3.969 1.442,0.807 1.541,1.349 1.542,1.974 0.003,1.044 -0.749,4.113 -0.749,4.113 C 2.053,-0.528 1.042,0 0,0"
         style="fill:#ffffff;fill-opacity:1;fill-rule:nonzero;stroke:none"
         id="path902" />
    </g>
    <g
       id="g904"
       transform="matrix(1.25,0,0,-1.25,462.33072,236.57849)">
      <path
         inkscape:connector-curvature="0"
         d="m 0,0 c -2.217,0 -2.353,-0.568 -2.353,-0.568 0,0 -0.7,-3.75 -0.7,-5.882 0,0 0.874,-0.104 1.704,-0.424 l 0.254,-3.71 c 0,0 2.353,0.814 2.353,3.969 C 1.765,-6.49 2.8,-6.644 2.8,-6.644 L 2.033,-0.528 C 2.033,-0.528 1.041,0 0,0"
         style="fill:#ffffff;fill-opacity:1;fill-rule:nonzero;stroke:none"
         id="path906" />
    </g>
    <g
       id="g908"
       transform="matrix(1.25,0,0,-1.25,465.82197,234.92724)">
      <path
         inkscape:connector-curvature="0"
         d="M 0,0 C -0.325,0.315 -0.757,0.443 -1.174,0.398 -1.07,0.963 -1.125,1.625 -1.375,2.07 -1.85,2.788 -3.343,2.851 -4.096,2.171 -4.535,1.724 -4.733,1.004 -4.688,0.4 -5.095,0.437 -5.514,0.307 -5.834,0 c -0.339,-0.328 -0.487,-0.782 -0.438,-1.218 0.438,-0.194 0.967,-0.115 1.333,0.239 l 0.566,0.547 0.081,-0.079 c 0.657,-0.464 2.078,-0.486 2.656,-0.063 l 0.15,0.166 0.593,-0.571 C -0.528,-1.333 0,-1.412 0.438,-1.218 0.487,-0.782 0.342,-0.328 0,0"
         style="fill:#ffffff;fill-opacity:1;fill-rule:nonzero;stroke:none"
         id="path910" />
    </g>
  </g>
</svg>
